<svg width="300mm" height="225mm" stroke-linejoin="round" stroke-width="28.222" version="1.1" viewBox="0 0 3e4 22500" xmlns="http://www.w3.org/2000/svg" xmlns:xlink="http://www.w3.org/1999/xlink"><defs><linearGradient id="d" x1="1905" x2="15539" y1="20345" y2="3487.4" gradientUnits="userSpaceOnUse"><stop stop-color="#fe007f" offset="0"/><stop stop-color="#fe0000" offset="1"/></linearGradient><linearGradient id="c" x1="1855" x2="27924" y1="20400" y2="7132" gradientUnits="userSpaceOnUse"><stop stop-color="#00ffd5" offset="0"/><stop stop-color="#00ff2a" offset="1"/></linearGradient><linearGradient id="b" x1="13381" x2="13881" y1="1808.4" y2="1308.4" gradientTransform="translate(-100)" gradientUnits="userSpaceOnUse"><stop stop-color="#fe007f" offset="0"/><stop stop-color="#fe0000" offset="1"/></linearGradient><linearGradient id="a" x1="13381" x2="13881" y1="1808.4" y2="1308.4" gradientTransform="translate(10725 -.048718)" gradientUnits="userSpaceOnUse"><stop stop-color="#00fed2" offset="0"/><stop stop-color="#00fe2b" offset="1"/></linearGradient></defs><path d="m15000 22500h-15000v-22500h3e4v22500z"/><path d="m27824 18435h-25869" fill="none" stroke="#333" stroke-dasharray="151,200" stroke-linecap="round" stroke-linejoin="round" stroke-width="50"/><path d="m27824 16570h-25869" fill="none" stroke="#333" stroke-dasharray="151,200" stroke-linecap="round" stroke-linejoin="round" stroke-width="50"/><path d="m27824 14705h-25869" fill="none" stroke="#333" stroke-dasharray="151,200" stroke-linecap="round" stroke-linejoin="round" stroke-width="50"/><path d="m27824 12839h-25869" fill="none" stroke="#333" stroke-dasharray="151,200" stroke-linecap="round" stroke-linejoin="round" stroke-width="50"/><path d="m27824 10975h-25869" fill="none" stroke="#333" stroke-dasharray="151,200" stroke-linecap="round" stroke-linejoin="round" stroke-width="50"/><path d="m27824 9109h-25869" fill="none" stroke="#333" stroke-dasharray="151,200" stroke-linecap="round" stroke-linejoin="round" stroke-width="50"/><path d="m27824 7244h-25869" fill="none" stroke="#333" stroke-dasharray="151,200" stroke-linecap="round" stroke-linejoin="round" stroke-width="50"/><path d="m27824 5379h-25869" fill="none" stroke="#333" stroke-dasharray="151,200" stroke-linecap="round" stroke-linejoin="round" stroke-width="50"/><path d="m27824 3513h-25869" fill="none" stroke="#333" stroke-dasharray="151,200" stroke-linecap="round" stroke-linejoin="round" stroke-width="50"/><path d="m1955 20451v-150" fill="none" stroke="#333" stroke-linejoin="round" stroke-width="100"/><path d="m1955 20451v-150" fill="none" stroke="#333" stroke-linejoin="round" stroke-width="100"/><path d="m2359 20451v-150" fill="none" stroke="#333" stroke-linejoin="round" stroke-width="100"/><path d="m2359 20451v-150" fill="none" stroke="#333" stroke-linejoin="round" stroke-width="100"/><path d="m2763 20451v-150" fill="none" stroke="#333" stroke-linejoin="round" stroke-width="100"/><path d="m2763 20451v-150" fill="none" stroke="#333" stroke-linejoin="round" stroke-width="100"/><path d="m3167 20451v-150" fill="none" stroke="#333" stroke-linejoin="round" stroke-width="100"/><path d="m3167 20451v-150" fill="none" stroke="#333" stroke-linejoin="round" stroke-width="100"/><path d="m3571 20451v-150" fill="none" stroke="#333" stroke-linejoin="round" stroke-width="100"/><path d="m3571 20451v-150" fill="none" stroke="#333" stroke-linejoin="round" stroke-width="100"/><path d="m3976 20451v-150" fill="none" stroke="#333" stroke-linejoin="round" stroke-width="100"/><path d="m3976 20451v-150" fill="none" stroke="#333" stroke-linejoin="round" stroke-width="100"/><path d="m4380 20451v-150" fill="none" stroke="#333" stroke-linejoin="round" stroke-width="100"/><path d="m4380 20451v-150" fill="none" stroke="#333" stroke-linejoin="round" stroke-width="100"/><path d="m4784 20451v-150" fill="none" stroke="#333" stroke-linejoin="round" stroke-width="100"/><path d="m4784 20451v-150" fill="none" stroke="#333" stroke-linejoin="round" stroke-width="100"/><path d="m5188 20451v-150" fill="none" stroke="#333" stroke-linejoin="round" stroke-width="100"/><path d="m5188 20451v-150" fill="none" stroke="#333" stroke-linejoin="round" stroke-width="100"/><path d="m5592 20451v-150" fill="none" stroke="#333" stroke-linejoin="round" stroke-width="100"/><path d="m5592 20451v-150" fill="none" stroke="#333" stroke-linejoin="round" stroke-width="100"/><path d="m5997 20451v-150" fill="none" stroke="#333" stroke-linejoin="round" stroke-width="100"/><path d="m5997 20451v-150" fill="none" stroke="#333" stroke-linejoin="round" stroke-width="100"/><path d="m6401 20451v-150" fill="none" stroke="#333" stroke-linejoin="round" stroke-width="100"/><path d="m6401 20451v-150" fill="none" stroke="#333" stroke-linejoin="round" stroke-width="100"/><path d="m6805 20451v-150" fill="none" stroke="#333" stroke-linejoin="round" stroke-width="100"/><path d="m6805 20451v-150" fill="none" stroke="#333" stroke-linejoin="round" stroke-width="100"/><path d="m7209 20451v-150" fill="none" stroke="#333" stroke-linejoin="round" stroke-width="100"/><path d="m7209 20451v-150" fill="none" stroke="#333" stroke-linejoin="round" stroke-width="100"/><path d="m7614 20451v-150" fill="none" stroke="#333" stroke-linejoin="round" stroke-width="100"/><path d="m7614 20451v-150" fill="none" stroke="#333" stroke-linejoin="round" stroke-width="100"/><path d="m8018 20451v-150" fill="none" stroke="#333" stroke-linejoin="round" stroke-width="100"/><path d="m8018 20451v-150" fill="none" stroke="#333" stroke-linejoin="round" stroke-width="100"/><path d="m8422 20451v-150" fill="none" stroke="#333" stroke-linejoin="round" stroke-width="100"/><path d="m8422 20451v-150" fill="none" stroke="#333" stroke-linejoin="round" stroke-width="100"/><path d="m8826 20451v-150" fill="none" stroke="#333" stroke-linejoin="round" stroke-width="100"/><path d="m8826 20451v-150" fill="none" stroke="#333" stroke-linejoin="round" stroke-width="100"/><path d="m9230 20451v-150" fill="none" stroke="#333" stroke-linejoin="round" stroke-width="100"/><path d="m9230 20451v-150" fill="none" stroke="#333" stroke-linejoin="round" stroke-width="100"/><path d="m9635 20451v-150" fill="none" stroke="#333" stroke-linejoin="round" stroke-width="100"/><path d="m9635 20451v-150" fill="none" stroke="#333" stroke-linejoin="round" stroke-width="100"/><path d="m10039 20451v-150" fill="none" stroke="#333" stroke-linejoin="round" stroke-width="100"/><path d="m10039 20451v-150" fill="none" stroke="#333" stroke-linejoin="round" stroke-width="100"/><path d="m10443 20451v-150" fill="none" stroke="#333" stroke-linejoin="round" stroke-width="100"/><path d="m10443 20451v-150" fill="none" stroke="#333" stroke-linejoin="round" stroke-width="100"/><path d="m10847 20451v-150" fill="none" stroke="#333" stroke-linejoin="round" stroke-width="100"/><path d="m10847 20451v-150" fill="none" stroke="#333" stroke-linejoin="round" stroke-width="100"/><path d="m11252 20451v-150" fill="none" stroke="#333" stroke-linejoin="round" stroke-width="100"/><path d="m11252 20451v-150" fill="none" stroke="#333" stroke-linejoin="round" stroke-width="100"/><path d="m11656 20451v-150" fill="none" stroke="#333" stroke-linejoin="round" stroke-width="100"/><path d="m11656 20451v-150" fill="none" stroke="#333" stroke-linejoin="round" stroke-width="100"/><path d="m12060 20451v-150" fill="none" stroke="#333" stroke-linejoin="round" stroke-width="100"/><path d="m12060 20451v-150" fill="none" stroke="#333" stroke-linejoin="round" stroke-width="100"/><path d="m12464 20451v-150" fill="none" stroke="#333" stroke-linejoin="round" stroke-width="100"/><path d="m12464 20451v-150" fill="none" stroke="#333" stroke-linejoin="round" stroke-width="100"/><path d="m12868 20451v-150" fill="none" stroke="#333" stroke-linejoin="round" stroke-width="100"/><path d="m12868 20451v-150" fill="none" stroke="#333" stroke-linejoin="round" stroke-width="100"/><path d="m13273 20451v-150" fill="none" stroke="#333" stroke-linejoin="round" stroke-width="100"/><path d="m13273 20451v-150" fill="none" stroke="#333" stroke-linejoin="round" stroke-width="100"/><path d="m13677 20451v-150" fill="none" stroke="#333" stroke-linejoin="round" stroke-width="100"/><path d="m13677 20451v-150" fill="none" stroke="#333" stroke-linejoin="round" stroke-width="100"/><path d="m14081 20451v-150" fill="none" stroke="#333" stroke-linejoin="round" stroke-width="100"/><path d="m14081 20451v-150" fill="none" stroke="#333" stroke-linejoin="round" stroke-width="100"/><path d="m14485 20451v-150" fill="none" stroke="#333" stroke-linejoin="round" stroke-width="100"/><path d="m14485 20451v-150" fill="none" stroke="#333" stroke-linejoin="round" stroke-width="100"/><path d="m14890 20451v-150" fill="none" stroke="#333" stroke-linejoin="round" stroke-width="100"/><path d="m14890 20451v-150" fill="none" stroke="#333" stroke-linejoin="round" stroke-width="100"/><path d="m15293 20451v-150" fill="none" stroke="#333" stroke-linejoin="round" stroke-width="100"/><path d="m15293 20451v-150" fill="none" stroke="#333" stroke-linejoin="round" stroke-width="100"/><path d="m15697 20451v-150" fill="none" stroke="#333" stroke-linejoin="round" stroke-width="100"/><path d="m15697 20451v-150" fill="none" stroke="#333" stroke-linejoin="round" stroke-width="100"/><path d="m16101 20451v-150" fill="none" stroke="#333" stroke-linejoin="round" stroke-width="100"/><path d="m16101 20451v-150" fill="none" stroke="#333" stroke-linejoin="round" stroke-width="100"/><path d="m16505 20451v-150" fill="none" stroke="#333" stroke-linejoin="round" stroke-width="100"/><path d="m16505 20451v-150" fill="none" stroke="#333" stroke-linejoin="round" stroke-width="100"/><path d="m16910 20451v-150" fill="none" stroke="#333" stroke-linejoin="round" stroke-width="100"/><path d="m16910 20451v-150" fill="none" stroke="#333" stroke-linejoin="round" stroke-width="100"/><path d="m17314 20451v-150" fill="none" stroke="#333" stroke-linejoin="round" stroke-width="100"/><path d="m17314 20451v-150" fill="none" stroke="#333" stroke-linejoin="round" stroke-width="100"/><path d="m17718 20451v-150" fill="none" stroke="#333" stroke-linejoin="round" stroke-width="100"/><path d="m17718 20451v-150" fill="none" stroke="#333" stroke-linejoin="round" stroke-width="100"/><path d="m18122 20451v-150" fill="none" stroke="#333" stroke-linejoin="round" stroke-width="100"/><path d="m18122 20451v-150" fill="none" stroke="#333" stroke-linejoin="round" stroke-width="100"/><path d="m18526 20451v-150" fill="none" stroke="#333" stroke-linejoin="round" stroke-width="100"/><path d="m18526 20451v-150" fill="none" stroke="#333" stroke-linejoin="round" stroke-width="100"/><path d="m18931 20451v-150" fill="none" stroke="#333" stroke-linejoin="round" stroke-width="100"/><path d="m18931 20451v-150" fill="none" stroke="#333" stroke-linejoin="round" stroke-width="100"/><path d="m19335 20451v-150" fill="none" stroke="#333" stroke-linejoin="round" stroke-width="100"/><path d="m19335 20451v-150" fill="none" stroke="#333" stroke-linejoin="round" stroke-width="100"/><path d="m19739 20451v-150" fill="none" stroke="#333" stroke-linejoin="round" stroke-width="100"/><path d="m19739 20451v-150" fill="none" stroke="#333" stroke-linejoin="round" stroke-width="100"/><path d="m20143 20451v-150" fill="none" stroke="#333" stroke-linejoin="round" stroke-width="100"/><path d="m20143 20451v-150" fill="none" stroke="#333" stroke-linejoin="round" stroke-width="100"/><path d="m20548 20451v-150" fill="none" stroke="#333" stroke-linejoin="round" stroke-width="100"/><path d="m20548 20451v-150" fill="none" stroke="#333" stroke-linejoin="round" stroke-width="100"/><path d="m20952 20451v-150" fill="none" stroke="#333" stroke-linejoin="round" stroke-width="100"/><path d="m20952 20451v-150" fill="none" stroke="#333" stroke-linejoin="round" stroke-width="100"/><path d="m21356 20451v-150" fill="none" stroke="#333" stroke-linejoin="round" stroke-width="100"/><path d="m21356 20451v-150" fill="none" stroke="#333" stroke-linejoin="round" stroke-width="100"/><path d="m21760 20451v-150" fill="none" stroke="#333" stroke-linejoin="round" stroke-width="100"/><path d="m21760 20451v-150" fill="none" stroke="#333" stroke-linejoin="round" stroke-width="100"/><path d="m22164 20451v-150" fill="none" stroke="#333" stroke-linejoin="round" stroke-width="100"/><path d="m22164 20451v-150" fill="none" stroke="#333" stroke-linejoin="round" stroke-width="100"/><path d="m22569 20451v-150" fill="none" stroke="#333" stroke-linejoin="round" stroke-width="100"/><path d="m22569 20451v-150" fill="none" stroke="#333" stroke-linejoin="round" stroke-width="100"/><path d="m22973 20451v-150" fill="none" stroke="#333" stroke-linejoin="round" stroke-width="100"/><path d="m22973 20451v-150" fill="none" stroke="#333" stroke-linejoin="round" stroke-width="100"/><path d="m23377 20451v-150" fill="none" stroke="#333" stroke-linejoin="round" stroke-width="100"/><path d="m23377 20451v-150" fill="none" stroke="#333" stroke-linejoin="round" stroke-width="100"/><path d="m23781 20451v-150" fill="none" stroke="#333" stroke-linejoin="round" stroke-width="100"/><path d="m23781 20451v-150" fill="none" stroke="#333" stroke-linejoin="round" stroke-width="100"/><path d="m24186 20451v-150" fill="none" stroke="#333" stroke-linejoin="round" stroke-width="100"/><path d="m24186 20451v-150" fill="none" stroke="#333" stroke-linejoin="round" stroke-width="100"/><path d="m24590 20451v-150" fill="none" stroke="#333" stroke-linejoin="round" stroke-width="100"/><path d="m24590 20451v-150" fill="none" stroke="#333" stroke-linejoin="round" stroke-width="100"/><path d="m24994 20451v-150" fill="none" stroke="#333" stroke-linejoin="round" stroke-width="100"/><path d="m24994 20451v-150" fill="none" stroke="#333" stroke-linejoin="round" stroke-width="100"/><path d="m25398 20451v-150" fill="none" stroke="#333" stroke-linejoin="round" stroke-width="100"/><path d="m25398 20451v-150" fill="none" stroke="#333" stroke-linejoin="round" stroke-width="100"/><path d="m25802 20451v-150" fill="none" stroke="#333" stroke-linejoin="round" stroke-width="100"/><path d="m25802 20451v-150" fill="none" stroke="#333" stroke-linejoin="round" stroke-width="100"/><path d="m26207 20451v-150" fill="none" stroke="#333" stroke-linejoin="round" stroke-width="100"/><path d="m26207 20451v-150" fill="none" stroke="#333" stroke-linejoin="round" stroke-width="100"/><path d="m26611 20451v-150" fill="none" stroke="#333" stroke-linejoin="round" stroke-width="100"/><path d="m26611 20451v-150" fill="none" stroke="#333" stroke-linejoin="round" stroke-width="100"/><path d="m27015 20451v-150" fill="none" stroke="#333" stroke-linejoin="round" stroke-width="100"/><path d="m27015 20451v-150" fill="none" stroke="#333" stroke-linejoin="round" stroke-width="100"/><path d="m27419 20451v-150" fill="none" stroke="#333" stroke-linejoin="round" stroke-width="100"/><path d="m27419 20451v-150" fill="none" stroke="#333" stroke-linejoin="round" stroke-width="100"/><path d="m27824 20451v-150" fill="none" stroke="#333" stroke-linejoin="round" stroke-width="100"/><path d="m27824 20451v-150" fill="none" stroke="#333" stroke-linejoin="round" stroke-width="100"/><path d="m1955 20301h25869" fill="none" stroke="#333" stroke-linecap="round" stroke-linejoin="round" stroke-width="100"/><path d="m1955 20300h20 20 20 20 21 20 20 20 20 21 20 20 20 20 21 20 20 20 21 20 20 20 20 21 20 20 20 20 21 20 20 20 20 21 20 20 20 21 20 20 20 20 21 20 20 20 20 21 20 20 20 20 21 20 20 20 21 20 20 20 20 21 20 20 20 20 21 20 20 20 20 21 20 20 20 21 20 20 20 20 21 20 20 20 20 21 20 20 20 20 21 20 20 20 21 20 20l20-1h20 21 20 20 20 20 21 20 20 20 20 21l20-1h20 20 21 20 20 20 20l21-1h20 20 20 20 21l20-1h20 20 21 20l20-1h20 20 21 20l20-1h20 20l21-1h20 20 20l20-1h21 20l20-1h20l21-1h20l20-1h20l20-1h21l20-1h20l40-2h21l80-4 21-1 60-3 21-1 80-4 21-2 40-2 20-2 20-1 21-1 20-2 20-1 20-2 20-1 21-1 20-2 20-1 20-2 21-1 20-2 20-1 20-2 20-1 21-2 20-1 20-2 20-1 20-2 21-1 20-2 40-2 20-2 21-1 20-1 20-2 20-1 21-1 20-2 40-2 20-2 21-1 80-4 21-2 80-4 21-1 60-3 21-1 20-1h20l40-2 21-1 60-3h20l21-1 60-3h20l21-1 40-2h20l21-1 40-2h20l20-1 21-1 40-2h20l20-1 21-1 40-2h20l21-1 40-2h20l20-1 21-1 40-2h20l20-1 21-1 40-2h20l20-1 21-1 20-1h20l20-1 21-1 40-2h20l20-1 21-1 40-2h20l20-1 21-1 20-1h20l40-2 21-1 20-1h20l20-1 21-1 20-1h20l40-2 21-1 20-1h20l40-2 21-1 20-1h20l40-2 21-1h20l40-2 21-1 40-2h20l20-1 21-1 40-2h20l20-1 21-1 80-4 21-1h20l40-2 21-1 80-4 21-1h20l60-3 21-1 80-4h21l60-3 21-1 80-4h21l80-4 21-1 80-4 21-1h20l40-2 21-1 80-4 21-1 60-3h20l21-1 60-3 21-1 80-4 21-1 80-4 21-1 80-4 21-1 60-3 21-1 80-4 21-1 40-2 20-2 20-1 21-1 80-4 21-1 60-3 21-1 80-4 21-1 80-4 21-1 80-4 21-1 60-3 21-1 80-4 21-2 80-4 21-1 20-1 20-2 40-2 21-1 20-1 20-2 20-1 21-1 20-1 20-2 40-2 21-2 60-3 20-2 21-1 20-1 20-2 40-2 21-1 20-2 40-2 21-1 80-4 21-1 80-4 21-1 80-4 21-1 60-3 21-1 60-3 20-2 21-1 40-2 20-2 20-1 21-1 20-2 40-2 21-2 40-2 20-2 20-1 21-1 20-2 60-3 21-1 20-2 60-3 21-1 60-3 21-2 80-4 21-1 20-2 40-2 20-2 21-1 20-1 20-2 20-1 20-2 21-1 20-2 20-1 20-2 21-2 20-1 20-2 20-1 20-2 21-1 40-4 20-1 20-2 21-1 20-2 40-2 20-2 21-1 20-2 40-2 21-2 20-1 20-2 20-1 20-2 21-1 20-2 20-1 40-4 21-2 80-8 21-2 20-2 20-3 20-2 21-2 20-3 20-2 20-3 20-2 21-2 20-3 60-6 21-2 80-8 21-1 20-2 20-1 20-2 21-1 20-2 60-3 21-2 40-2 20-2 20-1 21-1 20-2 20-1 20-2 20-1 21-2 60-6 21-1 80-8 21-3 80-8 21-2 20-3 40-4 21-2 40-4 20-3 120-12 21-2 20-3 60-6 21-2 40-4 20-1 21-2 80-8 21-2 40-4 20-1 20-2 21-2 80-8 21-2 60-6 21-3 40-4 20-3 20-2 21-3 20-3 20-2 40-6 21-3 20-2 60-9 21-3 20-3 20-2 20-3 21-3 40-6 20-2 20-3 21-3 20-2 20-3 20-2 20-3 21-2 20-3 20-2 20-3 20-2 21-3 20-3 20-2 20-3 21-3 80-12 21-3 40-6 20-4 20-3 21-4 20-3 20-4 20-3 20-4 21-3 20-4 20-3 20-4 21-4 20-3 20-4 40-6 21-4 80-12 21-3 80-12 21-2 40-6 20-2 21-3 20-3 20-2 20-3 20-2 21-3 20-2 20-3 20-2 20-3 21-3 20-2 20-3 20-2 21-3 80-12 21-3 60-9 20-4 21-3 40-8 20-3 20-5 21-4 40-8 20-5 21-4 20-5 20-4 20-5 20-4 21-5 20-4 20-5 40-8 21-5 80-16 21-3 20-4 20-3 20-4 21-3 80-12 21-3 20-3 20-2 40-6 21-2 40-6 20-2 20-3 21-2 40-6 20-2 21-3 20-2 40-6 20-2 21-3 40-4 20-3 20-2 21-2 20-3 60-6 21-2 60-6 21-1 80-8 21-3 20-2 60-9 21-4 20-3 20-5 20-4 20-5 21-5 20-6 20-7 20-6 21-7 80-32 21-8 20-8 20-9 40-16 21-9 20-8 20-7 20-8 20-7 21-7 40-12 20-5 21-5 80-16 21-3 80-12 21-3 40-6 20-4 21-3 20-5 20-4 40-10 21-6 40-14 40-16 21-8 20-9 20-10 20-9 20-11 21-10 40-22 20-12 21-12 20-12 20-13 20-12 20-13 21-14 20-13 20-14 20-13 20-14 21-14 40-28 20-13 20-14 21-13 20-14 20-12 20-13 21-12 40-24 20-11 20-10 21-10 20-10 20-9 20-8 20-7 21-8 60-18 20-5 21-5 40-8 20-3 21-4 20-3 20-2 20-3 20-2 21-2 40-4 20-1 20-2 21-2 20-1 60-6 21-3 20-3 20-4 20-3 21-5 20-5 20-6 40-14 21-9 20-9 20-10 40-24 21-14 20-14 20-15 20-16 20-17 21-17 20-18 20-17 20-18 21-18 20-18 20-17 20-18 20-17 21-16 20-16 40-30 20-13 21-12 20-12 40-20 20-9 21-8 20-8 40-14 21-7 20-6 20-7 40-12 21-7 20-6 20-7 20-8 20-7 21-9 40-18 20-10 21-11 40-22 40-24 21-12 20-13 20-12 40-26 21-13 20-12 20-13 40-24 21-12 20-12 40-22 21-11 40-22 20-12 20-11 21-12 40-26 40-30 21-16 20-17 20-19 20-20 20-22 21-23 20-25 20-27 20-29 21-30 20-33 20-34 20-35 20-37 21-37 20-39 40-80 20-41 21-41 20-41 20-42 40-82 21-41 40-80 20-39 21-38 20-37 20-36 20-34 20-33 21-32 20-29 20-28 20-26 20-24 21-22 20-19 20-17 20-15 20-11 21-9 20-6 20-2h20l21 4 20 8 20 10 20 13 20 14 21 16 80 68 21 15 20 13 20 11 20 9 20 5 21 1 20-3 20-8 20-13 21-20 20-26 20-32 20-39 20-44 21-49 20-53 20-56 20-59 20-60 21-62 20-61 20-62 20-60 20-58 21-55 20-52 20-48 20-42 21-37 20-31 20-23 20-16 20-8 21-3 20 3 20 8 20 12 20 14 21 17 20 17 20 19 20 18 21 16 20 15 20 11 20 8 20 4 21-2 20-9 20-15 20-23 20-32 21-39 20-47 20-54 20-59 20-65 21-68 20-73 20-75 20-78 21-78 40-160 20-79 20-77 21-75 20-73 20-69 20-64 20-59 21-54 20-48 20-43 20-39 20-34 21-31 20-27 20-24 20-21 21-19 20-18 20-16 20-14 20-15 21-14 20-14 20-15 20-16 20-17 21-19 20-21 20-23 20-26 20-29 21-33 20-35 20-39 20-44 21-47 20-52 20-56 20-62 20-66 21-72 20-78 20-84 20-90 20-96 21-103 20-109 20-117 20-123 20-128 21-132 20-135 20-137 20-139 21-136 20-137 20-135 20-132 20-127 21-122 20-115 20-109 20-100 20-90 21-80 20-69 20-56 20-43 20-31 21-19 20-10 20-2 20 5 21 10 20 15 20 18 40 38 21 19 20 16 20 12 20 7h20l21-7 20-16 20-27 20-38 20-51 21-64 20-75 20-87 20-97 21-107 20-116 20-125 20-132 20-140 21-146 20-152 20-157 20-162 20-166 21-169 20-172 20-174 20-175 21-176" fill="none" stroke="url(#c)" stroke-linecap="round" stroke-linejoin="round" stroke-width="200"/><path d="m15486 3487.5a50 50 0 0 0-46.716 46.509l-0.103 0.9819a50 50 0 0 0 46.509 53.278 50 50 0 0 0 53.278-46.457l0.052-1.0336a50 50 0 0 0-46.457-53.278 50 50 0 0 0-6.563 0zm-13.591 199.52a50 50 0 0 0-46.716 46.509l-0.103 1.0335a50 50 0 0 0 46.509 53.278 50 50 0 0 0 53.278-46.509l0.052-0.9819a50 50 0 0 0-46.457-53.278 50 50 0 0 0-6.563-0.0517zm-13.953 199.52a50 50 0 0 0-46.87 46.354l-0.104 0.9818a50 50 0 0 0 46.354 53.434 50 50 0 0 0 53.433-46.354l0.052-0.9818a50 50 0 0 0-46.354-53.434 50 50 0 0 0-6.511 0zm-14.004 199.52a50 50 0 0 0-46.716 46.509l-0.103 1.0336a50 50 0 0 0 46.509 53.227 50 50 0 0 0 53.278-46.509l0.052-0.9819a50 50 0 0 0-46.509-53.278 50 50 0 0 0-6.511 0zm-13.488 199.52a50 50 0 0 0-46.715 46.56l-0.104 0.9819a50 50 0 0 0 46.509 53.278 50 50 0 0 0 53.279-46.56l0.051-0.9818a50 50 0 0 0-46.508-53.227 50 50 0 0 0-6.512-0.0516zm-13.539 199.57a50 50 0 0 0-46.715 46.509l-0.052 0.9819a50 50 0 0 0 46.457 53.278 50 50 0 0 0 53.278-46.509l0.104-0.9819a50 50 0 0 0-46.509-53.278 50 50 0 0 0-6.563 0zm-13.539 199.52a50 50 0 0 0-46.767 46.509l-0.052 0.9819a50 50 0 0 0 46.457 53.278 50 50 0 0 0 53.33-46.457l0.052-0.9819a50 50 0 0 0-46.509-53.33 50 50 0 0 0-6.511 0zm-13.591 199.52a50 50 0 0 0-46.767 46.457l-0.104 1.0335a50 50 0 0 0 46.458 53.278 50 50 0 0 0 53.33-46.405l0.051-1.0336a50 50 0 0 0-46.405-53.278h-0.052a50 50 0 0 0-6.511-0.0517zm-13.746 199.52a50 50 0 0 0-46.819 46.457l-0.052 1.0335a50 50 0 0 0 46.458 53.278 50 50 0 0 0 53.33-46.405l0.051-1.0336a50 50 0 0 0-46.457-53.278 50 50 0 0 0-6.511-0.0516zm-14.056 199.47a50 50 0 0 0-46.974 46.302l-0.052 0.9818a50 50 0 0 0 46.199 53.537 50 50 0 0 0 53.537-46.25l0.052-0.9819a50 50 0 0 0-46.199-53.537 50 50 0 0 0-6.563-0.0517zm-14.624 199.52a50 50 0 0 0-46.871 46.354l-0.103 0.9818a50 50 0 0 0 46.353 53.433 50 50 0 0 0 53.434-46.354l0.052-0.9819a50 50 0 0 0-46.354-53.433 50 50 0 0 0-6.511 0zm-14.16 199.47a50 50 0 0 0-46.87 46.354l-0.052 1.0335a50 50 0 0 0 46.302 53.382 50 50 0 0 0 53.434-46.302l0.051-1.0335a50 50 0 0 0-46.302-53.382h-0.052a50 50 0 0 0-6.511-0.0517zm-14.314 199.47a50 50 0 0 0-46.922 46.302l-0.052 0.9819a50 50 0 0 0 0 0.0517l-8.268 113.95-1.189 16.381-19.999 269.91-19.998 261.84-20.981 254.82a50.005 50.005 0 0 0 0 0.0517l-19.999 246.96-19.999 240.92-19.947 233.73-20.98 226.86a50.005 50.005 0 0 0 0 0.0517l-19.999 219.99-19.999 214.82-19.999 207.89-19.947 202.73-20.98 196.84a50.005 50.005 0 0 0-0.052 0.0517l-19.999 190.94-19.947 186.86-19.999 180.87-19.998 175.85-19.948 171.82-19.998 166.86-19.999 161.85-19.947 158.85-19.947 154.67-20.981 150.74a50.005 50.005 0 0 0-0.052 0.155l-19.947 146.97-19.999 144.85-19.947 139.63-20.98 137.77a50.005 50.005 0 0 0 0 0.155l-19.999 133.94-19.999 132.86-19.947 128.88-19.947 127.69-20.981 124.7a50.005 50.005 0 0 0-0.051 0.259l-19.999 122.99-19.947 121.85-19.999 118.91-19.947 118.75-20.981 116.68a50.005 50.005 0 0 0 0 0.31l-19.999 114.98-19.998 114.98-19.947 113.69-20.981 112.76a50.005 50.005 0 0 0-0.052 0.414l-20.05 113.02-19.947 112.96-19.999 111.93-19.947 110.74-20.981 110.8a50.005 50.005 0 0 0-0.051 0.413l-19.999 110.9-19.999 108.88-19.999 107.95-19.947 107.69-20.929 105.73a50.005 50.005 0 0 0-0.052 0.361l-19.998 104.96-19.999 103.87-19.947 101.8-19.947 99.633-20.929 98.702a50.005 50.005 0 0 0-0.052 0.258l-19.947 96.893-19.947 93.793-19.947 92.553-20.878 90.64a50.005 50.005 0 0 0-0.051 0.155l-19.999 87.953-19.947 86.662-19.896 82.63-19.843 80.409-20.878 78.6a50.005 50.005 0 0 0-0.103 0.258l-19.947 76.843-19.895 74.672-19.896 72.657-19.844 70.332-20.825 68.523a50.005 50.005 0 0 0-0.155 0.465l-19.947 67.8-19.896 65.68-19.947 64.803-19.792 63.303-20.774 61.443a50.005 50.005 0 0 0-0.258 0.724l-19.947 61.753-19.896 59.79-19.844 59.48-20.825 58.549a50.005 50.005 0 0 0-0.155 0.465l-19.999 57.981-19.999 58.033-19.947 57.877-19.844 56.483-20.877 56.637a50.005 50.005 0 0 0-0.258 0.723l-19.947 56.896-19.947 55.862-19.999 55.966-19.844 55.5-20.774 54.519a50.005 50.005 0 0 0-0.31 0.724l-19.999 54.983-19.947 54.881-19.895 53.743-19.792 52.452-20.826 52.606a50.005 50.005 0 0 0-0.31 0.775l-19.947 52.865-19.947 51.832-19.792 51.47-20.774 50.436a50.005 50.005 0 0 0-0.207 0.465l-19.999 50.023-19.998 49.971-19.844 49.713-19.689 47.232-20.826 47.594a50.005 50.005 0 0 0-0.361 0.827l-19.947 47.8-19.844 46.664-19.844 45.63-19.637 44.184-20.722 43.408a50.005 50.005 0 0 0-0.362 0.827l-19.895 43.821-19.844 42.582-19.896 41.806-19.585 41.134-20.515 39.12a50.005 50.005 0 0 0-0.466 0.878l-19.895 39.791-19.637 38.292-19.482 36.07-20.774 36.536a50.005 50.005 0 0 0-0.207 0.413l-19.843 35.708-19.689 34.469-19.689 33.434-19.378 31.988-20.516 31.212a50.005 50.005 0 0 0-0.207 0.362l-19.792 30.696-19.585 29.352-19.534 28.319-19.172 26.82-20.36 26.2a50.005 50.005 0 0 0-0.724 0.93l-19.689 26.665-19.482 25.27-19.688 24.598-19.276 24.133-20.308 23.202a50.005 50.005 0 0 0-0.776 0.879l-19.998 24.03-19.637 23.616-19.637 22.531-20.929 23.926a50.005 50.005 0 0 0-0.104 0.103l-19.999 22.996-19.998 22.996-19.999 23.048-19.947 22.944-20.981 23.926a50.005 50.005 0 0 0-0.103 0.104l-19.999 22.996a50.005 50.005 0 0 0-0.672 0.827l-19.999 23.977-19.998 23.978a50.005 50.005 0 0 0-0.62 0.775l-19.327 24.185-20.258 23.151a50.005 50.005 0 0 0-1.446 1.705l-19.689 24.598-19.637 23.616a50.005 50.005 0 0 0-0.672 0.776l-19.999 25.011-19.275 24.133-20.309 23.151a50.005 50.005 0 0 0-1.395 1.705l-19.689 24.598-19.689 23.616-19.585 23.565-20.619 23.513a50.005 50.005 0 0 0-0.775 0.93l-19.689 23.616-19.637 22.583-19.637 22.582-19.224 21.136-20.567 21.549a50.005 50.005 0 0 0-0.051 0.052l-19.999 20.98-19.586 20.567-19.12 19.121-19.068 18.138-20.516 18.552-19.947 17.983-19.999 17.984-18.5 16.64-19.379 14.727a50.005 50.005 0 0 0-2.067 1.706l-18.862 16.019-18.758 14.056a50.005 50.005 0 0 0-1.24 0.982l-19.379 15.503-18.294 13.694-19.843 13.23a50.005 50.005 0 0 0-2.274 1.602l-19.327 14.521-18.604 13.022-19.275 12.557-19.585 12.661-20.516 12.713a50.005 50.005 0 0 0-0.93 0.62l-19.999 12.97-19.223 12.506-19.224 11.576-19.585 11.73-20.516 11.731a50.005 50.005 0 0 0-0.93 0.517l-19.172 11.523-19.172 10.542-19.999 11.007a50.005 50.005 0 0 0-0.723 0.414l-19.792 11.317-18.759 9.353a50.005 50.005 0 0 0-1.757 0.931l-19.999 11.007-19.12 10.49-19.12 9.56a50.005 50.005 0 0 0-0.879 0.465l-20.567 10.749-19.585 9.818-19.069 9.509-19.069 8.578a50.005 50.005 0 0 0-1.86 0.879l-18.655 9.353-19.689 8.423a50.005 50.005 0 0 0-0.775 0.362l-19.999 8.992-20.05 8.992-19.999 9.043-19.585 8.785-19.999 8.578-19.43 7.803-19.999 7.958-19.637 7.855-20.619 7.855a50.005 50.005 0 0 0-0.775 0.31l-58.963 23.616-18.965 6.615a50.005 50.005 0 0 0-1.292 0.465l-20.361 7.751-19.327 6.77-19.999 7.028-20.05 6.976-19.637 6.873-20.619 6.925a50.005 50.005 0 0 0-0.723 0.207l-19.999 7.028-19.999 6.976-19.999 7.028-19.637 6.873-20.67 6.873a50.005 50.005 0 0 0-0.672 0.258l-19.999 6.977-18.965 6.614-18.914 5.685a50.005 50.005 0 0 0-1.447 0.465l-20.98 6.976a50.005 50.005 0 0 0-0.724 0.258l-19.999 6.977-18.913 6.666-18.914 5.684a50.005 50.005 0 0 0-2.17 0.672l-18.604 6.511-19.585 5.581a50.005 50.005 0 0 0-0.672 0.207l-19.999 5.995a50.005 50.005 0 0 0-2.118 0.723l-18.966 6.615-18.913 5.684-19.689 5.891-20.67 5.891a50.005 50.005 0 0 0-0.621 0.207l-18.913 5.684-18.862 4.703a50.005 50.005 0 0 0-2.222 0.62l-18.914 5.633-18.603 4.651-20.722 4.961a50.005 50.005 0 0 0-0.517 0.155l-19.999 4.961-19.999 5.012-18.655 4.651-19.585 3.721a50.005 50.005 0 0 0-2.791 0.62l-18.81 4.703-18.862 3.772-19.999 4.031-19.792 3.927-20.774 3.979a50.005 50.005 0 0 0-0.413 0.103l-18.81 3.721-18.811 2.842a50.005 50.005 0 0 0-2.377 0.414l-18.81 3.772-18.81 2.791a50.005 50.005 0 0 0-1.964 0.361l-19.999 3.825-19.068 2.842-19.999 2.997a50.005 50.005 0 0 0-2.377 0.413l-18.81 3.773-18.604 2.79-20.826 2.946a50.005 50.005 0 0 0-0.361 0.052l-39.998 5.994-19.844 2.997-20.825 2.997a50.005 50.005 0 0 0-0.31 0.052l-19.999 2.997-19.999 2.998-20.05 2.997-19.999 2.997a50.005 50.005 0 0 0-1.9121 0.31l-20.05 3.824-17.777 2.687-18.81 1.861a50.005 50.005 0 0 0-2.4288 0.31l-19.999 2.997-19.844 2.997-20.826 2.946a50.005 50.005 0 0 0-0.31 0.051l-19.999 2.998-39.998 5.994-19.844 2.997-20.826 2.946a50.005 50.005 0 0 0-0.3617 0.052l-19.999 2.997-18.759 2.842-18.81 1.86a50.005 50.005 0 0 0-2.067 0.259l-21.032 2.997a50.005 50.005 0 0 0-0.31 0.052l-39.998 5.994-18.81 2.842-18.758 1.861a50.005 50.005 0 0 0-2.1188 0.258l-20.981 2.997a50.005 50.005 0 0 0-0.3617 0.052l-18.759 2.842-18.81 1.861a50.005 50.005 0 0 0-2.4288 0.31l-18.758 2.79-18.81 1.912a50.005 50.005 0 0 0-2.067 0.259l-19.947 2.842-18.965 1.86a50.005 50.005 0 0 0-2.4288 0.31l-18.81 2.842-18.758 1.861a50.005 50.005 0 0 0-2.1188 0.258l-19.947 2.842-18.914 1.912-19.999 2.016-19.999 1.963a50.005 50.005 0 0 0-2.4805 0.31l-18.655 2.791-19.637 1.912a50.005 50.005 0 0 0-0.2584 0l-19.999 2.015-19.999 1.964-18.758 1.912-18.758 0.93a50.005 50.005 0 0 0-2.2221 0.155l-21.032 2.016a50.005 50.005 0 0 0-0.2067 0l-19.999 2.015-18.759 1.86-18.758 0.931a50.005 50.005 0 0 0-2.4805 0.206l-19.895 1.964-19.792 1.912-18.862 0.93a50.005 50.005 0 0 0-2.4804 0.207l-18.759 1.86-18.758 0.93a50.005 50.005 0 0 0-2.2221 0.156l-19.896 1.912-18.862 0.93a50.005 50.005 0 0 0-2.4804 0.206l-18.759 1.861-18.758 0.93-19.999 1.033a50.005 50.005 0 0 0-2.2738 0.156l-19.895 1.86-18.862 0.982-19.999 0.982-19.999 0.981a50.005 50.005 0 0 0-2.4805 0.207l-18.707 1.86-19.689 0.931a50.005 50.005 0 0 0-0.1033 0l-19.999 1.033-19.999 0.982a50.005 50.005 0 0 0-2.4805 0.207l-18.758 1.86-18.707 0.93-20.929 0.982a50.005 50.005 0 0 0-0.1551 0l-19.999 1.034-19.999 0.982-19.999 0.981a50.005 50.005 0 0 0-2.2221 0.155l-19.895 1.912-18.862 0.931-19.999 1.033-19.999 0.982-19.947 0.982-20.929 1.033a50.005 50.005 0 0 0-0.1551 0l-39.998 1.964-19.999 1.034-19.947 0.981-20.929 0.982a50.005 50.005 0 0 0-0.1033 0l-19.999 1.034-39.998 1.964-19.947 1.033-20.929 0.982a50.005 50.005 0 0 0-0.155 0l-19.999 0.982-19.999 1.033-19.895 0.982-20.981 0.982a50.005 50.005 0 0 0-0.1033 0l-19.999 1.034-19.999 0.981-19.999 0.982-18.758 0.982h-19.74a50.005 50.005 0 0 0-2.4805 0.052l-19.999 0.982-20.05 0.981-19.999 1.034-19.895 0.982-20.981 0.982a50.005 50.005 0 0 0-0.1034 0l-18.758 0.982h-18.759a50.005 50.005 0 0 0-2.4805 0.103l-19.999 0.982-19.947 0.982-20.929 1.033a50.005 50.005 0 0 0-0.1033 0l-18.759 0.93h-18.758a50.005 50.005 0 0 0-2.4805 0.052l-40.928 2.015a50.005 50.005 0 0 0-0.1034 0l-18.758 0.931h-18.759a50.005 50.005 0 0 0-2.4804 0.051l-19.999 0.982-18.759 0.982h-19.74a50.005 50.005 0 0 0-2.4804 0.052l-19.999 0.981-18.759 0.931h-18.758a50.005 50.005 0 0 0-2.4805 0.051l-18.758 0.982h-19.74a50.005 50.005 0 0 0-2.5322 0.052l-18.758 0.93h-18.759a50.005 50.005 0 0 0-2.4804 0.052l-18.759 0.93h-18.758a50.005 50.005 0 0 0-2.3771 0.052l-19.792 0.981h-18.81a50.005 50.005 0 0 0-2.4805 0.052l-18.758 0.93h-18.759-20.981a50.005 50.005 0 0 0-2.5322 0.052l-18.758 0.93h-18.707a50.005 50.005 0 0 0-2.5321 0.103l-18.759 0.931h-18.707-21.032a50.005 50.005 0 0 0-2.4805 0.051l-18.759 0.93h-18.758a50.005 50.005 0 0 0-2.4805 0.052l-18.758 0.93h-18.759-20.981a50.005 50.005 0 0 0-2.5321 0.104l-18.759 0.93h-18.707a50.005 50.005 0 0 0-2.5321 0.052l-18.758 0.93h-18.707a50.005 50.005 0 0 0-2.3771 0.051l-19.844 0.982h-18.81a50.005 50.005 0 0 0-2.4805 0.052l-18.758 0.93h-18.759a50.005 50.005 0 0 0-2.3771 0.052l-19.792 0.93h-18.81a50.005 50.005 0 0 0-2.5321 0.052l-18.707 0.981h-18.758a50.005 50.005 0 0 0-2.5322 0.052l-18.758 0.93h-19.74a50.005 50.005 0 0 0-2.4805 0.052l-18.758 0.93h-18.759a50.005 50.005 0 0 0-2.4804 0.052l-18.759 0.982h-18.758-20.981a50.005 50.005 0 0 0-2.4804 0.051l-18.759 0.931h-18.758a50.005 50.005 0 0 0-2.5322 0.051l-18.707 0.93h-19.792-19.999a50.005 50.005 0 0 0-2.4805 0.052l-18.758 0.982h-18.758-19.999a50.005 50.005 0 0 0-2.3771 0.052l-19.792 0.93h-18.81-19.999a50.005 50.005 0 0 0-2.4805 0.051l-18.758 0.931h-18.759-21.032-19.999a50.005 50.005 0 0 0-2.4804 0.051l-18.759 0.982h-18.758-19.999a50.005 50.005 0 0 0-2.3771 0.052l-19.792 0.93h-18.81-19.999a50.005 50.005 0 0 0-2.4805 0.052l-18.758 0.93h-19.74a50.005 50.005 0 0 0-2.5322 0.103l-18.758 0.93h-18.758-19.999a50.005 50.005 0 0 0-2.4805 0.052l-18.758 0.93h-19.74-19.999a50.005 50.005 0 0 0-2.4805 0.052l-18.758 0.93h-18.759-19.999a50.005 50.005 0 0 0-2.3771 0.103l-19.792 0.931h-18.81-19.999a50.005 50.005 0 0 0-2.5322 0.051l-18.758 0.93h-18.759-20.981-19.999-19.999-19.999-20.981-19.999-19.999-19.999-19.999-21.032-19.999-19.999-19.999-18.81l-19.792-0.93a50.005 50.005 0 0 0-2.3772-0.051h-19.999-19.999-19.999-19.999-21.032-18.758l-18.707-0.931a50.005 50.005 0 0 0-2.5321-0.103h-19.999-20.981-19.999-19.999-19.999a50.005 50.005 0 0 0-2.5321 0.103l-18.707 0.931h-19.792-19.999-19.999-19.999-19.999a50.005 50.005 0 0 0-2.3771 0.051l-19.792 0.93h-18.81-19.999-19.999-19.999a50.005 50.005 0 0 0-2.3772 0.052l-19.844 0.982h-18.81-19.999-19.999-20.981a50.005 50.005 0 0 0-2.4805 0.052l-18.758 0.93h-18.759-19.999-19.999-21.032-19.999a50.005 50.005 0 0 0-2.4805 0.052l-18.758 0.93h-18.759-19.999-20.981-19.999-19.999-19.999-19.999-20.981-19.999-20.05a50.005 50.005 0 0 0-2.4805 0.051l-18.758 0.982h-19.74-19.999-19.999-19.999-19.999-20.981-19.999-19.999a50.005 50.005 0 0 0-2.5321 0.052l-18.759 0.93h-18.707-21.032-19.999-19.999-19.999-19.999a50.005 50.005 0 0 0-2.3771 0.052l-19.792 0.93h-18.81-19.999-19.999-21.032-19.999a50.005 50.005 0 0 0-2.4805 0.052l-18.759 0.981h-18.758-19.999-20.981-19.999-19.999a50.005 50.005 0 0 0-2.5321 0.052l-18.707 0.93h-18.758-21.032-19.999-19.999-19.999a50.005 50.005 0 0 0-2.3771 0.052l-19.792 0.93h-18.81-19.999-19.999-19.999-21.032-19.999a50.005 50.005 0 0 0-2.4805 0.104l-18.758 0.93h-18.759-19.999-20.981-19.999-19.999-19.999-19.999-21.032-19.999-19.999-19.999-20.981-19.999-19.999-19.999-19.999-20.981-19.999-20.05-19.999-19.999-20.981-19.999-19.999-19.999-19.999-20.981-19.999-19.999-19.999-21.032-19.999-19.999-19.999-19.999-20.981-19.999-19.999-19.999-19.999-21.032-19.999-19.999-19.999-19.999-20.981-19.999-19.999-19.999-21.032-19.999-19.999-19.999-19.999-20.981-19.999-19.999-19.999-19.999-21.032-19.999-19.999-19.999-19.999-20.981-19.999-19.999-19.999-21.032-19.999-19.999-19.999-19.999-20.981-19.999-19.999-19.999-19.999-20.981-20.05-19.999-19.999-19.999-20.981-19.999-19.999-19.999-20.981-19.999-19.999-19.999-20.05-20.981-19.999-19.999-19.999-19.999-20.981-19.999-19.999-19.999-19.792a50 50 0 0 0-0.2067 0 50 50 0 0 0-50.023 50.022 50 50 0 0 0 50.023 49.972 50 50 0 0 0 0.7235 0h19.275 19.999 19.999 19.999 20.981 19.999 19.999 19.999 19.999 20.981 20.05 19.999 19.999 19.999 20.981 19.999 19.999 19.999 20.981 19.999 19.999 19.999 20.05 20.981 19.999 19.999 19.999 19.999 20.981 19.999 19.999 19.999 19.999 21.032 19.999 19.999 19.999 20.981 19.999 19.999 19.999 19.999 21.032 19.999 19.999 19.999 19.999 20.981 19.999 19.999 19.999 19.999 21.032 19.999 19.999 19.999 20.981 19.999 19.999 19.999 19.999 21.032 19.999 19.999 19.999 19.999 20.981 19.999 19.999 19.999 19.999 21.032 19.999 19.999 19.999 20.981 19.999 19.999 19.999 19.999 20.981 19.999 19.999 20.05 19.999 20.981 19.999 19.999 19.999 19.999 20.981 19.999 19.999 19.999 21.032 19.999 19.999 19.999 19.999 20.981 19.999 19.999a50.005 50.005 0 0 0 2.5321-0.052l18.759-0.982h18.707 21.032 19.999 19.999 19.999 19.999a50.005 50.005 0 0 0 2.3771-0.052l19.792-0.93h18.81 19.999 19.999 21.032 19.999a50.005 50.005 0 0 0 2.4805-0.051l18.759-0.931h18.758 19.999 20.981 19.999 19.999a50.005 50.005 0 0 0 2.4804-0.051l18.759-0.982h18.758 21.032 19.999 19.999 19.999a50.005 50.005 0 0 0 2.3771-0.052l19.792-0.93h18.81 19.999 19.999 19.999 21.032 19.999a50.005 50.005 0 0 0 2.4805-0.052l18.758-0.93h18.759 19.999 20.981 19.999 19.999 19.999 19.999 20.981a50.005 50.005 0 0 0 2.5322-0.052l18.758-0.981h18.759 19.999 20.981 19.999 19.999 19.999 19.999 20.981 19.999 19.999a50.005 50.005 0 0 0 2.5321-0.052l18.759-0.93h18.707 21.032 19.999 19.999 19.999a50.005 50.005 0 0 0 2.4805-0.052l18.758-0.93h19.74 19.999 19.999 19.999a50.005 50.005 0 0 0 2.3772-0.103l19.844-0.931h18.81 19.999 19.999 19.999a50.005 50.005 0 0 0 2.3771-0.051l19.792-0.93h18.81 19.999 19.999 19.999 21.032a50.005 50.005 0 0 0 2.4805-0.052l18.758-0.93h18.759 19.999 19.999 20.981 18.758l18.759 0.93a50.005 50.005 0 0 0 2.4804 0.052h19.999 21.032 19.999 19.999 19.999 18.81l19.792 0.93a50.005 50.005 0 0 0 2.3771 0.051h19.999 19.999 19.999 19.999 21.032 19.999 19.999 19.999 19.999 20.981 19.999 19.999 19.999 20.981 20.05a50.005 50.005 0 0 0 2.4804-0.051l18.759-0.93h18.758 19.999a50.005 50.005 0 0 0 2.3771-0.052l19.792-0.93h18.81 19.999a50.005 50.005 0 0 0 2.4805-0.104l18.758-0.93h18.759 20.981a50.005 50.005 0 0 0 2.5321-0.052l18.759-0.93h18.707 19.999a50.005 50.005 0 0 0 2.5322-0.051l18.758-0.931h19.74a50.005 50.005 0 0 0 2.4805-0.103l18.758-0.93h18.759 19.999a50.005 50.005 0 0 0 2.3771-0.052l19.792-0.93h18.81 19.999a50.005 50.005 0 0 0 2.5321-0.052l18.758-0.981h18.707 21.032 19.999a50.005 50.005 0 0 0 2.4805-0.052l18.758-0.93h18.759 19.999a50.005 50.005 0 0 0 2.3772-0.052l19.792-0.93h18.81 19.999a50.005 50.005 0 0 0 2.5322-0.052l18.758-0.982h18.707 21.032a50.005 50.005 0 0 0 2.4805-0.051l18.758-0.931h18.759a50.005 50.005 0 0 0 2.4804-0.051l18.759-0.93h19.74 19.999a50.005 50.005 0 0 0 2.5322-0.052l18.707-0.982h18.758a50.005 50.005 0 0 0 2.5322-0.052l18.707-0.93h19.792a50.005 50.005 0 0 0 2.4805-0.051l18.758-0.931h18.759a50.005 50.005 0 0 0 2.4804-0.103l18.759-0.93h18.758a50.005 50.005 0 0 0 2.3771-0.052l19.792-0.93h18.81a50.005 50.005 0 0 0 2.4805-0.052l18.758-0.93h18.759a50.005 50.005 0 0 0 2.3771-0.103l19.844-0.93h18.81a50.005 50.005 0 0 0 2.4804-0.052l18.759-0.93h18.758a50.005 50.005 0 0 0 2.4805-0.052l18.758-0.93h19.74 19.999a50.005 50.005 0 0 0 2.4805-0.103l18.758-0.931h18.759a50.005 50.005 0 0 0 2.4804-0.051l18.759-0.93h19.792 19.999a50.005 50.005 0 0 0 2.4805-0.052l18.759-0.982h18.758a50.005 50.005 0 0 0 2.4805-0.052l18.758-0.93h19.74 19.999a50.005 50.005 0 0 0 2.4805-0.052l18.758-0.93h18.759a50.005 50.005 0 0 0 2.3771-0.051l19.792-0.982h18.81a50.005 50.005 0 0 0 2.5321-0.052l18.759-0.93h18.707a50.005 50.005 0 0 0 2.5322-0.052l18.758-0.93h19.74a50.005 50.005 0 0 0 2.4805-0.052l18.758-0.981h18.759a50.005 50.005 0 0 0 2.4804-0.052l19.999-0.982 18.759-0.93h19.74a50.005 50.005 0 0 0 2.5321-0.052l19.999-1.033 18.758-0.931h18.707a50.005 50.005 0 0 0 2.5321-0.051l19.947-0.982 20.929-1.034a50.005 50.005 0 0 0 0.1034 0l18.758-0.93h18.758a50.005 50.005 0 0 0 2.4805-0.051l19.947-1.034 20.929-0.982a50.005 50.005 0 0 0 0.155 0l19.999-0.982 18.758-0.93h18.707a50.005 50.005 0 0 0 2.5321-0.052l19.947-1.033 20.929-0.982a50.005 50.005 0 0 0 0.1034 0l19.999-0.982 19.999-1.033 19.999-0.982 18.758-0.93h19.74a50.005 50.005 0 0 0 2.5322-0.052l19.999-1.034 39.998-1.963 19.895-1.034 20.981-0.982a50.005 50.005 0 0 0 0.1033 0l19.999-0.981 19.999-1.034 19.947-0.982 20.929-0.982a50.005 50.005 0 0 0 0.1034 0l19.999-1.033 19.999-0.982 20.05-0.982 19.895-1.033 20.981-0.982a50.005 50.005 0 0 0 0.1033 0l19.999-0.982 19.999-1.034 19.999-0.982 19.947-0.981 20.929-1.034a50.005 50.005 0 0 0 0.1034 0l39.998-1.964 19.999-1.033 19.999-0.982a50.005 50.005 0 0 0 2.2738-0.155l19.895-1.912 18.862-0.93 19.999-0.982 19.947-1.034 20.929-0.982a50.005 50.005 0 0 0 0.1034 0l19.999-0.981a50.005 50.005 0 0 0 2.4804-0.207l18.759-1.86 18.758-0.931 19.947-1.033 20.929-0.982a50.005 50.005 0 0 0 2.6355-0.207l18.758-1.86 18.759-0.93 19.999-1.034 19.999-0.982a50.005 50.005 0 0 0 2.2221-0.155l19.895-1.912 18.862-0.93 19.999-0.982a50.005 50.005 0 0 0 2.4805-0.206l18.758-1.861 18.759-0.93a50.005 50.005 0 0 0 2.2737-0.155l19.844-1.912 18.914-0.93a50.005 50.005 0 0 0 2.4804-0.207l18.759-1.86 18.758-0.93a50.005 50.005 0 0 0 2.2221-0.207l21.032-1.964a50.005 50.005 0 0 0 0.2067-0.051l18.759-1.861 18.758-0.93a50.005 50.005 0 0 0 2.4805-0.207l19.999-1.963 19.895-2.016 19.74-1.86 18.914-0.982a50.005 50.005 0 0 0 2.4805-0.155l19.999-2.015 19.999-2.016 19.844-1.963 20.929-2.016a50.005 50.005 0 0 0 2.6355-0.31l18.81-2.79 18.758-1.912 19.999-1.964 19.999-2.016a50.005 50.005 0 0 0 2.1187-0.258l19.947-2.842 18.965-1.912a50.005 50.005 0 0 0 2.4288-0.31l18.758-2.791 18.81-1.912a50.005 50.005 0 0 0 2.067-0.258l19.947-2.842 18.965-1.861a50.005 50.005 0 0 0 2.4288-0.31l18.81-2.842 18.758-1.86a50.005 50.005 0 0 0 2.4288-0.31l19.844-2.998 19.792-2.79 18.914-1.912a50.005 50.005 0 0 0 2.4805-0.31l19.999-2.997 19.999-2.998 19.792-2.997 19.792-2.79 18.965-1.912a50.005 50.005 0 0 0 2.4288-0.311l19.999-2.997 19.844-2.945 20.826-2.998a50.005 50.005 0 0 0 0.3617-0.051l19.999-2.997 19.999-2.998 19.999-2.997 19.792-2.997 20.826-2.946a50.005 50.005 0 0 0 0.3618-0.051l19.999-2.998 18.81-2.842 18.758-1.86a50.005 50.005 0 0 0 2.4288-0.31l19.999-2.998a50.005 50.005 0 0 0 1.9637-0.31l19.999-3.824 19.069-2.893 19.999-2.998 19.999-2.997 19.792-2.946 20.826-2.997a50.005 50.005 0 0 0 0.362-0.051l19.998-2.998 19.999-2.997 19.844-2.945 20.825-2.998a50.005 50.005 0 0 0 0.31-0.051l19.999-2.998a50.005 50.005 0 0 0 2.429-0.413l18.81-3.772 18.811-2.791 19.998-2.997a50.005 50.005 0 0 0 1.912-0.362l20.051-3.824 19.017-2.842a50.005 50.005 0 0 0 2.377-0.414l18.81-3.772 18.81-2.79a50.005 50.005 0 0 0 2.377-0.414l19.792-3.979 20.774-3.979a50.005 50.005 0 0 0 0.465-0.052l19.999-4.03 19.999-3.98 19.999-4.03a50.005 50.005 0 0 0 2.325-0.517l18.604-4.651 19.585-3.721a50.005 50.005 0 0 0 2.791-0.62l19.998-5.012 19.999-4.961 19.741-4.961 20.722-4.91a50.005 50.005 0 0 0 0.517-0.155l19.998-5.012a50.005 50.005 0 0 0 2.274-0.569l18.862-5.684 18.914-4.703a50.005 50.005 0 0 0 2.222-0.62l19.688-5.942 20.671-5.892a50.005 50.005 0 0 0 0.62-0.206l19.999-5.995 19.999-5.994a50.005 50.005 0 0 0 2.17-0.672l18.914-6.666 18.603-5.581 20.722-5.891a50.005 50.005 0 0 0 2.739-0.879l18.966-6.615 18.913-5.684a50.005 50.005 0 0 0 2.119-0.723l19.999-6.977 19.688-6.873 19.896-6.666 19.275-5.788a50.005 50.005 0 0 0 2.171-0.672l19.998-6.976 19.637-6.924 20.671-6.873a50.005 50.005 0 0 0 0.672-0.207l19.998-7.028 19.999-6.976 19.999-7.028 19.689-6.873 20.619-6.873a50.005 50.005 0 0 0 0.723-0.259l19.999-6.976 19.999-7.028 19.998-6.976 19.999-7.028a50.005 50.005 0 0 0 1.292-0.465l20.361-7.752 19.327-6.77a50.005 50.005 0 0 0 2.067-0.775l19.998-7.958 19.999-8.01 19.637-7.855 20.568-7.854a50.005 50.005 0 0 0 0.775-0.31l19.998-8.01 19.999-8.01 19.999-7.958a50.005 50.005 0 0 0 1.137-0.465l21.032-9.044a50.005 50.005 0 0 0 0.827-0.361l59.996-26.976 19.586-8.836 20.567-8.785a50.005 50.005 0 0 0 2.687-1.24l19.069-9.561 19.068-8.578a50.005 50.005 0 0 0 1.861-0.878l19.998-9.974 19.999-10.025a50.005 50.005 0 0 0 0.827-0.414l20.567-10.8 19.586-9.767a50.005 50.005 0 0 0 1.757-0.93l19.998-11.007 19.121-10.542 19.12-9.56a50.005 50.005 0 0 0 2.48-1.292l20.619-11.782 19.637-10.801 19.999-11.007a50.005 50.005 0 0 0 1.654-0.93l19.534-11.731 20.515-11.73a50.005 50.005 0 0 0 0.93-0.569l19.999-11.988 19.999-11.989a50.005 50.005 0 0 0 1.55-0.982l19.999-12.971 19.534-12.712 20.515-12.713a50.005 50.005 0 0 0 0.93-0.568l19.999-13.023 19.999-12.971a50.005 50.005 0 0 0 1.447-0.981l19.999-14.005a50.005 50.005 0 0 0 1.291-1.033l18.914-14.16 19.844-13.229a50.005 50.005 0 0 0 2.274-1.602l19.998-14.986a50.005 50.005 0 0 0 1.241-0.982l19.378-15.503 19.379-14.521a50.005 50.005 0 0 0 2.377-1.912l18.965-16.123 19.947-15.193a50.005 50.005 0 0 0 3.153-2.583l19.998-18.036 39.998-35.966a50.005 50.005 0 0 0 0.103-0.104l20.981-19.017a50.005 50.005 0 0 0 0.93-0.826l19.999-18.966a50.005 50.005 0 0 0 0.878-0.93l19.999-19.999a50.005 50.005 0 0 0 0.879-0.878l19.998-20.981 19.999-20.98 20.981-21.963a50.005 50.005 0 0 0 0.827-0.93l19.998-21.963a50.005 50.005 0 0 0 0.724-0.826l39.998-45.992a50.005 50.005 0 0 0 0.671-0.827l19.637-23.513 20.568-23.564a50.005 50.005 0 0 0 0.775-0.931l19.998-23.978 19.999-24.029a50.005 50.005 0 0 0 0.672-0.775l19.275-24.133 20.309-23.151a50.005 50.005 0 0 0 1.395-1.705l19.999-25.012 19.689-24.598 19.689-23.616a50.005 50.005 0 0 0 0.62-0.775l19.327-24.133 20.257-23.151a50.005 50.005 0 0 0 1.447-1.705l19.689-24.598 19.637-23.616 19.688-23.617 19.586-22.531 20.98-23.926a50.005 50.005 0 0 0 0.104-0.155l19.999-22.996 19.998-22.996 19.999-22.996 19.947-22.944 20.929-23.926a50.005 50.005 0 0 0 0.103-0.104l19.999-22.996a50.005 50.005 0 0 0 0.672-0.827l19.999-23.977 19.637-23.565 20.619-23.513a50.005 50.005 0 0 0 1.395-1.705l19.999-25.011 19.999-25.012a50.005 50.005 0 0 0 0.568-0.723l19.999-25.993a50.005 50.005 0 0 0 0.568-0.724l19.637-26.562 20.671-26.51a50.005 50.005 0 0 0 1.188-1.653l19.999-28.009a50.005 50.005 0 0 0 0.465-0.672l19.999-28.99a50.005 50.005 0 0 0 0.465-0.672l19.999-29.972a50.005 50.005 0 0 0 0.413-0.62l19.896-30.851 20.877-31.833a50.005 50.005 0 0 0 0.982-1.499l19.999-33.021a50.005 50.005 0 0 0 0.31-0.568l19.999-34.003a50.005 50.005 0 0 0 0.361-0.517l19.999-35.037a50.005 50.005 0 0 0 0.258-0.516l19.896-35.812 20.877-36.794a50.005 50.005 0 0 0 0.517-0.878l19.999-37.001a50.005 50.005 0 0 0 0.516-0.981l19.999-39.016a50.005 50.005 0 0 0 0.207-0.414l19.792-39.584 20.774-39.532a50.005 50.005 0 0 0 0.878-1.757l39.998-84.026a50.005 50.005 0 0 0 0.207-0.414l19.998-42.994a50.005 50.005 0 0 0 0.156-0.362l19.792-43.615 20.825-43.563a50.005 50.005 0 0 0 0.569-1.24l19.998-45.011a50.005 50.005 0 0 0 0.155-0.361l19.999-45.992a50.005 50.005 0 0 0 0.155-0.362l19.999-46.974a50.005 50.005 0 0 0 0.155-0.362l19.844-47.594 20.825-47.594a50.005 50.005 0 0 0 0.31-0.827l19.999-48.007a50.005 50.005 0 0 0 0.31-0.62l19.999-50.023 19.999-49.971 19.895-49.764 20.878-50.798a50.005 50.005 0 0 0 0.465-1.085l19.998-51.987 19.999-51.986a50.005 50.005 0 0 0 0.104-0.311l19.843-52.606 20.878-52.658a50.005 50.005 0 0 0 0.258-0.724l19.999-53.02a50.005 50.005 0 0 0 0.155-0.31l19.999-54.002a50.005 50.005 0 0 0 0.103-0.258l19.999-54.984 19.843-54.622 20.878-54.622a50.005 50.005 0 0 0 0.361-1.033l19.999-56.018 19.999-55.965 19.999-56.018a50.005 50.005 0 0 0 0.103-0.258l19.844-56.637 20.877-56.638a50.005 50.005 0 0 0 0.259-0.723l19.998-56.999a50.005 50.005 0 0 0 0.104-0.259l19.998-58.032 19.999-57.981 19.896-57.774 20.929-58.757a50.005 50.005 0 0 0 0.31-0.93l19.998-60.048 19.999-59.996a50.005 50.005 0 0 0 0.155-0.465l19.896-61.65 20.877-61.65a50.005 50.005 0 0 0 0.413-1.137l19.999-63.975a50.005 50.005 0 0 0 0.052-0.207l19.999-65.009a50.005 50.005 0 0 0 0.051-0.207l19.999-65.991a50.005 50.005 0 0 0 0.103-0.413l19.948-67.748 20.929-68.781a50.005 50.005 0 0 0 0.31-0.982l19.998-71.003a50.005 50.005 0 0 0 0.104-0.362l19.998-73.019a50.005 50.005 0 0 0 0.052-0.31l19.999-74.983a50.005 50.005 0 0 0 0.103-0.31l19.947-76.894 20.981-78.858a50.005 50.005 0 0 0 0.207-0.827l19.999-81.029a50.005 50.005 0 0 0 0.103-0.258l19.999-82.993a50.005 50.005 0 0 0 0.103-0.516l19.999-87.023a50.005 50.005 0 0 0 0.051-0.104l19.948-87.901 20.98-90.951a50.005 50.005 0 0 0 0.155-0.723l19.999-93.018a50.005 50.005 0 0 0 0.052-0.103l19.998-94a50.005 50.005 0 0 0 0.052-0.31l19.947-96.841 20.981-98.857a50.005 50.005 0 0 0 0.103-0.569l20.051-99.994a50.005 50.005 0 0 0 0-0.207l19.998-102.01a50.005 50.005 0 0 0 0.052-0.155l19.999-104.02a50.005 50.005 0 0 0 0-0.052l19.999-104.85 20.929-105.83a50.005 50.005 0 0 0 0.155-0.568l19.998-108 19.999-108a50.005 50.005 0 0 0 0-0.103l19.999-108.99a50.005 50.005 0 0 0 0.052-0.155l19.947-110.79 20.98-110.79a50.005 50.005 0 0 0 0.052-0.414l19.999-111a50.005 50.005 0 0 0 0-0.103l19.999-111.98a50.005 50.005 0 0 0 0.051-0.052l19.999-113.02 19.947-112.81 20.929-112.76a50.005 50.005 0 0 0 0.104-0.516l19.998-114a50.005 50.005 0 0 0 0-0.051l19.999-115.03 19.999-114.82 20.98-116.89a50.005 50.005 0 0 0 0.104-0.517l19.999-119.01 19.998-119.01a50.005 50.005 0 0 0 0.052-0.206l19.999-122.01a50.005 50.005 0 0 0 0-0.052l19.947-122.89 20.981-124.85a50.005 50.005 0 0 0 0.103-0.568l19.999-128a50.005 50.005 0 0 0 0-0.052l19.999-128.98a50.005 50.005 0 0 0 0.051-0.258l19.999-132.96a50.005 50.005 0 0 0 0-0.051l19.999-133.95 20.98-137.92a50.005 50.005 0 0 0 0.052-0.465l19.999-139.99a50.005 50.005 0 0 0 0.052-0.258l19.998-145a50.005 50.005 0 0 0 0-0.052l19.999-146.97 20.981-150.9a50.005 50.005 0 0 0 0.103-0.517l19.999-154.98a50.005 50.005 0 0 0 0-0.155l19.999-159.01a50.005 50.005 0 0 0 0-0.103l19.998-162.01a50.005 50.005 0 0 0 0.052-0.2067l19.999-166.97a50.005 50.005 0 0 0 0-0.2067l19.999-171.98a50.005 50.005 0 0 0 0-0.1034l19.998-176.01a50.005 50.005 0 0 0 0.052-0.1551l19.999-181.02a50.005 50.005 0 0 0 0-0.155l19.999-187.02a50.005 50.005 0 0 0 0-0.1034l19.998-190.94 21.033-196.94a50.005 50.005 0 0 0 0-0.4134l19.999-202.98a50.005 50.005 0 0 0 0.051-0.1551l19.999-208a50.005 50.005 0 0 0 0-0.155l19.999-214.97a50.005 50.005 0 0 0 0-0.1034l19.999-219.99 20.98-226.96a50.005 50.005 0 0 0 0.052-0.3101l19.999-234.04a50.005 50.005 0 0 0 0-0.1034l19.998-241.02a50.005 50.005 0 0 0 0-0.1033l19.999-246.96 20.981-254.97a50.005 50.005 0 0 0 0.051-0.2584l19.999-262a50.005 50.005 0 0 0 0-0.1034l19.999-270.01a50.005 50.005 0 0 0 0-0.1034l1.705-23.668 7.804-106.76 0.051-0.9819a50 50 0 0 0-46.25-53.485 50 50 0 0 0-6.563-0.0516z" fill="url(#d)" stop-color="#000000" stroke-dasharray="1, 199" stroke-linecap="round"/><text class="SVGTextShape" transform="rotate(.1)" x="-277.76071" y="-100.06317"><tspan class="TextParagraph"><tspan class="TextPosition" x="1384.2393" y="21311.938"><tspan fill="#e6e6e6" font-family="FreeSans, sans-serif" font-size="706px" font-weight="400" style="white-space:pre">2⁰</tspan></tspan></tspan></text><text class="SVGTextShape" transform="rotate(.1)" x="-278.00183" y="-105.22105"><tspan class="TextParagraph"><tspan class="TextPosition" x="3808.998" y="21306.779"><tspan fill="#e6e6e6" font-family="FreeSans, sans-serif" font-size="706px" font-weight="400" style="white-space:pre">2⁶</tspan></tspan></tspan></text><text class="SVGTextShape" transform="rotate(.1)" x="-315.33438" y="-195.05174"><tspan class="TextParagraph"><tspan class="TextPosition" x="6028.6655" y="21384.949"><tspan fill="#e6e6e6" font-family="FreeSans, sans-serif" font-size="706px" font-weight="400" style="white-space:pre">2¹²</tspan></tspan></tspan></text><text class="SVGTextShape" transform="rotate(.1)" x="-314.00607" y="-201.00554"><tspan class="TextParagraph"><tspan class="TextPosition" x="8454.9941" y="21378.994"><tspan fill="#e6e6e6" font-family="FreeSans, sans-serif" font-size="706px" font-weight="400" style="white-space:pre">2¹⁸</tspan></tspan></tspan></text><text class="SVGTextShape" transform="rotate(.1)" x="-314.70963" y="-205.53465"><tspan class="TextParagraph"><tspan class="TextPosition" x="10880.29" y="21374.465"><tspan fill="#e6e6e6" font-family="FreeSans, sans-serif" font-size="706px" font-weight="400" style="white-space:pre">2²⁴</tspan></tspan></tspan></text><text class="SVGTextShape" transform="rotate(.1)" x="-313.6727" y="-208.29721"><tspan class="TextParagraph"><tspan class="TextPosition" x="13306.327" y="21371.703"><tspan fill="#e6e6e6" font-family="FreeSans, sans-serif" font-size="706px" font-weight="400" style="white-space:pre">2³⁰</tspan></tspan></tspan></text><text class="SVGTextShape" transform="rotate(.1)" x="-313.91385" y="-213.45334"><tspan class="TextParagraph"><tspan class="TextPosition" x="15730.086" y="21366.547"><tspan fill="#e6e6e6" font-family="FreeSans, sans-serif" font-size="706px" font-weight="400" style="white-space:pre">2³⁶</tspan></tspan></tspan></text><text class="SVGTextShape" transform="rotate(.1)" x="-315.35284" y="-216.21561"><tspan class="TextParagraph"><tspan class="TextPosition" x="18154.646" y="21363.785"><tspan fill="#e6e6e6" font-family="FreeSans, sans-serif" font-size="706px" font-weight="400" style="white-space:pre">2⁴²</tspan></tspan></tspan></text><text class="SVGTextShape" transform="rotate(.1)" x="-314.02457" y="-222.16939"><tspan class="TextParagraph"><tspan class="TextPosition" x="20580.975" y="21357.83"><tspan fill="#e6e6e6" font-family="FreeSans, sans-serif" font-size="706px" font-weight="400" style="white-space:pre">2⁴⁸</tspan></tspan></tspan></text><text class="SVGTextShape" transform="rotate(.1)" x="-314.72812" y="-226.69676"><tspan class="TextParagraph"><tspan class="TextPosition" x="23005.271" y="21353.303"><tspan fill="#e6e6e6" font-family="FreeSans, sans-serif" font-size="706px" font-weight="400" style="white-space:pre">2⁵⁴</tspan></tspan></tspan></text><text class="SVGTextShape" transform="rotate(.1)" x="-313.69119" y="-229.46106"><tspan class="TextParagraph"><tspan class="TextPosition" x="25432.309" y="21350.539"><tspan fill="#e6e6e6" font-family="FreeSans, sans-serif" font-size="706px" font-weight="400" style="white-space:pre">2⁶⁰</tspan></tspan></tspan></text><text class="SVGTextShape" transform="rotate(.1)" x="879.29492" y="-233.12955"><tspan class="TextParagraph"><tspan class="TextPosition" x="27837.295" y="21346.871"><tspan fill="#e6e6e6" font-family="FreeSans, sans-serif" font-size="706px" font-weight="400" style="white-space:pre">2⁶⁴</tspan></tspan></tspan></text><text class="SVGTextShape"><tspan class="TextParagraph"><tspan class="TextPosition" x="1414" y="20473"><tspan fill="rgb(230,230,230)" font-family="FreeSans, sans-serif" font-size="564px" font-weight="400" style="white-space:pre">0</tspan></tspan></tspan></text><text class="SVGTextShape"><tspan class="TextParagraph"><tspan class="TextPosition" x="1096" y="18607"><tspan fill="rgb(230,230,230)" font-family="FreeSans, sans-serif" font-size="564px" font-weight="400" style="white-space:pre">10</tspan></tspan></tspan></text><text class="SVGTextShape"><tspan class="TextParagraph"><tspan class="TextPosition" x="1096" y="16742"><tspan fill="rgb(230,230,230)" font-family="FreeSans, sans-serif" font-size="564px" font-weight="400" style="white-space:pre">20</tspan></tspan></tspan></text><text class="SVGTextShape"><tspan class="TextParagraph"><tspan class="TextPosition" x="1096" y="14876"><tspan fill="rgb(230,230,230)" font-family="FreeSans, sans-serif" font-size="564px" font-weight="400" style="white-space:pre">30</tspan></tspan></tspan></text><text class="SVGTextShape"><tspan class="TextParagraph"><tspan class="TextPosition" x="1096" y="13011"><tspan fill="rgb(230,230,230)" font-family="FreeSans, sans-serif" font-size="564px" font-weight="400" style="white-space:pre">40</tspan></tspan></tspan></text><text class="SVGTextShape"><tspan class="TextParagraph"><tspan class="TextPosition" x="1096" y="11147"><tspan fill="rgb(230,230,230)" font-family="FreeSans, sans-serif" font-size="564px" font-weight="400" style="white-space:pre">50</tspan></tspan></tspan></text><text class="SVGTextShape"><tspan class="TextParagraph"><tspan class="TextPosition" x="1096" y="9281"><tspan fill="rgb(230,230,230)" font-family="FreeSans, sans-serif" font-size="564px" font-weight="400" style="white-space:pre">60</tspan></tspan></tspan></text><text class="SVGTextShape"><tspan class="TextParagraph"><tspan class="TextPosition" x="1096" y="7416"><tspan fill="rgb(230,230,230)" font-family="FreeSans, sans-serif" font-size="564px" font-weight="400" style="white-space:pre">70</tspan></tspan></tspan></text><text class="SVGTextShape"><tspan class="TextParagraph"><tspan class="TextPosition" x="1096" y="5551"><tspan fill="rgb(230,230,230)" font-family="FreeSans, sans-serif" font-size="564px" font-weight="400" style="white-space:pre">80</tspan></tspan></tspan></text><text class="SVGTextShape"><tspan class="TextParagraph"><tspan class="TextPosition" x="1096" y="3685"><tspan fill="rgb(230,230,230)" font-family="FreeSans, sans-serif" font-size="564px" font-weight="400" style="white-space:pre">90</tspan></tspan></tspan></text><text class="SVGTextShape" x="78.672066" y="72.760414"><tspan class="TextParagraph"><tspan class="TextPosition" x="1049.6721" y="1774.7604"><tspan fill="#e6e6e6" font-family="FreeSans, sans-serif" font-size="847px" font-weight="600" style="white-space:pre">Prime decomposition</tspan></tspan></tspan></text><text class="SVGTextShape" x="8653.9258" y="-97.556908"><tspan class="TextParagraph"><tspan class="TextPosition" x="24860.926" y="1757.4431"><tspan fill="#e6e6e6" font-family="FreeSans, sans-serif" font-size="564px" font-weight="400" style="white-space:pre">Pollard's rho</tspan></tspan></tspan></text><text class="SVGTextShape" x="-6521.979" y="-97.556976"><tspan class="TextParagraph"><tspan class="TextPosition" x="14064.021" y="1757.4431"><tspan fill="#e6e6e6" font-family="FreeSans, sans-serif" font-size="564px" font-weight="400" style="white-space:pre">Trial division</tspan></tspan></tspan></text><text class="SVGTextShape" x="30.912186" y="-6.6145849"><tspan class="TextParagraph"><tspan class="TextPosition" x="1077.912" y="2654.3853"><tspan fill="#808080" font-family="FreeSans, sans-serif" font-size="494px" font-weight="400" style="white-space:pre">Microseconds</tspan></tspan></tspan></text><rect x="13281" y="1308.4" width="500" height="500" fill="url(#b)"/><rect x="24106" y="1308.4" width="500" height="500" fill="url(#a)"/></svg>
