<svg width="300mm" height="225mm" stroke-linejoin="round" stroke-width="28.222" version="1.1" viewBox="0 0 3e4 22500" xmlns="http://www.w3.org/2000/svg" xmlns:xlink="http://www.w3.org/1999/xlink"><defs><linearGradient id="d" x1="2644" x2="17213" y1="20324" y2="3228.1" gradientUnits="userSpaceOnUse"><stop stop-color="#fe007f" offset="0"/><stop stop-color="#fe0000" offset="1"/></linearGradient><linearGradient id="c" x1="14886" x2="15386" y1="1482.4" y2="982.41" gradientUnits="userSpaceOnUse"><stop stop-color="#fe007f" offset="0"/><stop stop-color="#fe0000" offset="1"/></linearGradient><linearGradient id="b" x1="2594" x2="27456" y1="20416" y2="5906" gradientUnits="userSpaceOnUse"><stop stop-color="#00fed5" offset="0"/><stop stop-color="#01ff2b" offset="1"/></linearGradient><linearGradient id="a" x1="22983" x2="23483" y1="1482.4" y2="982.41" gradientUnits="userSpaceOnUse"><stop stop-color="#00fed5" offset="0"/><stop stop-color="#01ff2b" offset="1"/></linearGradient></defs><path d="m15000 22500h-15000v-22500h3e4v22500z"/><path d="m27356 17931h-24662" fill="none" stroke="#333" stroke-dasharray="151,200" stroke-linecap="round" stroke-linejoin="round" stroke-width="50"/><path d="m27356 15532h-24662" fill="none" stroke="#333" stroke-dasharray="151,200" stroke-linecap="round" stroke-linejoin="round" stroke-width="50"/><path d="m27356 13133h-24662" fill="none" stroke="#333" stroke-dasharray="151,200" stroke-linecap="round" stroke-linejoin="round" stroke-width="50"/><path d="m27356 10735h-24662" fill="none" stroke="#333" stroke-dasharray="151,200" stroke-linecap="round" stroke-linejoin="round" stroke-width="50"/><path d="m27356 8336h-24662" fill="none" stroke="#333" stroke-dasharray="151,200" stroke-linecap="round" stroke-linejoin="round" stroke-width="50"/><path d="m27356 5937h-24662" fill="none" stroke="#333" stroke-dasharray="151,200" stroke-linecap="round" stroke-linejoin="round" stroke-width="50"/><path d="m27356 3538h-24662" fill="none" stroke="#333" stroke-dasharray="151,200" stroke-linecap="round" stroke-linejoin="round" stroke-width="50"/><path d="m2694 20480v-150" fill="none" stroke="#333" stroke-linejoin="round" stroke-width="100"/><path d="m2694 20480v-150" fill="none" stroke="#333" stroke-linejoin="round" stroke-width="100"/><path d="m3079 20480v-150" fill="none" stroke="#333" stroke-linejoin="round" stroke-width="100"/><path d="m3079 20480v-150" fill="none" stroke="#333" stroke-linejoin="round" stroke-width="100"/><path d="m3464 20480v-150" fill="none" stroke="#333" stroke-linejoin="round" stroke-width="100"/><path d="m3464 20480v-150" fill="none" stroke="#333" stroke-linejoin="round" stroke-width="100"/><path d="m3850 20480v-150" fill="none" stroke="#333" stroke-linejoin="round" stroke-width="100"/><path d="m3850 20480v-150" fill="none" stroke="#333" stroke-linejoin="round" stroke-width="100"/><path d="m4235 20480v-150" fill="none" stroke="#333" stroke-linejoin="round" stroke-width="100"/><path d="m4235 20480v-150" fill="none" stroke="#333" stroke-linejoin="round" stroke-width="100"/><path d="m4620 20480v-150" fill="none" stroke="#333" stroke-linejoin="round" stroke-width="100"/><path d="m4620 20480v-150" fill="none" stroke="#333" stroke-linejoin="round" stroke-width="100"/><path d="m5006 20480v-150" fill="none" stroke="#333" stroke-linejoin="round" stroke-width="100"/><path d="m5006 20480v-150" fill="none" stroke="#333" stroke-linejoin="round" stroke-width="100"/><path d="m5391 20480v-150" fill="none" stroke="#333" stroke-linejoin="round" stroke-width="100"/><path d="m5391 20480v-150" fill="none" stroke="#333" stroke-linejoin="round" stroke-width="100"/><path d="m5776 20480v-150" fill="none" stroke="#333" stroke-linejoin="round" stroke-width="100"/><path d="m5776 20480v-150" fill="none" stroke="#333" stroke-linejoin="round" stroke-width="100"/><path d="m6162 20480v-150" fill="none" stroke="#333" stroke-linejoin="round" stroke-width="100"/><path d="m6162 20480v-150" fill="none" stroke="#333" stroke-linejoin="round" stroke-width="100"/><path d="m6547 20480v-150" fill="none" stroke="#333" stroke-linejoin="round" stroke-width="100"/><path d="m6547 20480v-150" fill="none" stroke="#333" stroke-linejoin="round" stroke-width="100"/><path d="m6932 20480v-150" fill="none" stroke="#333" stroke-linejoin="round" stroke-width="100"/><path d="m6932 20480v-150" fill="none" stroke="#333" stroke-linejoin="round" stroke-width="100"/><path d="m7318 20480v-150" fill="none" stroke="#333" stroke-linejoin="round" stroke-width="100"/><path d="m7318 20480v-150" fill="none" stroke="#333" stroke-linejoin="round" stroke-width="100"/><path d="m7703 20480v-150" fill="none" stroke="#333" stroke-linejoin="round" stroke-width="100"/><path d="m7703 20480v-150" fill="none" stroke="#333" stroke-linejoin="round" stroke-width="100"/><path d="m8089 20480v-150" fill="none" stroke="#333" stroke-linejoin="round" stroke-width="100"/><path d="m8089 20480v-150" fill="none" stroke="#333" stroke-linejoin="round" stroke-width="100"/><path d="m8474 20480v-150" fill="none" stroke="#333" stroke-linejoin="round" stroke-width="100"/><path d="m8474 20480v-150" fill="none" stroke="#333" stroke-linejoin="round" stroke-width="100"/><path d="m8859 20480v-150" fill="none" stroke="#333" stroke-linejoin="round" stroke-width="100"/><path d="m8859 20480v-150" fill="none" stroke="#333" stroke-linejoin="round" stroke-width="100"/><path d="m9245 20480v-150" fill="none" stroke="#333" stroke-linejoin="round" stroke-width="100"/><path d="m9245 20480v-150" fill="none" stroke="#333" stroke-linejoin="round" stroke-width="100"/><path d="m9630 20480v-150" fill="none" stroke="#333" stroke-linejoin="round" stroke-width="100"/><path d="m9630 20480v-150" fill="none" stroke="#333" stroke-linejoin="round" stroke-width="100"/><path d="m10015 20480v-150" fill="none" stroke="#333" stroke-linejoin="round" stroke-width="100"/><path d="m10015 20480v-150" fill="none" stroke="#333" stroke-linejoin="round" stroke-width="100"/><path d="m10401 20480v-150" fill="none" stroke="#333" stroke-linejoin="round" stroke-width="100"/><path d="m10401 20480v-150" fill="none" stroke="#333" stroke-linejoin="round" stroke-width="100"/><path d="m10786 20480v-150" fill="none" stroke="#333" stroke-linejoin="round" stroke-width="100"/><path d="m10786 20480v-150" fill="none" stroke="#333" stroke-linejoin="round" stroke-width="100"/><path d="m11171 20480v-150" fill="none" stroke="#333" stroke-linejoin="round" stroke-width="100"/><path d="m11171 20480v-150" fill="none" stroke="#333" stroke-linejoin="round" stroke-width="100"/><path d="m11557 20480v-150" fill="none" stroke="#333" stroke-linejoin="round" stroke-width="100"/><path d="m11557 20480v-150" fill="none" stroke="#333" stroke-linejoin="round" stroke-width="100"/><path d="m11942 20480v-150" fill="none" stroke="#333" stroke-linejoin="round" stroke-width="100"/><path d="m11942 20480v-150" fill="none" stroke="#333" stroke-linejoin="round" stroke-width="100"/><path d="m12327 20480v-150" fill="none" stroke="#333" stroke-linejoin="round" stroke-width="100"/><path d="m12327 20480v-150" fill="none" stroke="#333" stroke-linejoin="round" stroke-width="100"/><path d="m12713 20480v-150" fill="none" stroke="#333" stroke-linejoin="round" stroke-width="100"/><path d="m12713 20480v-150" fill="none" stroke="#333" stroke-linejoin="round" stroke-width="100"/><path d="m13098 20480v-150" fill="none" stroke="#333" stroke-linejoin="round" stroke-width="100"/><path d="m13098 20480v-150" fill="none" stroke="#333" stroke-linejoin="round" stroke-width="100"/><path d="m13484 20480v-150" fill="none" stroke="#333" stroke-linejoin="round" stroke-width="100"/><path d="m13484 20480v-150" fill="none" stroke="#333" stroke-linejoin="round" stroke-width="100"/><path d="m13869 20480v-150" fill="none" stroke="#333" stroke-linejoin="round" stroke-width="100"/><path d="m13869 20480v-150" fill="none" stroke="#333" stroke-linejoin="round" stroke-width="100"/><path d="m14254 20480v-150" fill="none" stroke="#333" stroke-linejoin="round" stroke-width="100"/><path d="m14254 20480v-150" fill="none" stroke="#333" stroke-linejoin="round" stroke-width="100"/><path d="m14640 20480v-150" fill="none" stroke="#333" stroke-linejoin="round" stroke-width="100"/><path d="m14640 20480v-150" fill="none" stroke="#333" stroke-linejoin="round" stroke-width="100"/><path d="m15024 20480v-150" fill="none" stroke="#333" stroke-linejoin="round" stroke-width="100"/><path d="m15024 20480v-150" fill="none" stroke="#333" stroke-linejoin="round" stroke-width="100"/><path d="m15409 20480v-150" fill="none" stroke="#333" stroke-linejoin="round" stroke-width="100"/><path d="m15409 20480v-150" fill="none" stroke="#333" stroke-linejoin="round" stroke-width="100"/><path d="m15795 20480v-150" fill="none" stroke="#333" stroke-linejoin="round" stroke-width="100"/><path d="m15795 20480v-150" fill="none" stroke="#333" stroke-linejoin="round" stroke-width="100"/><path d="m16180 20480v-150" fill="none" stroke="#333" stroke-linejoin="round" stroke-width="100"/><path d="m16180 20480v-150" fill="none" stroke="#333" stroke-linejoin="round" stroke-width="100"/><path d="m16565 20480v-150" fill="none" stroke="#333" stroke-linejoin="round" stroke-width="100"/><path d="m16565 20480v-150" fill="none" stroke="#333" stroke-linejoin="round" stroke-width="100"/><path d="m16951 20480v-150" fill="none" stroke="#333" stroke-linejoin="round" stroke-width="100"/><path d="m16951 20480v-150" fill="none" stroke="#333" stroke-linejoin="round" stroke-width="100"/><path d="m17336 20480v-150" fill="none" stroke="#333" stroke-linejoin="round" stroke-width="100"/><path d="m17336 20480v-150" fill="none" stroke="#333" stroke-linejoin="round" stroke-width="100"/><path d="m17722 20480v-150" fill="none" stroke="#333" stroke-linejoin="round" stroke-width="100"/><path d="m17722 20480v-150" fill="none" stroke="#333" stroke-linejoin="round" stroke-width="100"/><path d="m18107 20480v-150" fill="none" stroke="#333" stroke-linejoin="round" stroke-width="100"/><path d="m18107 20480v-150" fill="none" stroke="#333" stroke-linejoin="round" stroke-width="100"/><path d="m18492 20480v-150" fill="none" stroke="#333" stroke-linejoin="round" stroke-width="100"/><path d="m18492 20480v-150" fill="none" stroke="#333" stroke-linejoin="round" stroke-width="100"/><path d="m18878 20480v-150" fill="none" stroke="#333" stroke-linejoin="round" stroke-width="100"/><path d="m18878 20480v-150" fill="none" stroke="#333" stroke-linejoin="round" stroke-width="100"/><path d="m19263 20480v-150" fill="none" stroke="#333" stroke-linejoin="round" stroke-width="100"/><path d="m19263 20480v-150" fill="none" stroke="#333" stroke-linejoin="round" stroke-width="100"/><path d="m19648 20480v-150" fill="none" stroke="#333" stroke-linejoin="round" stroke-width="100"/><path d="m19648 20480v-150" fill="none" stroke="#333" stroke-linejoin="round" stroke-width="100"/><path d="m20034 20480v-150" fill="none" stroke="#333" stroke-linejoin="round" stroke-width="100"/><path d="m20034 20480v-150" fill="none" stroke="#333" stroke-linejoin="round" stroke-width="100"/><path d="m20419 20480v-150" fill="none" stroke="#333" stroke-linejoin="round" stroke-width="100"/><path d="m20419 20480v-150" fill="none" stroke="#333" stroke-linejoin="round" stroke-width="100"/><path d="m20804 20480v-150" fill="none" stroke="#333" stroke-linejoin="round" stroke-width="100"/><path d="m20804 20480v-150" fill="none" stroke="#333" stroke-linejoin="round" stroke-width="100"/><path d="m21190 20480v-150" fill="none" stroke="#333" stroke-linejoin="round" stroke-width="100"/><path d="m21190 20480v-150" fill="none" stroke="#333" stroke-linejoin="round" stroke-width="100"/><path d="m21575 20480v-150" fill="none" stroke="#333" stroke-linejoin="round" stroke-width="100"/><path d="m21575 20480v-150" fill="none" stroke="#333" stroke-linejoin="round" stroke-width="100"/><path d="m21960 20480v-150" fill="none" stroke="#333" stroke-linejoin="round" stroke-width="100"/><path d="m21960 20480v-150" fill="none" stroke="#333" stroke-linejoin="round" stroke-width="100"/><path d="m22346 20480v-150" fill="none" stroke="#333" stroke-linejoin="round" stroke-width="100"/><path d="m22346 20480v-150" fill="none" stroke="#333" stroke-linejoin="round" stroke-width="100"/><path d="m22731 20480v-150" fill="none" stroke="#333" stroke-linejoin="round" stroke-width="100"/><path d="m22731 20480v-150" fill="none" stroke="#333" stroke-linejoin="round" stroke-width="100"/><path d="m23117 20480v-150" fill="none" stroke="#333" stroke-linejoin="round" stroke-width="100"/><path d="m23117 20480v-150" fill="none" stroke="#333" stroke-linejoin="round" stroke-width="100"/><path d="m23502 20480v-150" fill="none" stroke="#333" stroke-linejoin="round" stroke-width="100"/><path d="m23502 20480v-150" fill="none" stroke="#333" stroke-linejoin="round" stroke-width="100"/><path d="m23887 20480v-150" fill="none" stroke="#333" stroke-linejoin="round" stroke-width="100"/><path d="m23887 20480v-150" fill="none" stroke="#333" stroke-linejoin="round" stroke-width="100"/><path d="m24273 20480v-150" fill="none" stroke="#333" stroke-linejoin="round" stroke-width="100"/><path d="m24273 20480v-150" fill="none" stroke="#333" stroke-linejoin="round" stroke-width="100"/><path d="m24658 20480v-150" fill="none" stroke="#333" stroke-linejoin="round" stroke-width="100"/><path d="m24658 20480v-150" fill="none" stroke="#333" stroke-linejoin="round" stroke-width="100"/><path d="m25043 20480v-150" fill="none" stroke="#333" stroke-linejoin="round" stroke-width="100"/><path d="m25043 20480v-150" fill="none" stroke="#333" stroke-linejoin="round" stroke-width="100"/><path d="m25429 20480v-150" fill="none" stroke="#333" stroke-linejoin="round" stroke-width="100"/><path d="m25429 20480v-150" fill="none" stroke="#333" stroke-linejoin="round" stroke-width="100"/><path d="m25814 20480v-150" fill="none" stroke="#333" stroke-linejoin="round" stroke-width="100"/><path d="m25814 20480v-150" fill="none" stroke="#333" stroke-linejoin="round" stroke-width="100"/><path d="m26199 20480v-150" fill="none" stroke="#333" stroke-linejoin="round" stroke-width="100"/><path d="m26199 20480v-150" fill="none" stroke="#333" stroke-linejoin="round" stroke-width="100"/><path d="m26585 20480v-150" fill="none" stroke="#333" stroke-linejoin="round" stroke-width="100"/><path d="m26585 20480v-150" fill="none" stroke="#333" stroke-linejoin="round" stroke-width="100"/><path d="m26970 20480v-150" fill="none" stroke="#333" stroke-linejoin="round" stroke-width="100"/><path d="m26970 20480v-150" fill="none" stroke="#333" stroke-linejoin="round" stroke-width="100"/><path d="m27356 20480v-150" fill="none" stroke="#333" stroke-linejoin="round" stroke-width="100"/><path d="m27356 20480v-150" fill="none" stroke="#333" stroke-linejoin="round" stroke-width="100"/><path d="m2694 20330h24662" fill="none" stroke="#333" stroke-linecap="round" stroke-linejoin="round" stroke-width="100"/><path d="m2694 20316 19-1 38-4 20-1 19-2 19-1 19-2 20-1 19-2 19-1 19-2 20-1 38-2 20-1 19-1h19l19-1 20-1h19 19 19 20 19 19l19 1h20 19l19 1h20 19l19 1h19l20 1h19 19 19 20 19 19 19l20-1 19-1h19l20-1 57-3 20-1 57-3 20-1 38-2 20-1 38-2h19l20-1h19l19-1h19 20 19l19-1h19 20l19 1h19 20 19 19 19 20 19l19-1h19 20l19-1h19l19-1 20-1h19l19-1 20-1 19-1 19-2 19-1 20-1 38-2 19-2 20-1 38-2 19-2 20-1 38-2 20-1 19-2 38-2h20l57-3 20-1 38-2 20-1h19l38-2 20-1 57-3 20-1 57-3 20-1 38-2 20-1 57-3 20-1 57-3 20-1 38-2h19l20-1 38-2h20l38-2h19l20-1h19l38-2h20l19-1h19l19-1 20-1h19l19-1 20-1 57-3 20-1 19-1 19-2 19-1 20-1 19-2 19-1 20-1 57-3 20-1 38-2h19l20-1h19 19l19 1h20l38 2 20 1 19 1 38 4 20 1 57 6 20 1 19 2 19 1 19 2 20 1 38 2h20l19 1h19l19-1 20-1 38-2 19-2 20-1 19-2 19-3 20-2 19-2 38-6 20-2 38-6 19-2 20-3 19-3 38-4 20-3 38-4 20-1 38-4 19-1 20-2 38-2 19-2 20-1 57-3 20-1 38-2 20-1 19-2 38-2 20-1 19-2 38-2 20-2 38-2 19-2 20-1 19-2 19-1 20-2 38-2 19-2 20-1 19-2 19-1 19-2 20-1 19-1 19-2 20-1 19-1 19-2 19-1 20-1 19-2 38-2 20-2 38-2 19-2 20-1 19-1 19-2 20-1 19-1 19-2 19-1 20-1 19-2 38-2 20-2 38-2 19-2 20-1 19-2 19-1 20-1 19-2 38-2 20-2 38-2 19-2 20-1 19-1 19-2 19-1 20-2 38-2 20-2 38-2 19-2 20-1 19-1 19-2 19-1 20-2 19-1 19-2 20-1 19-2 19-1 19-2 20-1 19-2 19-1 19-2 20-1 19-2 19-1 19-2 20-1 38-4 20-1 19-2 19-1 19-2 20-1 38-4 19-1 20-2 19-1 19-2 19-1 20-2 19-1 19-2 20-2 19-1 19-2 19-1 20-2 19-1 19-2 19-1 20-2 19-1 19-2 20-1 19-2 19-1 19-2 20-1 19-1 19-2 19-1 20-2 19-1 19-2 19-1 20-2 19-1 19-2 20-1 19-2 19-1 19-2 20-1 19-2 19-1 19-2 20-1 19-2 19-1 19-2 20-1 19-2 19-1 20-2 19-2 19-1 19-2 20-1 57-6 20-1 57-6 20-1 38-4 20-2 57-6 20-1 57-6 20-2 19-2 19-1 20-2 38-4 19-1 20-2 19-2 19-1 19-2 20-1 19-2 19-1 19-2 20-1 38-4 20-1 19-2 19-1 19-2 20-1 38-4 19-1 20-2 19-2 19-1 19-2 20-2 19-2 19-1 20-2 57-6 20-2 57-6 20-2 57-6 20-2 38-4 20-2 57-6 20-2 57-6 20-2 38-4 20-2 19-2 19-1 19-2 20-2 19-2 19-1 19-2 20-1 19-2 19-1 19-2 20-1 19-2 19-1 20-1 19-2 38-2 20-2 19-1 19-2 19-1 20-2 19-1 19-2 19-1 20-2 19-1 19-2 20-2 38-4 19-1 20-2 57-6 20-2 38-4 20-2 19-2 19-1 19-2 20-2 57-6 20-2 19-1 38-4 20-2 19-1 19-2 20-2 38-4 19-1 20-2 57-6 20-2 57-6 20-2 19-3 19-2 20-2 19-3 38-4 20-3 38-4 19-3 20-2 19-2 19-3 19-2 20-2 19-2 19-3 20-2 57-6 20-2 57-6 20-2 38-4 20-2 57-6 20-2 19-3 19-2 19-3 20-3 19-2 38-6 20-4 38-6 20-4 19-3 19-4 19-3 20-4 19-3 19-4 19-3 20-3 19-4 38-6 20-3 19-2 19-3 20-2 19-3 38-4 20-2 19-1 38-4 20-1 19-2 19-1 19-2 20-1 19-2 19-1 20-2 57-6 20-2 38-4 19-3 20-2 38-6 20-2 57-9 20-3 19-4 38-6 20-3 19-4 76-12 19-4 20-3 57-9 20-3 57-9 20-3 57-9 20-2 38-6 20-3 19-2 38-6 20-2 38-6 19-2 20-3 19-2 19-3 20-3 19-2 38-6 20-3 19-2 38-6 20-3 19-3 19-4 19-3 20-3 19-4 19-3 20-4 19-4 19-3 19-4 20-4 57-12 20-4 57-12 20-4 38-8 20-4 19-3 38-8 20-3 19-4 19-3 19-4 20-3 19-3 19-4 19-3 20-3 19-4 19-3 20-4 19-3 19-4 19-3 20-4 57-12 20-4 19-4 19-5 20-4 38-10 19-4 20-5 38-10 19-4 20-5 57-15 20-5 38-10 20-4 38-10 19-4 20-5 38-8 19-5 20-4 57-12 20-4 38-8 20-4 19-3 19-4 19-3 20-4 19-3 19-4 19-3 20-3 19-3 19-4 19-3 20-3 38-6 20-4 38-6 19-4 20-3 57-12 20-4 19-4 19-5 20-4 57-15 20-5 19-6 19-5 19-6 20-6 19-5 38-12 20-6 19-6 19-5 20-6 19-6 19-5 19-6 20-5 57-15 20-5 19-5 19-4 19-5 20-4 38-8 20-5 19-3 38-8 20-4 19-4 19-3 19-4 20-4 19-3 19-4 20-3 19-4 19-3 19-4 20-3 19-4 38-6 20-4 57-9 20-3 38-6 20-3 19-3 19-2 19-3 20-2 19-2 19-3 19-2 20-2 57-6 20-3 19-2 19-3 20-3 19-4 19-3 19-4 20-5 19-4 19-6 19-5 20-7 38-14 19-8 20-8 19-9 19-10 20-9 57-30 20-10 38-20 19-9 20-10 38-18 20-9 19-8 38-14 20-6 19-6 38-10 20-4 38-8 19-3 20-4 38-6 20-4 19-3 38-8 20-5 19-4 38-12 20-6 19-7 19-8 19-9 20-9 38-20 20-11 19-11 38-24 20-13 19-13 38-28 20-14 57-45 20-15 38-32 20-16 19-16 19-17 19-16 20-16 19-16 19-17 19-16 20-15 19-16 19-15 20-15 19-15 19-14 19-13 20-13 19-13 19-12 19-11 20-11 19-10 38-18 20-8 19-8 19-7 20-6 38-12 19-5 20-4 19-5 19-3 19-4 20-3 38-6 19-2 20-2 38-4 20-2 57-6 20-3 19-2 19-3 19-4 20-4 19-5 19-6 20-6 19-7 19-8 19-9 20-10 38-24 19-14 20-15 19-16 19-17 19-18 20-18 19-19 19-20 20-20 57-60 77-77 20-18 19-17 38-32 20-14 19-13 19-12 20-11 38-20 19-9 20-9 38-16 19-7 20-8 19-7 19-8 19-7 20-8 38-16 20-9 19-9 19-10 19-11 20-11 38-24 19-13 20-13 19-13 19-14 20-14 57-42 20-15 57-42 20-14 38-28 19-13 20-13 38-26 20-14 19-13 19-14 19-15 20-15 19-16 38-34 20-19 19-20 19-21 19-23 20-24 19-25 19-28 20-29 19-31 19-33 19-35 20-36 19-38 19-39 19-40 20-41 38-84 19-43 20-44 19-43 19-44 20-44 19-44 38-86 20-42 19-42 19-41 19-40 20-38 19-37 19-36 20-34 19-33 19-30 19-29 20-26 19-24 19-21 19-19 20-16 19-13 19-10 19-6 20-3h19l19 4 20 8 19 11 19 14 19 16 20 18 19 18 38 38 20 18 19 17 19 16 19 12 20 10 19 6 19 3 20-3 19-7 19-14 19-20 20-27 19-34 19-41 19-46 20-52 19-56 19-60 20-63 19-64 38-132 20-65 19-65 19-62 19-59 20-56 19-52 19-46 19-41 20-33 19-26 19-18 20-11 19-4 19 2 19 7 20 11 19 13 19 16 19 18 20 17 19 18 19 16 19 14 20 10 19 7 19 2 20-3 19-10 19-18 19-26 20-34 19-43 19-51 19-58 20-64 19-69 19-73 19-77 20-81 19-82 19-84 20-85 19-85 19-83 19-82 39-156 19-73 19-68 20-62 19-56 19-50 20-45 19-40 19-35 19-31 20-28 19-24 19-21 19-19 20-17 19-15 38-28 20-13 38-28 20-15 19-17 19-18 19-21 20-24 19-26 19-30 19-32 20-37 19-40 19-44 19-49 20-53 19-59 19-63 20-69 19-74 19-80 19-87 20-92 19-100 19-106 19-113 20-120 19-127 19-133 19-136 20-140 19-141 19-143 20-142 19-142 19-139 19-135 20-132 19-125 19-120 19-111 20-103 19-93 19-83 20-70 19-57 19-44 19-31 20-19 19-10 19-1 19 6 20 12 19 16 19 19 19 21 20 21 19 20 19 18 20 13 19 8 19 2 19-6 20-16 19-27 19-39 19-52 20-65 19-78 19-88 19-100 20-110 19-120 19-128 20-136 19-144 19-151 19-157 20-162 19-167 19-171 19-174 20-178 19-179 19-180 20-182" fill="none" stroke="url(#b)" stroke-linecap="round" stroke-linejoin="round" stroke-width="200"/><path d="m17163 3228.1a50 50 0 0 0-48.886 44.235l-0.104 0.9818a50 50 0 0 0 43.874 55.449 50 50 0 0 0 55.448-43.873l0.104-0.9818a50 50 0 0 0-43.874-55.449 50 50 0 0 0-6.562-0.3618zm-25.529 198.28a50 50 0 0 0-49.506 43.563l-0.103 0.9819a50 50 0 0 0 43.098 56.017 50 50 0 0 0 56.069-43.098l0.103-1.0335a50 50 0 0 0-43.149-56.017 50 50 0 0 0-6.512-0.4134zm-25.89 198.28a50 50 0 0 0-49.557 43.46l-0.155 1.0335a50 50 0 0 0 43.046 56.069 50 50 0 0 0 56.121-42.995l0.103-0.9818a50 50 0 0 0-43.046-56.121 50 50 0 0 0-6.512-0.4651zm-25.889 198.28a50 50 0 0 0-49.868 43.202l-0.104 0.9819a50 50 0 0 0 42.685 56.379 50 50 0 0 0 56.379-42.736l0.104-0.9819a50 50 0 0 0-42.685-56.379 50 50 0 0 0-6.511-0.4651zm-27.234 198.23a50 50 0 0 0-49.403 43.667l-0.103 0.9819a50 50 0 0 0 43.253 55.914 50 50 0 0 0 55.914-43.253l0.155-0.9818a50 50 0 0 0-43.305-55.914 50 50 0 0 0-6.511-0.4135zm-25.115 198.44a50 50 0 0 0-49.247 43.822l-0.104 0.9818a50 50 0 0 0 43.46 55.811 50 50 0 0 0 55.759-43.46l0.103-0.9819a50 50 0 0 0-43.408-55.81 50 50 0 0 0-6.563-0.3618zm-23.978 198.59a50 50 0 0 0-48.989 44.132l-0.155 0.9818a50 50 0 0 0 43.822 55.5 50 50 0 0 0 55.5-43.77l0.104-0.9819a50 50 0 0 0-43.77-55.552 50 50 0 0 0-6.512-0.31zm-23.822 198.64a50 50 0 0 0-48.473 44.7l-0.103 1.0335a50 50 0 0 0 44.442 54.984 50 50 0 0 0 54.983-44.442l0.104-0.9818a50 50 0 0 0-44.442-55.035 50 50 0 0 0-6.511-0.2584zm-21.136 198.95a50 50 0 0 0-48.162 45.01l-0.104 1.0336a50 50 0 0 0 44.855 54.674 50 50 0 0 0 54.674-44.855l0.103-0.9819a50 50 0 0 0-44.855-54.674 50 50 0 0 0-6.511-0.2067zm-19.689 199.06a50 50 0 0 0-47.852 45.372l-0.103 0.9818a50 50 0 0 0 45.216 54.364 50 50 0 0 0 54.364-45.165l0.103-0.9818a50 50 0 0 0-45.217-54.415 50 50 0 0 0-6.511-0.155zm-18.397 199.16a50 50 0 0 0-47.8 45.372l-0.104 0.9818a50 50 0 0 0 45.217 54.364 50 50 0 0 0 54.364-45.217l0.103-0.9818a50 50 0 0 0-45.217-54.364 50 50 0 0 0-6.563-0.1551zm-18.5 199.21a50 50 0 0 0-47.387 45.785l-0.103 0.9819a50 50 0 0 0-0.104 1.4986l-8.94 107.54-7.803 93.844a50.005 50.005 0 0 0 0 0.1551l-19.017 239-19.999 246.96a50.005 50.005 0 0 0 0 0.2584l-19.017 253.01a50.005 50.005 0 0 0 0 0.1034l-18.965 257.97a50.005 50.005 0 0 0 0 0.0517l-19.017 261.95-19.998 263.91a50.005 50.005 0 0 0 0 0.2067l-19.017 263.96-18.966 262.98-19.017 259.83-19.998 255.9a50.005 50.005 0 0 0 0 0.1033l-18.966 250.94-19.017 242.88-18.965 234.71-19.999 223.81-18.965 211.82-18.965 199.57-19.947 183.55-18.965 168.62-18.914 152.45-18.914 139.22-19.895 127.33-18.914 115.44-18.861 106.3-18.811 96.996-19.843 90.382-18.914 85.628-18.81 80.202-19.896 77.515a50.005 50.005 0 0 0-0.103 0.413l-18.965 76.895-18.966 74.827a50.005 50.005 0 0 0-0.051 0.155l-18.965 75.913-19.999 78.961a50.005 50.005 0 0 0-0.259 1.086l-19.017 82.992a50.005 50.005 0 0 0-0.103 0.62l-19.017 88.005a50.005 50.005 0 0 0-0.103 0.517l-19.017 93.017a50.005 50.005 0 0 0-0.052 0.414l-19.999 101.96a50.005 50.005 0 0 0-0.206 1.137l-19.017 109.97a50.005 50.005 0 0 0-0.104 0.723l-19.016 119.99a50.005 50.005 0 0 0-0.052 0.517l-19.017 129.04a50.005 50.005 0 0 0 0 0.051l-19.999 137a50.005 50.005 0 0 0-0.103 0.723l-19.017 145a50.005 50.005 0 0 0-0.052 0.31l-18.965 151.88-19.999 155.96a50.005 50.005 0 0 0-0.051 0.465l-19.017 161.02a50.005 50.005 0 0 0 0 0.155l-19.017 165a50.005 50.005 0 0 0 0 0.104l-18.966 167.84-19.998 168.88a50.005 50.005 0 0 0-0.052 0.259l-18.965 169.03-19.017 169.96-18.965 167.79-19.999 165.83a50.005 50.005 0 0 0 0 0.259l-19.017 163.87-18.965 158.85-18.966 153.58-19.947 147.74-18.965 140.82-18.914 132.4-19.947 124.54-18.913 116.58-18.914 107.38-18.81 100.15-19.844 93.276-18.913 86.507-18.811 80.201-18.707 73.846-19.74 69.091-18.81 64.338-18.655 58.962-18.604 54.726-19.585 51.986-18.759 48.318-18.448 44.7-19.637 43.201a50.005 50.005 0 0 0-0.052 0.052l-18.81 41.6-18.655 39.325-18.707 38.344-19.741 38.551a50.005 50.005 0 0 0-0.206 0.413l-19.017 38.034-18.914 37.724-18.758 36.535-19.844 37.776a50.005 50.005 0 0 0-0.259 0.465l-19.016 37a50.005 50.005 0 0 0-0.207 0.465l-18.655 37.31-19.637 36.277a50.005 50.005 0 0 0-0.724 1.447l-19.017 37.982-18.965 37.983a50.005 50.005 0 0 0-0.258 0.465l-18.759 38.55-19.74 38.551a50.005 50.005 0 0 0-0.465 0.93l-19.017 38.964a50.005 50.005 0 0 0-0.207 0.465l-19.017 39.998-18.862 39.791-19.895 40.772a50.005 50.005 0 0 0-0.62 1.292l-19.017 42.013a50.005 50.005 0 0 0-0.155 0.362l-19.017 43.046a50.005 50.005 0 0 0-0.155 0.362l-18.811 43.563-19.792 43.564a50.005 50.005 0 0 0-0.723 1.602l-19.017 45.992-18.965 45.992a50.005 50.005 0 0 0-0.31 0.723l-18.966 48.008a50.005 50.005 0 0 0-0.155 0.31l-18.965 48.989-19.017 48.989-18.913 48.783-19.896 49.712a50.005 50.005 0 0 0-0.31 0.827l-19.017 50.023-18.965 49.971a50.005 50.005 0 0 0-0.155 0.31l-18.707 50.281-19.74 48.266a50.005 50.005 0 0 0-0.414 1.137l-18.965 49.868-18.862 48.679-18.707 47.232-19.74 46.406a50.005 50.005 0 0 0-0.207 0.516l-18.913 45.786-18.656 44.235-19.74 43.356a50.005 50.005 0 0 0-0.052 0.104l-18.81 41.547-18.655 39.378-18.449 37.827-19.482 36.019-18.655 34.416-18.552 32.194-18.345 30.903-19.378 30.076-18.449 28.163-18.19 25.787-19.637 26.51a50.005 50.005 0 0 0-0.207 0.258l-18.707 25.632-18.448 24.236-18.294 23.099-19.585 23.565a50.005 50.005 0 0 0-0.775 0.93l-18.707 23.616-18.655 22.583-18.242 22.117-19.224 21.084a50.005 50.005 0 0 0-1.55 1.809l-18.965 22.996a50.005 50.005 0 0 0-0.672 0.827l-18.655 23.564-18.604 22.531-19.947 23.926a50.005 50.005 0 0 0-0.775 0.982l-19.017 23.978a50.005 50.005 0 0 0-0.62 0.775l-18.914 24.908-19.895 25.89a50.005 50.005 0 0 0-0.723 0.982l-38.034 51.986-18.862 25.89-19.947 26.872a50.005 50.005 0 0 0-0.672 0.982l-18.759 26.613-18.758 25.632a50.005 50.005 0 0 0-0.517 0.723l-18.397 26.149-19.327 25.166a50.005 50.005 0 0 0-1.292 1.705l-18.707 26.614-18.758 25.631-18.345 25.167-19.327 24.133a50.005 50.005 0 0 0-0.775 0.981l-18.966 25.012-18.345 24.081-19.275 23.151a50.005 50.005 0 0 0-0.155 0.155l-18.965 22.996-18.294 22.118-18.19 20.153-19.585 21.549-18.19 19.121-18.552 18.552-18.552 18.551-19.017 18.035-18.448 16.485a50.005 50.005 0 0 0-1.034 0.982l-17.932 17.002-17.88 15.038a50.005 50.005 0 0 0-0.155 0.155l-19.327 16.433-18.293 14.417a50.005 50.005 0 0 0-1.24 1.034l-17.26 14.521-18.19 12.764a50.005 50.005 0 0 0-2.326 1.705l-18.345 14.47-18.293 13.487-18.552 13.643-19.276 13.539-18.758 12.816-19.017 13.022a50.005 50.005 0 0 0-1.395 0.982l-17.829 13.178-18.5 11.989-18.758 11.834a50.005 50.005 0 0 0-1.499 1.033l-18.5 12.661-19.276 12.505-18.706 11.783-19.017 12.04-18.501 11.679-19.482 11.679a50.005 50.005 0 0 0-0.981 0.62l-19.017 11.989-18.19 11.472-17.674 10.284-19.533 10.697a50.005 50.005 0 0 0-0.931 0.568l-19.017 11.007-19.016 11.008-17.674 10.231-18.603 9.302a50.005 50.005 0 0 0-0.93 0.465l-19.017 10.026-18.552 9.715-19.069 9.56-18.5 8.785a50.005 50.005 0 0 0-1.86 0.93l-18.087 9.508-17.622 8.32-18.965 8.579-18.449 7.751a50.005 50.005 0 0 0-2.015 0.879l-17.983 8.526-17.622 7.442-19.534 7.803a50.005 50.005 0 0 0-0.878 0.362l-18.965 7.958-17.984 7.596-17.932 6.615a50.005 50.005 0 0 0-1.291 0.465l-19.327 7.751-18.346 6.77a50.005 50.005 0 0 0-2.118 0.827l-17.57 7.389-18.552 6.512a50.005 50.005 0 0 0-0.775 0.258l-19.017 7.028-18.965 6.976-18.656 6.873-19.585 6.873a50.005 50.005 0 0 0-0.775 0.259l-19.017 6.976-18.965 7.028-18.656 6.873-19.585 6.821a50.005 50.005 0 0 0-0.775 0.31l-19.017 6.977-18.965 7.028-18.655 6.821-18.862 6.614-18.294 5.788a50.005 50.005 0 0 0-2.222 0.775l-18.603 6.822-19.637 6.873a50.005 50.005 0 0 0-0.776 0.31l-17.88 6.563-17.88 5.632a50.005 50.005 0 0 0-2.222 0.775l-18.603 6.873-18.914 6.615-18.242 5.736a50.005 50.005 0 0 0-2.222 0.775l-17.931 6.615-17.519 5.529-19.637 5.891a50.005 50.005 0 0 0-2.945 0.982l-17.88 6.615-17.519 5.529-19.688 5.891a50.005 50.005 0 0 0-0.672 0.207l-19.017 5.994-18.965 5.995-17.57 5.529-18.501 4.651a50.005 50.005 0 0 0-2.945 0.827l-19.017 5.994-17.828 5.633-17.519 4.599-19.688 4.961a50.005 50.005 0 0 0-2.946 0.827l-17.828 5.633-16.64 4.341-17.777 3.772a50.005 50.005 0 0 0-1.809 0.413l-19.998 5.013a50.005 50.005 0 0 0-0.62 0.155l-17.777 4.651-17.777 3.772a50.005 50.005 0 0 0-1.86 0.414l-19.069 4.754-18.087 3.824-19.016 3.979-17.57 3.721-18.552 2.79a50.005 50.005 0 0 0-2.842 0.517l-17.777 3.721-17.725 2.79-18.81 2.998-19.844 2.945a50.005 50.005 0 0 0-0.362 0.052l-19.017 2.997-18.965 2.997-17.622 2.791-18.552 1.86a50.005 50.005 0 0 0-2.842 0.362l-17.725 2.79-17.57 1.861-19.895 2.015a50.005 50.005 0 0 0-0.259 0l-18.965 2.016a50.005 50.005 0 0 0-2.584 0.31l-17.725 2.842-17.57 1.809-19.895 2.015a50.005 50.005 0 0 0-0.258 0l-18.966 2.015-19.017 2.016-19.017 2.015a50.005 50.005 0 0 0-2.17 0.258l-18.914 2.843-17.931 1.86-18.966 2.015a50.005 50.005 0 0 0-2.17 0.259l-18.914 2.842-17.931 1.912a50.005 50.005 0 0 0-2.584 0.31l-17.673 2.791-17.725 1.912a50.005 50.005 0 0 0-2.171 0.258l-20.05 2.997a50.005 50.005 0 0 0-0.362 0.052l-17.725 2.79-17.725 1.861a50.005 50.005 0 0 0-2.532 0.361l-18.81 2.946-19.844 2.997a50.005 50.005 0 0 0-0.362 0.052l-19.017 2.997-18.965 2.997-18.81 2.998-19.844 2.945a50.005 50.005 0 0 0-0.362 0.052l-19.017 2.997-17.57 2.791-18.603 1.86a50.005 50.005 0 0 0-2.791 0.362l-38.034 5.994-18.81 2.997-19.792 2.946a50.005 50.005 0 0 0-0.362 0.052l-17.725 2.842-17.725 1.86a50.005 50.005 0 0 0-2.583 0.31l-18.811 2.998-18.707 2.79-17.88 1.86a50.005 50.005 0 0 0-2.583 0.362l-19.017 2.997-17.57 2.791-18.604 1.86a50.005 50.005 0 0 0-2.79 0.362l-17.725 2.791-17.622 1.86-19.844 1.964a50.005 50.005 0 0 0-2.842 0.361l-17.725 2.791-17.725 1.86-18.862 2.016-19.844 1.963a50.005 50.005 0 0 0-0.258 0.052l-19.017 2.015-19.017 1.964-18.862 2.015-19.844 1.964a50.005 50.005 0 0 0-0.258 0.052l-17.725 1.86-17.673 0.93a50.005 50.005 0 0 0-2.636 0.207l-18.862 1.964-18.707 1.86-17.828 0.982a50.005 50.005 0 0 0-2.584 0.207l-17.621 1.808-18.656 0.982a50.005 50.005 0 0 0-0.103 0l-19.017 0.982a50.005 50.005 0 0 0-2.584 0.207l-17.725 1.86-17.621 0.93-19.948 0.982a50.005 50.005 0 0 0-0.103 0l-19.017 1.034a50.005 50.005 0 0 0-2.584 0.206l-17.725 1.861-17.621 0.93-19.947 0.982a50.005 50.005 0 0 0-0.104 0l-19.017 0.982-18.913 0.981-19.947 1.034a50.005 50.005 0 0 0-2.739 0.207l-17.725 1.86-17.674 0.93-18.913 0.982-19.947 0.982a50.005 50.005 0 0 0-0.155 0l-18.966 1.033-19.016 0.982a50.005 50.005 0 0 0-2.636 0.207l-17.622 1.86-18.603 0.93a50.005 50.005 0 0 0-0.155 0l-18.965 0.982-19.017 1.034-18.966 0.982-19.895 0.982a50.005 50.005 0 0 0-2.739 0.258l-17.725 1.86-17.622 0.93-19.947 0.982a50.005 50.005 0 0 0-0.103 0l-19.017 0.982-19.017 1.034a50.005 50.005 0 0 0-2.584 0.206l-17.621 1.809-18.656 0.93a50.005 50.005 0 0 0-0.103 0l-19.017 1.034-19.017 0.982-18.913 0.982-19.947 1.033a50.005 50.005 0 0 0-2.739 0.207l-17.674 1.86-17.725 0.93-18.914 0.982-19.947 1.034a50.005 50.005 0 0 0-0.1034 0l-19.017 0.982-18.914 0.981-19.947 0.982a50.005 50.005 0 0 0-0.155 0l-18.965 1.034-19.017 0.982-18.914 0.981-19.947 1.034a50.005 50.005 0 0 0-0.155 0l-18.965 0.982-19.017 0.982-18.914 1.033-19.947 0.982a50.005 50.005 0 0 0-0.1551 0l-18.965 0.982-19.017 1.033-17.673 0.931h-18.707a50.005 50.005 0 0 0-2.6355 0.051l-19.017 0.982-18.914 1.034-18.707 0.93h-17.725a50.005 50.005 0 0 0-2.6355 0.052l-19.017 1.033-17.673 0.93h-18.707a50.005 50.005 0 0 0-2.6355 0.052l-17.673 0.93h-17.673a50.005 50.005 0 0 0-2.6355 0.052l-18.914 1.033-18.707 0.93h-17.777a50.005 50.005 0 0 0-2.5838 0.052l-17.725 0.93h-18.655a50.005 50.005 0 0 0-2.6355 0.052l-17.673 0.93h-17.725a50.005 50.005 0 0 0-2.5838 0.104l-17.725 0.93h-18.655a50.005 50.005 0 0 0-2.6355 0.051l-17.673 0.931h-17.725a50.005 50.005 0 0 0-2.6355 0.103l-17.673 0.93h-18.655a50.005 50.005 0 0 0-2.6355 0.052l-17.673 0.93h-17.725a50.005 50.005 0 0 0-2.6355 0.052l-17.673 0.93h-18.655a50.005 50.005 0 0 0-2.6355 0.103l-19.017 0.982-17.673 0.93h-18.707a50.005 50.005 0 0 0-2.6355 0.104l-17.673 0.93h-17.673a50.005 50.005 0 0 0-2.6355 0.051l-17.673 0.931h-18.707a50.005 50.005 0 0 0-2.6355 0.051l-17.673 0.93h-17.673a50.005 50.005 0 0 0-2.6355 0.104l-17.673 0.93h-18.707a50.005 50.005 0 0 0-2.6355 0.052l-17.673 0.93h-17.673a50.005 50.005 0 0 0-2.6355 0.051l-17.673 0.982h-18.707-19.017a50.005 50.005 0 0 0-2.5838 0.052l-17.725 0.93h-18.655a50.005 50.005 0 0 0-2.6355 0.052l-17.673 0.93h-17.725-18.965a50.005 50.005 0 0 0-2.5322 0.052l-18.707 0.982h-17.777-19.017a50.005 50.005 0 0 0-2.6355 0.051l-17.673 0.93h-18.655-19.017a50.005 50.005 0 0 0-2.6355 0.104l-17.673 0.93h-18.707-18.965a50.005 50.005 0 0 0-2.6355 0.052l-17.673 0.93h-17.725-19.999a50.005 50.005 0 0 0-2.6355 0.051l-17.673 0.931h-17.673-19.017a50.005 50.005 0 0 0-2.4805 0.103l-18.758 0.93h-17.725-19.017a50.005 50.005 0 0 0-2.6355 0.052l-17.673 0.93h-18.707-19.017a50.005 50.005 0 0 0-2.5838 0.052l-17.725 0.93h-18.655-19.017a50.005 50.005 0 0 0-2.6355 0.103l-17.673 0.93h-17.673-19.999a50.005 50.005 0 0 0-2.6355 0.052l-17.673 0.93h-17.725-18.965-19.999a50.005 50.005 0 0 0-2.6355 0.104l-17.673 0.93h-17.725-18.965-19.999-19.017a50.005 50.005 0 0 0-2.6355 0.051l-17.673 0.931h-18.707-18.965-19.017-19.017-19.999-18.965-19.017-19.017-19.999-17.673l-17.673-0.931a50.005 50.005 0 0 0-2.6355-0.103h-17.777l-18.758-0.93a50.005 50.005 0 0 0-2.4805-0.052h-17.673l-17.673-0.93a50.005 50.005 0 0 0-2.6355-0.052h-18.707l-17.673-0.93-19.017-1.033-18.965-0.982a50.005 50.005 0 0 0-2.6354-0.052h-18.707l-35.347-1.86-17.725-1.861a50.005 50.005 0 0 0-2.7389-0.258l-19.947-0.982-18.914-0.982-19.017-1.033a50.005 50.005 0 0 0-0.1033 0l-19.947-0.982-18.914-0.982-19.017-0.982-19.017-1.033a50.005 50.005 0 0 0-0.1033 0l-19.947-0.982-18.914-0.982-19.017-1.033-19.017-0.982a50.005 50.005 0 0 0-0.1034 0l-19.999-0.982a50.005 50.005 0 0 0-2.5321-0.104h-17.673l-17.673-0.93a50.005 50.005 0 0 0-2.6355-0.051h-17.777l-18.707-0.982a50.005 50.005 0 0 0-2.5321-0.052h-18.965-19.017-19.999-19.017-18.965-19.017-19.999a50.005 50.005 0 0 0-2.6355 0.103l-17.673 0.931h-17.725a50.005 50.005 0 0 0-2.5838 0.051l-17.725 0.93h-18.655-19.017a50.005 50.005 0 0 0-2.6355 0.052l-18.965 1.034-17.725 0.93h-18.655a50.005 50.005 0 0 0-2.6355 0.052l-17.673 0.93h-17.725a50.005 50.005 0 0 0-2.4804 0.051l-19.999 1.034a50.005 50.005 0 0 0-0.1034 0l-17.725 0.93h-17.673a50.005 50.005 0 0 0-2.6355 0.052l-17.673 0.93h-18.707a50.005 50.005 0 0 0-2.6355 0.052l-18.965 1.033-17.673 0.93h-17.725a50.005 50.005 0 0 0-2.4805 0.052l-18.759 0.93h-17.725a50.005 50.005 0 0 0-2.6355 0.104l-17.673 0.93h-17.725a50.005 50.005 0 0 0-2.4805 0.051l-18.758 0.931h-17.725a50.005 50.005 0 0 0-2.6355 0.051l-17.725 0.93h-18.655-19.017a50.005 50.005 0 0 0-2.6355 0.104l-17.673 0.93h-17.673-19.999-19.017-18.965-19.017-19.999-17.673l-17.725-0.93a50.005 50.005 0 0 0-2.6355-0.104h-19.999-17.673l-17.673-0.93a50.005 50.005 0 0 0-2.6355-0.051h-19.017-18.655l-17.673-0.931a50.005 50.005 0 0 0-2.6355-0.051h-19.017-17.725l-18.759-0.982a50.005 50.005 0 0 0-2.5321-0.052h-17.673l-17.673-0.93a50.005 50.005 0 0 0-2.6355-0.052h-19.017-19.999-17.673l-17.673-0.93a50.005 50.005 0 0 0-2.6355-0.103h-19.999-19.017-18.965-19.017-19.999-19.017-18.965-19.017-19.999-19.017-18.965-19.017-19.999-19.017-19.017-19.999-18.965-19.017-19.017-19.999-18.965-19.017-19.017-19.999-18.965-19.017-19.999-19.017-18.965-19.017-19.999-19.017-18.965-19.017-19.999-19.017-18.965-19.017-19.999-17.673l-17.725-0.93a50.005 50.005 0 0 0-2.5838-0.052h-19.999-19.017-19.017-18.965-20.05-18.965-19.017-19.017-19.999-18.965-17.673l-17.725-0.93a50.005 50.005 0 0 0-2.6355-0.052h-19.999-18.965-19.017-19.999-19.017-18.965-19.017-19.999-17.673l-17.673-0.93a50.005 50.005 0 0 0-2.6355-0.103h-19.017-19.999-19.017-18.965-19.017-19.999a50.005 50.005 0 0 0-2.6355 0.103l-17.673 0.93h-17.673-19.999-19.017a50.005 50.005 0 0 0-2.6355 0.052l-17.673 0.93h-17.673a50.005 50.005 0 0 0-2.5322 0.052l-18.758 0.93h-17.725a50.005 50.005 0 0 0-2.6355 0.103l-19.017 0.982-18.914 0.982-19.947 1.033a50.005 50.005 0 0 0-0.1034 0l-19.017 0.982-18.914 0.982-19.947 1.034a50.005 50.005 0 0 0-0.155 0l-18.965 0.981-19.017 0.982a50.005 50.005 0 0 0-2.6355 0.207l-17.622 1.86-18.604 0.931a50.005 50.005 0 0 0-2.7388 0.206l-17.725 1.912-17.673 0.879-19.017 1.033a50.005 50.005 0 0 0-2.3254 0.155l-18.862 1.912-17.828 0.931-18.965 0.981a50.005 50.005 0 0 0-2.6355 0.207l-17.622 1.86-18.604 0.931a50.005 50.005 0 0 0-0.1551 0l-19.017 1.033-18.914 0.982-19.947 0.982a50.005 50.005 0 0 0-0.1033 0l-17.725 0.93h-17.673a50.005 50.005 0 0 0-2.6355 0.103l-17.673 0.931h-18.655a50.005 50.005 0 0 0-2.6355 0.051l-17.725 0.93h-17.673-18.965-19.999-17.725l-17.673-0.93a50.005 50.005 0 0 0-2.6355-0.051h-17.725l-18.758-0.931a50.005 50.005 0 0 0-2.5322-0.051h-17.673l-17.673-0.93a50.005 50.005 0 0 0-2.6355-0.104h-18.655l-17.725-0.93-18.965-0.982a50.005 50.005 0 0 0-2.6355-0.052h-17.777l-18.655-0.981-37.93-1.964-19.017-1.034a50.005 50.005 0 0 0-0.155 0l-19.896-0.981-37.93-1.964a50.005 50.005 0 0 0-2.6355-0.104h-17.777l-18.655-0.93-18.965-0.982-18.965-1.033a50.005 50.005 0 0 0-0.1551 0l-19.947-0.982-18.914-0.982-17.725-0.93-17.673-1.86a50.005 50.005 0 0 0-2.7389-0.207l-19.947-1.034-18.914-0.981-17.725-0.931-17.673-1.86a50.005 50.005 0 0 0-2.7388-0.207l-19.947-0.981-17.622-0.931-17.725-1.86a50.005 50.005 0 0 0-2.7389-0.258l-18.604-0.931-17.622-1.86-19.017-1.964a50.005 50.005 0 0 0-2.5838-0.206l-17.828-0.931-18.707-1.912-18.862-1.963-19.017-2.016-19.017-1.963a50.005 50.005 0 0 0-2.7388-0.259l-18.604-0.93-17.622-1.809-19.017-2.015a50.005 50.005 0 0 0-2.5838-0.207l-17.828-0.93-18.862-1.912a50.005 50.005 0 0 0-2.3255-0.155l-19.017-1.033-18.965-0.982a50.005 50.005 0 0 0-0.155 0l-19.947-0.982-18.914-0.982a50.005 50.005 0 0 0-2.6355-0.103h-17.673l-17.673-0.931a50.005 50.005 0 0 0-2.6355-0.051h-19.999-19.017-19.017a50.005 50.005 0 0 0-2.6355 0.051l-18.914 0.982-19.947 1.034a50.005 50.005 0 0 0-0.1033 0l-19.017 0.982a50.005 50.005 0 0 0-2.5839 0.206l-17.725 1.861-17.673 0.93a50.005 50.005 0 0 0-2.3771 0.155l-19.999 2.015a50.005 50.005 0 0 0-0.2584 0.052l-18.965 1.964a50.005 50.005 0 0 0-2.5839 0.361l-17.622 2.791-18.552 1.86a50.005 50.005 0 0 0-2.8422 0.362l-17.725 2.791-17.673 1.86a50.005 50.005 0 0 0-2.5838 0.31l-18.81 2.997-19.792 2.946a50.005 50.005 0 0 0-0.4135 0.103l-18.965 2.997-19.017 2.998a50.005 50.005 0 0 0-2.5322 0.465l-17.518 3.669-18.552 2.79a50.005 50.005 0 0 0-0.4134 0.052l-18.965 2.997a50.005 50.005 0 0 0-2.5321 0.465l-17.725 3.773-17.777 2.79a50 50 0 0 0-41.6 57.154 50 50 0 0 0 57.206 41.6l19.017-2.997a50.005 50.005 0 0 0 2.4804-0.465l17.777-3.721 17.518-2.791 19.844-2.945a50.005 50.005 0 0 0 2.8422-0.517l17.777-3.772 17.725-2.791 18.81-2.945 19.844-2.998a50.005 50.005 0 0 0 0.3617-0.051l17.725-2.791 17.725-1.86a50.005 50.005 0 0 0 2.5322-0.362l17.622-2.791 18.552-1.808a50.005 50.005 0 0 0 2.8422-0.414l17.725-2.79 17.57-1.86 18.707-1.861 17.828-0.93a50.005 50.005 0 0 0 2.6355-0.207l17.673-1.86 17.622-0.93 19.947-0.982a50.005 50.005 0 0 0 0.1034 0l17.725-0.93h17.673 19.017 18.655l17.673 0.93a50.005 50.005 0 0 0 2.6355 0.052h17.725l17.673 0.93a50.005 50.005 0 0 0 0.1033 0l19.947 0.982 18.914 1.033 17.828 0.93 18.862 1.861a50.005 50.005 0 0 0 2.3254 0.206l17.725 0.931 17.673 1.86 19.017 2.015a50.005 50.005 0 0 0 2.7388 0.207l18.604 0.93 17.622 1.861 19.017 1.963 19.017 2.016a50.005 50.005 0 0 0 0.2583 0.051l19.999 1.964a50.005 50.005 0 0 0 2.3255 0.207l17.725 0.93 17.673 1.86 19.017 2.016a50.005 50.005 0 0 0 2.7388 0.206l18.604 0.93 17.673 1.861a50.005 50.005 0 0 0 2.5838 0.207l19.017 0.981a50.005 50.005 0 0 0 0.1034 0l18.655 0.931 17.622 1.86a50.005 50.005 0 0 0 2.5838 0.207l19.017 0.981 19.017 1.034a50.005 50.005 0 0 0 0.1033 0l18.655 0.93 17.622 1.861a50.005 50.005 0 0 0 2.5838 0.206l38.034 1.964a50.005 50.005 0 0 0 0.1033 0l19.947 1.033 18.914 0.982 19.017 0.982a50.005 50.005 0 0 0 0.1551 0l19.999 1.034a50.005 50.005 0 0 0 2.4805 0.051h17.673l17.673 0.931 19.017 1.033a50.005 50.005 0 0 0 0.1551 0l19.895 0.982 18.965 0.982 19.017 1.033 18.965 0.982a50.005 50.005 0 0 0 0.155 0l19.999 0.982a50.005 50.005 0 0 0 2.4805 0.103h17.673l17.725 0.931 18.965 0.981a50.005 50.005 0 0 0 2.6355 0.052h18.707l17.673 0.93a50.005 50.005 0 0 0 2.6355 0.104h17.725l18.759 0.93a50.005 50.005 0 0 0 2.4804 0.051h17.725l17.673 0.931a50.005 50.005 0 0 0 2.6355 0.051h19.017 19.999 18.965 19.017a50.005 50.005 0 0 0 2.6355-0.051l17.673-0.931h18.707a50.005 50.005 0 0 0 2.5838-0.051l17.725-0.93h17.673a50.005 50.005 0 0 0 2.6354-0.104l18.914-0.982 19.947-0.981a50.005 50.005 0 0 0 0.1034 0l19.017-1.034 18.965-0.982 19.895-0.982a50.005 50.005 0 0 0 2.7388-0.206l17.725-1.861 17.673-0.93 19.017-1.033a50.005 50.005 0 0 0 2.3255-0.155l18.862-1.913 17.828-0.93 18.965-0.982a50.005 50.005 0 0 0 2.6355-0.206l17.622-1.861 18.604-0.93a50.005 50.005 0 0 0 2.7388-0.206l17.725-1.861 17.673-0.93 18.965-1.034 19.895-0.981a50.005 50.005 0 0 0 0.1551 0l19.017-0.982 18.914-1.034 19.947-0.982a50.005 50.005 0 0 0 0.1033 0l19.017-0.981 17.673-0.931h17.673a50.005 50.005 0 0 0 2.5322-0.051l18.758-0.982h17.725a50.005 50.005 0 0 0 2.6355-0.052l17.673-0.93h17.725 19.999 18.965a50.005 50.005 0 0 0 2.6355-0.103l17.673-0.931h18.707 19.017 18.965 19.017 19.999 17.673l17.673 0.931a50.005 50.005 0 0 0 2.6355 0.103h19.017 19.999 19.017 18.965 19.017 19.999 19.017 18.965 18.707l17.673 0.93a50.005 50.005 0 0 0 2.6355 0.052h19.017 18.965 19.999 19.017 19.017 18.965 20.05 18.965 19.017 19.017 18.655l17.673 0.93a50.005 50.005 0 0 0 2.6355 0.103h19.017 19.999 19.017 18.965 19.017 19.999 19.017 18.965 19.017 19.999 19.017 18.965 19.017 19.999 19.017 18.965 19.999 19.017 19.017 18.965 19.999 19.017 19.017 18.965 19.999 19.017 19.017 19.999 19.017 18.965 19.017 19.999 19.017 18.965 19.017 19.999 19.017 18.965 19.017 18.707l17.673 0.931a50.005 50.005 0 0 0 2.6355 0.051h18.965 19.999 17.725l17.673 0.93a50.005 50.005 0 0 0 2.6355 0.052h17.725l18.759 0.93a50.005 50.005 0 0 0 2.4804 0.104h19.017 17.673l17.725 0.93a50.005 50.005 0 0 0 2.5839 0.051h19.999 17.725l17.673 0.931a50.005 50.005 0 0 0 2.6355 0.051h18.965 18.707l17.673 0.93a50.005 50.005 0 0 0 2.6355 0.104h19.017 19.999 19.017 18.965 19.017 19.999 19.017a50.005 50.005 0 0 0 2.5838-0.104l17.725-0.93h17.673 19.999a50.005 50.005 0 0 0 2.6355-0.051l17.673-0.931h17.673a50.005 50.005 0 0 0 2.5321-0.051l18.707-0.93h17.777a50.005 50.005 0 0 0 2.6355-0.104l17.673-0.93h17.673a50.005 50.005 0 0 0 2.5321-0.052l18.759-0.93h17.725a50.005 50.005 0 0 0 2.6355-0.051l19.017-1.034 17.673-0.93h18.655a50.005 50.005 0 0 0 2.6355-0.052l17.673-0.93h17.725a50.005 50.005 0 0 0 2.6355-0.103l18.914-0.982 18.707-0.93h17.725a50.005 50.005 0 0 0 2.6355-0.052l17.673-0.93h18.707a50.005 50.005 0 0 0 2.6355-0.104l18.965-0.981 17.725-0.931h17.673 19.999a50.005 50.005 0 0 0 2.6354-0.051l17.673-0.931h17.673a50.005 50.005 0 0 0 2.6355-0.103l17.673-0.93h18.707 19.017 18.965 19.017 19.999 19.017 17.725l18.758 0.93a50.005 50.005 0 0 0 2.4805 0.103h17.725l17.673 0.931a50.005 50.005 0 0 0 2.6355 0.051h17.725l18.707 0.931 18.914 0.981 19.017 1.034 18.965 0.982a50.005 50.005 0 0 0 0.155 0l19.947 0.982 18.914 1.033 19.017 0.982 18.965 1.034a50.005 50.005 0 0 0 0.155 0l19.947 0.981 18.914 0.982 19.017 0.982a50.005 50.005 0 0 0 0.1033 0l18.655 0.93 17.622 1.861a50.005 50.005 0 0 0 2.6355 0.206l18.965 1.034 19.017 0.982a50.005 50.005 0 0 0 2.6355 0.103h18.655l17.725 0.93 18.965 0.982 19.017 0.982a50.005 50.005 0 0 0 2.6355 0.103h18.655l17.725 0.93a50.005 50.005 0 0 0 2.6355 0.052h17.725l18.758 0.93a50.005 50.005 0 0 0 2.4805 0.052h17.673l17.725 0.982a50.005 50.005 0 0 0 2.6354 0.052h18.965 19.999 19.017 19.017 18.965 19.999 19.017 19.017 18.965 19.999a50.005 50.005 0 0 0 2.6355-0.104l17.673-0.93h17.725 19.999 18.965 19.017a50.005 50.005 0 0 0 2.6355-0.052l17.673-0.93h18.707 18.965 19.017a50.005 50.005 0 0 0 2.6355-0.052l17.673-0.93h18.707 18.965a50.005 50.005 0 0 0 2.6355-0.103l17.725-0.93h17.673 19.999a50.005 50.005 0 0 0 2.6355-0.052l17.673-0.93h17.673 19.999a50.005 50.005 0 0 0 2.6355-0.052l17.673-0.982h17.725 18.965a50.005 50.005 0 0 0 2.5321-0.051l18.707-0.93h17.777 19.017a50.005 50.005 0 0 0 2.5839-0.052l17.725-0.93h18.655 19.017a50.005 50.005 0 0 0 2.6355-0.052l17.673-0.93h17.673 19.999a50.005 50.005 0 0 0 2.6355-0.104l17.673-0.93h17.725 19.999a50.005 50.005 0 0 0 2.6355-0.051l17.673-0.931h17.673 19.017a50.005 50.005 0 0 0 2.4805-0.051l18.758-0.93h17.725 19.017a50.005 50.005 0 0 0 2.6355-0.104l17.673-0.93h18.707a50.005 50.005 0 0 0 2.6355-0.052l17.673-0.93h17.673 19.999a50.005 50.005 0 0 0 2.6355-0.103l17.673-0.93h17.673a50.005 50.005 0 0 0 2.6355-0.052l17.725-0.93h18.655a50.005 50.005 0 0 0 2.6355-0.052l17.673-0.93h17.725a50.005 50.005 0 0 0 2.5838-0.103l17.725-0.931h18.655a50.005 50.005 0 0 0 2.6355-0.051l17.673-0.93h17.725a50.005 50.005 0 0 0 2.5839-0.052l17.725-0.93h18.655a50.005 50.005 0 0 0 2.6355-0.104l19.017-0.981 17.673-0.931h18.707a50.005 50.005 0 0 0 2.5838-0.103l17.725-0.93h17.673a50.005 50.005 0 0 0 2.6355-0.052l17.673-0.93h18.707a50.005 50.005 0 0 0 2.6355-0.052l17.673-0.93h17.673a50.005 50.005 0 0 0 2.6355-0.103l17.673-0.93h18.707a50.005 50.005 0 0 0 2.6355-0.052l17.673-0.93h17.673a50.005 50.005 0 0 0 2.6355-0.104l17.673-0.93h18.707a50.005 50.005 0 0 0 2.6355-0.051l17.673-0.931h17.673a50.005 50.005 0 0 0 2.4805-0.051l19.999-0.982a50.005 50.005 0 0 0 0.155 0l17.673-0.982h17.673a50.005 50.005 0 0 0 2.6355-0.052l17.725-0.93h18.655a50.005 50.005 0 0 0 2.6355-0.052l19.017-1.033 17.673-0.93h17.673a50.005 50.005 0 0 0 2.4805-0.052l20.05-0.982a50.005 50.005 0 0 0 0.1034 0l19.017-1.033 17.673-0.93h18.707a50.005 50.005 0 0 0 2.5838-0.052l19.017-0.982 19.017-1.034 18.914-0.981 19.947-0.982a50.005 50.005 0 0 0 0.1033 0l19.017-1.034 19.017-0.982 18.914-0.981 19.947-1.034a50.005 50.005 0 0 0 0.155 0l18.965-0.982 19.017-0.982 18.914-1.033 19.947-0.982a50.005 50.005 0 0 0 0.1551 0l37.93-1.964 19.895-1.033a50.005 50.005 0 0 0 0.155 0l19.017-0.982 18.965-0.982a50.005 50.005 0 0 0 2.6354-0.207l17.622-1.86 18.603-0.93a50.005 50.005 0 0 0 0.155 0l19.017-1.034 37.931-1.964 19.895-1.033a50.005 50.005 0 0 0 2.739-0.207l17.725-1.86 17.673-0.93 18.966-0.982 19.895-1.034a50.005 50.005 0 0 0 0.155 0l19.017-0.981a50.005 50.005 0 0 0 2.584-0.207l17.621-1.861 18.656-0.93a50.005 50.005 0 0 0 0.103 0l19.017-0.982 19.017-1.033 18.913-0.982 19.948-0.982a50.005 50.005 0 0 0 2.738-0.207l17.674-1.86 17.725-0.93 18.913-1.034 19.947-0.981a50.005 50.005 0 0 0 0.155 0l18.966-0.982 19.017-1.034a50.005 50.005 0 0 0 2.583-0.207l17.674-1.808 18.603-0.982a50.005 50.005 0 0 0 0.155 0l37.931-1.964 19.895-0.982a50.005 50.005 0 0 0 0.155 0l19.017-1.033a50.005 50.005 0 0 0 2.584-0.207l17.725-1.86 17.622-0.93 19.895-0.982a50.005 50.005 0 0 0 0.155 0l19.017-1.034a50.005 50.005 0 0 0 2.584-0.206l17.725-1.861 17.622-0.93 19.895-0.982a50.005 50.005 0 0 0 2.739-0.207l17.725-1.86 17.673-0.93a50.005 50.005 0 0 0 2.377-0.155l19.999-2.015a50.005 50.005 0 0 0 0.259-0.052l17.673-1.861 17.725-0.93a50.005 50.005 0 0 0 2.584-0.206l18.862-1.964 19.895-2.015a50.005 50.005 0 0 0 0.258 0l18.966-2.016 19.017-2.015 18.862-1.964 19.895-2.015a50.005 50.005 0 0 0 0.258 0l19.017-2.016 18.966-2.015a50.005 50.005 0 0 0 2.583-0.31l17.57-2.791 18.604-1.86a50.005 50.005 0 0 0 0.258 0l19.017-2.015a50.005 50.005 0 0 0 2.532-0.362l17.622-2.739 18.552-1.86a50.005 50.005 0 0 0 2.842-0.362l19.017-2.997 17.725-2.843 17.673-1.86a50.005 50.005 0 0 0 2.222-0.258l19.999-2.997a50.005 50.005 0 0 0 0.362-0.052l17.725-2.791 17.725-1.86a50.005 50.005 0 0 0 2.532-0.362l18.81-2.945 19.844-2.998a50.005 50.005 0 0 0 0.362-0.051l19.017-2.997 18.965-2.998 17.622-2.79 18.551-1.861a50.005 50.005 0 0 0 2.843-0.361l19.017-2.998 18.81-2.997 19.792-2.945a50.005 50.005 0 0 0 0.362-0.052l38.033-5.994 18.811-2.998 19.792-2.945a50.005 50.005 0 0 0 0.361-0.052l17.726-2.842 17.725-1.86a50.005 50.005 0 0 0 2.583-0.311l18.811-2.997 18.706-2.79 17.932-1.861a50.005 50.005 0 0 0 2.532-0.361l17.725-2.791 17.725-1.86a50.005 50.005 0 0 0 2.171-0.31l18.913-2.843 17.932-1.86 18.965-2.015a50.005 50.005 0 0 0 2.171-0.259l18.913-2.842 17.932-1.86 19.017-2.016 18.862-2.015 19.844-1.964a50.005 50.005 0 0 0 0.258-0.051l19.017-1.964a50.005 50.005 0 0 0 2.584-0.362l17.725-2.79 17.57-1.861 19.843-1.963a50.005 50.005 0 0 0 0.259-0.052l19.017-2.015a50.005 50.005 0 0 0 2.584-0.31l17.57-2.791 18.603-1.86a50.005 50.005 0 0 0 2.791-0.362l19.017-2.997 19.016-2.998 18.811-2.945 19.792-2.997a50.005 50.005 0 0 0 0.362-0.052l38.033-5.995a50.005 50.005 0 0 0 2.481-0.465l17.57-3.72 18.552-2.739a50.005 50.005 0 0 0 2.894-0.569l19.016-3.979 18.966-3.979 19.017-4.031a50.005 50.005 0 0 0 1.808-0.413l19.121-4.754 18.086-3.824a50.005 50.005 0 0 0 2.377-0.569l18.707-4.909 18.811-4.702 18.086-3.825a50.005 50.005 0 0 0 2.429-0.568l18.965-5.013a50.005 50.005 0 0 0 2.377-0.671l17.519-5.53 18.552-4.651a50.005 50.005 0 0 0 0.568-0.155l19.017-4.961a50.005 50.005 0 0 0 2.325-0.671l19.017-5.995 17.519-5.581 18.551-4.599a50.005 50.005 0 0 0 2.894-0.827l19.017-5.994 19.017-6.047 18.655-5.891 19.637-5.891a50.005 50.005 0 0 0 0.672-0.206l19.017-5.995a50.005 50.005 0 0 0 2.222-0.775l17.57-6.46 18.5-5.529a50.005 50.005 0 0 0 0.724-0.207l18.965-6.046a50.005 50.005 0 0 0 2.274-0.723l17.88-6.615 17.88-5.633a50.005 50.005 0 0 0 1.447-0.516l19.999-6.977a50.005 50.005 0 0 0 0.775-0.258l17.88-6.615 17.88-5.632a50.005 50.005 0 0 0 2.222-0.776l18.655-6.873 19.586-6.821a50.005 50.005 0 0 0 0.775-0.31l17.88-6.563 17.88-5.684a50.005 50.005 0 0 0 1.447-0.465l19.999-6.977a50.005 50.005 0 0 0 0.775-0.31l19.017-6.976 19.017-7.028 18.603-6.821 19.637-6.873a50.005 50.005 0 0 0 0.724-0.31l19.017-6.977 19.016-7.028 18.604-6.821 19.637-6.873a50.005 50.005 0 0 0 0.723-0.258l19.017-7.028 19.017-6.977 18.604-6.873 19.637-6.873a50.005 50.005 0 0 0 2.842-1.085l17.983-7.596 17.932-6.615a50.005 50.005 0 0 0 1.292-0.465l19.327-7.751 18.345-6.77a50.005 50.005 0 0 0 2.119-0.827l19.017-8.01 18.603-7.803 19.586-7.855a50.005 50.005 0 0 0 0.827-0.31l19.017-8.009a50.005 50.005 0 0 0 1.963-0.931l18.035-8.526 17.984-7.545a50.005 50.005 0 0 0 1.085-0.517l19.999-8.991a50.005 50.005 0 0 0 0.93-0.414l18.965-8.992a50.005 50.005 0 0 0 1.912-0.93l18.035-9.508 18.087-8.578a50.005 50.005 0 0 0 0.93-0.466l19.999-9.973a50.005 50.005 0 0 0 0.93-0.465l19.017-10.025 18.552-9.767 19.534-9.767a50.005 50.005 0 0 0 2.687-1.447l18.965-11.007 19.017-10.956 18.5-10.748 19.534-10.749a50.005 50.005 0 0 0 0.982-0.517l18.965-11.007a50.005 50.005 0 0 0 1.654-0.982l19.016-11.989 18.501-11.73 19.533-11.679a50.005 50.005 0 0 0 0.982-0.62l18.965-11.989 19.017-11.989 19.017-12.041a50.005 50.005 0 0 0 0.517-0.31l19.999-13.022a50.005 50.005 0 0 0 0.982-0.672l18.241-12.454 18.242-11.524a50.005 50.005 0 0 0 0.569-0.362l19.998-12.97a50.005 50.005 0 0 0 2.378-1.706l18.293-13.435 18.293-12.506 19.017-13.023a50.005 50.005 0 0 0 0.414-0.31l19.999-14.004a50.005 50.005 0 0 0 0.981-0.723l19.017-13.953 19.017-14.004a50.005 50.005 0 0 0 1.292-1.034l17.88-14.108 18.81-13.177a50.005 50.005 0 0 0 3.566-2.687l18.397-15.503 18.345-14.521a50.005 50.005 0 0 0 1.395-1.137l19.947-16.95 18.914-15.916a50.005 50.005 0 0 0 2.17-1.964l18.501-17.467 18.448-16.536a50.005 50.005 0 0 0 1.085-1.034l19.999-18.965a50.005 50.005 0 0 0 0.93-0.93l19.017-18.965 18.965-19.017a50.005 50.005 0 0 0 0.931-0.93l18.965-19.999a50.005 50.005 0 0 0 0.775-0.775l19.999-22.015a50.005 50.005 0 0 0 0.051-0.103l19.017-20.981a50.005 50.005 0 0 0 1.447-1.705l19.017-22.996 18.966-22.944 19.895-23.926a50.005 50.005 0 0 0 1.395-1.757l19.017-24.96 18.604-24.546 19.637-24.495a50.005 50.005 0 0 0 1.292-1.705l19.017-26.045 19.016-25.994a50.005 50.005 0 0 0 0.517-0.723l18.397-26.097 19.327-25.166a50.005 50.005 0 0 0 1.292-1.705l18.707-26.665 18.758-25.632a50.005 50.005 0 0 0 0.517-0.723l18.655-26.51 19.637-26.51a50.005 50.005 0 0 0 0.207-0.259l18.965-25.993 19.017-25.993 18.655-25.528 19.586-25.477a50.005 50.005 0 0 0 0.206-0.258l18.707-24.598 18.294-23.1 19.585-23.564a50.005 50.005 0 0 0 0.155-0.155l18.965-22.996a50.005 50.005 0 0 0 0.672-0.775l18.655-23.616 17.932-21.705 19.224-21.084a50.005 50.005 0 0 0 1.55-1.808l18.965-22.996 19.017-22.996a50.005 50.005 0 0 0 0.672-0.827l18.604-23.513 19.585-23.513a50.005 50.005 0 0 0 0.775-0.981l19.017-23.978a50.005 50.005 0 0 0 0.62-0.775l19.017-25.012a50.005 50.005 0 0 0 0.517-0.775l18.913-25.838 19.896-26.872a50.005 50.005 0 0 0 0.723-0.982l19.017-27.027a50.005 50.005 0 0 0 0.93-1.343l19.017-29.042a50.005 50.005 0 0 0 0.155-0.259l19.999-31.006a50.005 50.005 0 0 0 0.982-1.602l19.017-31.987a50.005 50.005 0 0 0 0.31-0.569l19.017-33.021a50.005 50.005 0 0 0 0.62-1.085l19.017-34.985a50.005 50.005 0 0 0 0-0.103l19.999-37.001a50.005 50.005 0 0 0 0.982-1.86l19.017-39.016a50.005 50.005 0 0 0 0.206-0.413l19.017-39.998a50.005 50.005 0 0 0 0.362-0.878l18.965-41.962 19.999-43.925a50.005 50.005 0 0 0 0.568-1.24l18.966-45.01a50.005 50.005 0 0 0 0.155-0.362l18.913-45.785 19.896-46.715a50.005 50.005 0 0 0 0.465-1.189l19.017-48.007a50.005 50.005 0 0 0 0.103-0.311l19.017-48.989a50.005 50.005 0 0 0 0.103-0.362l18.811-49.402 19.792-48.421a50.005 50.005 0 0 0 0.516-1.447l18.966-50.85 18.913-49.867 18.862-49.61 19.844-49.557a50.005 50.005 0 0 0 0.207-0.517l19.016-48.989 18.966-48.99 18.965-48.834 18.759-47.491 18.861-45.681 18.707-45.166 19.637-43.201a50.005 50.005 0 0 0 0.362-0.879l18.914-43.821 18.81-42.582 18.655-41.186 19.637-40.307a50.005 50.005 0 0 0 0.258-0.466l19.017-39.997 18.862-39.791 18.655-38.344 19.793-38.55a50.005 50.005 0 0 0 0.465-0.879l18.862-38.757 18.913-37.776 18.604-37.31 19.637-36.277a50.005 50.005 0 0 0 0.723-1.447l18.914-37.724 18.758-36.535 19.896-37.775a50.005 50.005 0 0 0 0.206-0.466l19.017-37a50.005 50.005 0 0 0 0.207-0.465l19.017-38.034 18.914-37.775 19.843-38.758a50.005 50.005 0 0 0 0.465-0.93l19.017-38.964a50.005 50.005 0 0 0 0.207-0.465l19.017-39.997a50.005 50.005 0 0 0 0.362-0.827l19.017-41.962 19.947-43.976a50.005 50.005 0 0 0 0.723-1.602l18.965-45.992a50.005 50.005 0 0 0 0.414-1.034l19.017-48.989a50.005 50.005 0 0 0 0.155-0.413l19.999-53.02a50.005 50.005 0 0 0 0.568-1.602l19.017-55.966a50.005 50.005 0 0 0 0.31-0.982l19.017-59.996a50.005 50.005 0 0 0 0.31-1.085l18.965-64.958a50.005 50.005 0 0 0 0.104-0.31l19.998-70.021a50.005 50.005 0 0 0 0.414-1.447l18.965-74.983a50.005 50.005 0 0 0 0.207-0.878l19.017-80.977a50.005 50.005 0 0 0 0.155-0.775l19.017-86.972a50.005 50.005 0 0 0 0.051-0.31l19.999-93.999a50.005 50.005 0 0 0 0.258-1.137l18.966-100.98a50.005 50.005 0 0 0 0.103-0.62l19.017-108a50.005 50.005 0 0 0 0.103-0.62l19.017-117a50.005 50.005 0 0 0 0-0.104l19.999-125a50.005 50.005 0 0 0 0.155-0.827l18.965-133.02a50.005 50.005 0 0 0 0.104-0.413l18.965-140.97 19.999-148a50.005 50.005 0 0 0 0.103-0.568l18.965-154a50.005 50.005 0 0 0 0.052-0.207l18.965-159.01a50.005 50.005 0 0 0 0.052-0.155l18.965-163.87 19.999-165.93a50.005 50.005 0 0 0 0.052-0.362l18.965-168a50.005 50.005 0 0 0 0-0.052l19.017-169.96 18.965-168.88 19.999-168.83a50.005 50.005 0 0 0 0.052-0.258l18.965-167.95 19.017-164.9 18.913-160.66 19.999-155.75a50.005 50.005 0 0 0 0-0.155l19.017-151.88 18.914-144.49 19.947-136.58 18.965-128.73 18.862-119.37 18.862-109.09 19.843-101.23 18.914-92.552 18.862-87.437 18.81-82.114 19.896-78.445a50.005 50.005 0 0 0 0-0.155l19.016-75.912 18.966-74.931a50.005 50.005 0 0 0 0.103-0.31l18.914-76.791 19.947-77.773a50.005 50.005 0 0 0 0.258-0.982l18.965-81.029a50.005 50.005 0 0 0 0.155-0.62l19.017-85.99a50.005 50.005 0 0 0 0-0.051l19.999-91.002a50.005 50.005 0 0 0 0.259-1.241l19.016-97.978a50.005 50.005 0 0 0 0.104-0.775l19.017-107.02a50.005 50.005 0 0 0 0.103-0.672l19.017-115.96a50.005 50.005 0 0 0 0.052-0.362l19.998-128a50.005 50.005 0 0 0 0.155-0.982l19.017-140.04a50.005 50.005 0 0 0 0.052-0.569l19.017-152.96a50.005 50.005 0 0 0 0.052-0.5684l19.017-169.03a50.005 50.005 0 0 0 0-0.1551l19.998-184.02a50.005 50.005 0 0 0 0.052-0.6717l19.017-199.99a50.005 50.005 0 0 0 0.052-0.2584l18.965-212.03 19.999-224.02a50.005 50.005 0 0 0 0.051-0.4134l19.017-234.97a50.005 50.005 0 0 0 0-0.155l19.017-242.98a50.005 50.005 0 0 0 0-0.1551l18.965-250.94 19.999-255.9a50.005 50.005 0 0 0 0-0.2584l19.017-260.04 19.017-263.03 18.965-263.91 19.999-263.91a50.005 50.005 0 0 0 0-0.1551l19.017-261.95 19.017-257.97 18.965-252.8 19.999-246.86a50.005 50.005 0 0 0 0-0.0517l18.965-238.95 8.475-102.01 8.372-100.77 0.103-0.9819a50 50 0 0 0-45.682-53.95 50 50 0 0 0-6.563-0.1033z" fill="url(#d)" stop-color="#000000" stroke-dasharray="1, 199" stroke-linecap="round"/><text class="SVGTextShape" transform="rotate(.1)" x="-277.71124" y="-101.35302"><tspan class="TextParagraph"><tspan class="TextPosition" x="2123.2888" y="21339.646"><tspan fill="#ffffff" font-family="FreeSans, sans-serif" font-size="706px" font-weight="400" style="white-space:pre">2⁰</tspan></tspan></tspan></text><text class="SVGTextShape" transform="rotate(.1)" x="-277.95218" y="-106.31367"><tspan class="TextParagraph"><tspan class="TextPosition" x="4435.0479" y="21334.686"><tspan fill="#ffffff" font-family="FreeSans, sans-serif" font-size="706px" font-weight="400" style="white-space:pre">2⁶</tspan></tspan></tspan></text><text class="SVGTextShape" transform="rotate(.1)" x="-315.28455" y="-195.94714"><tspan class="TextParagraph"><tspan class="TextPosition" x="6541.7153" y="21413.053"><tspan fill="#ffffff" font-family="FreeSans, sans-serif" font-size="706px" font-weight="400" style="white-space:pre">2¹²</tspan></tspan></tspan></text><text class="SVGTextShape" transform="rotate(.1)" x="-313.95609" y="-201.70372"><tspan class="TextParagraph"><tspan class="TextPosition" x="8855.0439" y="21407.297"><tspan fill="#ffffff" font-family="FreeSans, sans-serif" font-size="706px" font-weight="400" style="white-space:pre">2¹⁸</tspan></tspan></tspan></text><text class="SVGTextShape" transform="rotate(.1)" x="-314.65945" y="-206.03387"><tspan class="TextParagraph"><tspan class="TextPosition" x="11166.341" y="21402.967"><tspan fill="#ffffff" font-family="FreeSans, sans-serif" font-size="706px" font-weight="400" style="white-space:pre">2²⁴</tspan></tspan></tspan></text><text class="SVGTextShape" transform="rotate(.1)" x="-313.62238" y="-208.5992"><tspan class="TextParagraph"><tspan class="TextPosition" x="13479.378" y="21400.4"><tspan fill="#ffffff" font-family="FreeSans, sans-serif" font-size="706px" font-weight="400" style="white-space:pre">2³⁰</tspan></tspan></tspan></text><text class="SVGTextShape" transform="rotate(.1)" x="-313.86331" y="-213.55811"><tspan class="TextParagraph"><tspan class="TextPosition" x="15790.137" y="21395.441"><tspan fill="#ffffff" font-family="FreeSans, sans-serif" font-size="706px" font-weight="400" style="white-space:pre">2³⁶</tspan></tspan></tspan></text><text class="SVGTextShape" transform="rotate(.1)" x="-315.30215" y="-216.12314"><tspan class="TextParagraph"><tspan class="TextPosition" x="18101.697" y="21392.877"><tspan fill="#ffffff" font-family="FreeSans, sans-serif" font-size="706px" font-weight="400" style="white-space:pre">2⁴²</tspan></tspan></tspan></text><text class="SVGTextShape" transform="rotate(.1)" x="-313.97369" y="-221.87971"><tspan class="TextParagraph"><tspan class="TextPosition" x="20415.025" y="21387.121"><tspan fill="#ffffff" font-family="FreeSans, sans-serif" font-size="706px" font-weight="400" style="white-space:pre">2⁴⁸</tspan></tspan></tspan></text><text class="SVGTextShape" transform="rotate(.1)" x="-314.67706" y="-226.20987"><tspan class="TextParagraph"><tspan class="TextPosition" x="22726.322" y="21382.791"><tspan fill="#ffffff" font-family="FreeSans, sans-serif" font-size="706px" font-weight="400" style="white-space:pre">2⁵⁴</tspan></tspan></tspan></text><text class="SVGTextShape" transform="rotate(.1)" x="-313.63998" y="-228.77519"><tspan class="TextParagraph"><tspan class="TextPosition" x="25039.359" y="21380.225"><tspan fill="#ffffff" font-family="FreeSans, sans-serif" font-size="706px" font-weight="400" style="white-space:pre">2⁶⁰</tspan></tspan></tspan></text><text class="SVGTextShape" transform="rotate(.1)" x="860.34674" y="-232.31277"><tspan class="TextParagraph"><tspan class="TextPosition" x="27369.348" y="21376.688"><tspan fill="#ffffff" font-family="FreeSans, sans-serif" font-size="706px" font-weight="400" style="white-space:pre">2⁶⁴</tspan></tspan></tspan></text><text class="SVGTextShape"><tspan class="TextParagraph"><tspan class="TextPosition" x="2153" y="20502"><tspan fill="rgb(255,255,255)" font-family="FreeSans, sans-serif" font-size="564px" font-weight="400" style="white-space:pre">0</tspan></tspan></tspan></text><text class="SVGTextShape" x="-112.80042"><tspan class="TextParagraph"><tspan class="TextPosition" x="1114.1996" y="18103"><tspan fill="#ffffff" font-family="FreeSans, sans-serif" font-size="564px" font-weight="400" style="white-space:pre">3'500</tspan></tspan></tspan></text><text class="SVGTextShape" x="-112.80042"><tspan class="TextParagraph"><tspan class="TextPosition" x="1114.1996" y="15704"><tspan fill="#ffffff" font-family="FreeSans, sans-serif" font-size="564px" font-weight="400" style="white-space:pre">7'000</tspan></tspan></tspan></text><text class="SVGTextShape" x="-112.80042"><tspan class="TextParagraph"><tspan class="TextPosition" x="796.19958" y="13305"><tspan fill="#ffffff" font-family="FreeSans, sans-serif" font-size="564px" font-weight="400" style="white-space:pre">10'500</tspan></tspan></tspan></text><text class="SVGTextShape" x="-112.80042"><tspan class="TextParagraph"><tspan class="TextPosition" x="796.19958" y="10907"><tspan fill="#ffffff" font-family="FreeSans, sans-serif" font-size="564px" font-weight="400" style="white-space:pre">14'000</tspan></tspan></tspan></text><text class="SVGTextShape" x="-112.80042"><tspan class="TextParagraph"><tspan class="TextPosition" x="796.19958" y="8508"><tspan fill="#ffffff" font-family="FreeSans, sans-serif" font-size="564px" font-weight="400" style="white-space:pre">17'500</tspan></tspan></tspan></text><text class="SVGTextShape" x="-112.80042"><tspan class="TextParagraph"><tspan class="TextPosition" x="796.19958" y="6109"><tspan fill="#ffffff" font-family="FreeSans, sans-serif" font-size="564px" font-weight="400" style="white-space:pre">21'000</tspan></tspan></tspan></text><text class="SVGTextShape" x="-112.80042"><tspan class="TextParagraph"><tspan class="TextPosition" x="796.19958" y="3710"><tspan fill="#ffffff" font-family="FreeSans, sans-serif" font-size="564px" font-weight="400" style="white-space:pre">24'500</tspan></tspan></tspan></text><text class="SVGTextShape" x="-87.384148" y="-201.18243"><tspan class="TextParagraph"><tspan class="TextPosition" x="747.61584" y="1448.8175"><tspan fill="#ffffff" font-family="FreeSans, sans-serif" font-size="847px" font-weight="600" style="white-space:pre">Prime decomposition</tspan></tspan></tspan></text><text class="SVGTextShape" x="-8568.3936" y="133.50105"><tspan class="TextParagraph"><tspan class="TextPosition" x="15668.606" y="1431.5011"><tspan fill="#ffffff" font-family="FreeSans, sans-serif" font-size="564px" font-weight="400" style="white-space:pre">Trial division</tspan></tspan></tspan></text><text class="SVGTextShape" x="-590.4975" y="-253.90825" fill="#808080"><tspan class="TextParagraph" fill="#808080"><tspan class="TextPosition" x="27696.504" y="20529.092" fill="#808080"><tspan fill="#808080" font-family="FreeSans, sans-serif" font-size="564px" font-weight="400" style="white-space:pre">Bits</tspan></tspan></tspan></text><text class="SVGTextShape" x="-14.744194" y="-197.88437" fill="#7f7f7f"><tspan class="TextParagraph" fill="#7f7f7f"><tspan class="TextPosition" x="770.25586" y="2484.1157" fill="#7f7f7f"><tspan fill="#7f7f7f" font-family="FreeSans, sans-serif" font-size="564px" font-weight="400" style="white-space:pre">Nanoseconds</tspan></tspan></tspan></text><text x="23737.51" y="1431.6578" fill="#ffffff" font-family="FreeSans" font-size="564.44px" stroke-dasharray="1, 199" stroke-linecap="round" stroke-linejoin="round" stroke-width="100" style="line-height:1" xml:space="preserve"><tspan x="23737.51" y="1431.6578" stroke-width="100" style="line-height:1">Pollard &amp; Brent</tspan></text><rect x="14886" y="982.41" width="500" height="500" fill="url(#c)"/><rect x="22983" y="982.41" width="500" height="500" fill="url(#a)"/></svg>
