<svg width="300mm" height="225mm" stroke-linejoin="round" stroke-width="28.222" version="1.1" viewBox="0 0 3e4 22500" xmlns="http://www.w3.org/2000/svg" xmlns:xlink="http://www.w3.org/1999/xlink"><defs><linearGradient id="a" x1="2163" x2="27916" y1="18864" y2="4508" gradientUnits="userSpaceOnUse"><stop stop-color="#00fed5" offset="0"/><stop stop-color="#01ff2b" offset="1"/></linearGradient></defs><path d="m15000 22500h-15000v-22500h3e4v22500z"/><path d="m27816 17885h-25553" fill="none" stroke="#333" stroke-dasharray="151,200" stroke-linecap="round" stroke-linejoin="round" stroke-width="50"/><path d="m27816 15552h-25553" fill="none" stroke="#333" stroke-dasharray="151,200" stroke-linecap="round" stroke-linejoin="round" stroke-width="50"/><path d="m27816 13218h-25553" fill="none" stroke="#333" stroke-dasharray="151,200" stroke-linecap="round" stroke-linejoin="round" stroke-width="50"/><path d="m27816 10886h-25553" fill="none" stroke="#333" stroke-dasharray="151,200" stroke-linecap="round" stroke-linejoin="round" stroke-width="50"/><path d="m27816 8552h-25553" fill="none" stroke="#333" stroke-dasharray="151,200" stroke-linecap="round" stroke-linejoin="round" stroke-width="50"/><path d="m27816 6219h-25553" fill="none" stroke="#333" stroke-dasharray="151,200" stroke-linecap="round" stroke-linejoin="round" stroke-width="50"/><path d="m27816 3886h-25553" fill="none" stroke="#333" stroke-dasharray="151,200" stroke-linecap="round" stroke-linejoin="round" stroke-width="50"/><path d="m2263 20369v-150" fill="none" stroke="#333" stroke-linejoin="round" stroke-width="100"/><path d="m2263 20369v-150" fill="none" stroke="#333" stroke-linejoin="round" stroke-width="100"/><path d="m2662 20369v-150" fill="none" stroke="#333" stroke-linejoin="round" stroke-width="100"/><path d="m2662 20369v-150" fill="none" stroke="#333" stroke-linejoin="round" stroke-width="100"/><path d="m3061 20369v-150" fill="none" stroke="#333" stroke-linejoin="round" stroke-width="100"/><path d="m3061 20369v-150" fill="none" stroke="#333" stroke-linejoin="round" stroke-width="100"/><path d="m3460 20369v-150" fill="none" stroke="#333" stroke-linejoin="round" stroke-width="100"/><path d="m3460 20369v-150" fill="none" stroke="#333" stroke-linejoin="round" stroke-width="100"/><path d="m3860 20369v-150" fill="none" stroke="#333" stroke-linejoin="round" stroke-width="100"/><path d="m3860 20369v-150" fill="none" stroke="#333" stroke-linejoin="round" stroke-width="100"/><path d="m4259 20369v-150" fill="none" stroke="#333" stroke-linejoin="round" stroke-width="100"/><path d="m4259 20369v-150" fill="none" stroke="#333" stroke-linejoin="round" stroke-width="100"/><path d="m4658 20369v-150" fill="none" stroke="#333" stroke-linejoin="round" stroke-width="100"/><path d="m4658 20369v-150" fill="none" stroke="#333" stroke-linejoin="round" stroke-width="100"/><path d="m5057 20369v-150" fill="none" stroke="#333" stroke-linejoin="round" stroke-width="100"/><path d="m5057 20369v-150" fill="none" stroke="#333" stroke-linejoin="round" stroke-width="100"/><path d="m5457 20369v-150" fill="none" stroke="#333" stroke-linejoin="round" stroke-width="100"/><path d="m5457 20369v-150" fill="none" stroke="#333" stroke-linejoin="round" stroke-width="100"/><path d="m5856 20369v-150" fill="none" stroke="#333" stroke-linejoin="round" stroke-width="100"/><path d="m5856 20369v-150" fill="none" stroke="#333" stroke-linejoin="round" stroke-width="100"/><path d="m6255 20369v-150" fill="none" stroke="#333" stroke-linejoin="round" stroke-width="100"/><path d="m6255 20369v-150" fill="none" stroke="#333" stroke-linejoin="round" stroke-width="100"/><path d="m6655 20369v-150" fill="none" stroke="#333" stroke-linejoin="round" stroke-width="100"/><path d="m6655 20369v-150" fill="none" stroke="#333" stroke-linejoin="round" stroke-width="100"/><path d="m7054 20369v-150" fill="none" stroke="#333" stroke-linejoin="round" stroke-width="100"/><path d="m7054 20369v-150" fill="none" stroke="#333" stroke-linejoin="round" stroke-width="100"/><path d="m7453 20369v-150" fill="none" stroke="#333" stroke-linejoin="round" stroke-width="100"/><path d="m7453 20369v-150" fill="none" stroke="#333" stroke-linejoin="round" stroke-width="100"/><path d="m7852 20369v-150" fill="none" stroke="#333" stroke-linejoin="round" stroke-width="100"/><path d="m7852 20369v-150" fill="none" stroke="#333" stroke-linejoin="round" stroke-width="100"/><path d="m8252 20369v-150" fill="none" stroke="#333" stroke-linejoin="round" stroke-width="100"/><path d="m8252 20369v-150" fill="none" stroke="#333" stroke-linejoin="round" stroke-width="100"/><path d="m8651 20369v-150" fill="none" stroke="#333" stroke-linejoin="round" stroke-width="100"/><path d="m8651 20369v-150" fill="none" stroke="#333" stroke-linejoin="round" stroke-width="100"/><path d="m9050 20369v-150" fill="none" stroke="#333" stroke-linejoin="round" stroke-width="100"/><path d="m9050 20369v-150" fill="none" stroke="#333" stroke-linejoin="round" stroke-width="100"/><path d="m9450 20369v-150" fill="none" stroke="#333" stroke-linejoin="round" stroke-width="100"/><path d="m9450 20369v-150" fill="none" stroke="#333" stroke-linejoin="round" stroke-width="100"/><path d="m9849 20369v-150" fill="none" stroke="#333" stroke-linejoin="round" stroke-width="100"/><path d="m9849 20369v-150" fill="none" stroke="#333" stroke-linejoin="round" stroke-width="100"/><path d="m10248 20369v-150" fill="none" stroke="#333" stroke-linejoin="round" stroke-width="100"/><path d="m10248 20369v-150" fill="none" stroke="#333" stroke-linejoin="round" stroke-width="100"/><path d="m10647 20369v-150" fill="none" stroke="#333" stroke-linejoin="round" stroke-width="100"/><path d="m10647 20369v-150" fill="none" stroke="#333" stroke-linejoin="round" stroke-width="100"/><path d="m11047 20369v-150" fill="none" stroke="#333" stroke-linejoin="round" stroke-width="100"/><path d="m11047 20369v-150" fill="none" stroke="#333" stroke-linejoin="round" stroke-width="100"/><path d="m11446 20369v-150" fill="none" stroke="#333" stroke-linejoin="round" stroke-width="100"/><path d="m11446 20369v-150" fill="none" stroke="#333" stroke-linejoin="round" stroke-width="100"/><path d="m11845 20369v-150" fill="none" stroke="#333" stroke-linejoin="round" stroke-width="100"/><path d="m11845 20369v-150" fill="none" stroke="#333" stroke-linejoin="round" stroke-width="100"/><path d="m12245 20369v-150" fill="none" stroke="#333" stroke-linejoin="round" stroke-width="100"/><path d="m12245 20369v-150" fill="none" stroke="#333" stroke-linejoin="round" stroke-width="100"/><path d="m12644 20369v-150" fill="none" stroke="#333" stroke-linejoin="round" stroke-width="100"/><path d="m12644 20369v-150" fill="none" stroke="#333" stroke-linejoin="round" stroke-width="100"/><path d="m13043 20369v-150" fill="none" stroke="#333" stroke-linejoin="round" stroke-width="100"/><path d="m13043 20369v-150" fill="none" stroke="#333" stroke-linejoin="round" stroke-width="100"/><path d="m13442 20369v-150" fill="none" stroke="#333" stroke-linejoin="round" stroke-width="100"/><path d="m13442 20369v-150" fill="none" stroke="#333" stroke-linejoin="round" stroke-width="100"/><path d="m13842 20369v-150" fill="none" stroke="#333" stroke-linejoin="round" stroke-width="100"/><path d="m13842 20369v-150" fill="none" stroke="#333" stroke-linejoin="round" stroke-width="100"/><path d="m14241 20369v-150" fill="none" stroke="#333" stroke-linejoin="round" stroke-width="100"/><path d="m14241 20369v-150" fill="none" stroke="#333" stroke-linejoin="round" stroke-width="100"/><path d="m14640 20369v-150" fill="none" stroke="#333" stroke-linejoin="round" stroke-width="100"/><path d="m14640 20369v-150" fill="none" stroke="#333" stroke-linejoin="round" stroke-width="100"/><path d="m15039 20369v-150" fill="none" stroke="#333" stroke-linejoin="round" stroke-width="100"/><path d="m15039 20369v-150" fill="none" stroke="#333" stroke-linejoin="round" stroke-width="100"/><path d="m15438 20369v-150" fill="none" stroke="#333" stroke-linejoin="round" stroke-width="100"/><path d="m15438 20369v-150" fill="none" stroke="#333" stroke-linejoin="round" stroke-width="100"/><path d="m15837 20369v-150" fill="none" stroke="#333" stroke-linejoin="round" stroke-width="100"/><path d="m15837 20369v-150" fill="none" stroke="#333" stroke-linejoin="round" stroke-width="100"/><path d="m16236 20369v-150" fill="none" stroke="#333" stroke-linejoin="round" stroke-width="100"/><path d="m16236 20369v-150" fill="none" stroke="#333" stroke-linejoin="round" stroke-width="100"/><path d="m16636 20369v-150" fill="none" stroke="#333" stroke-linejoin="round" stroke-width="100"/><path d="m16636 20369v-150" fill="none" stroke="#333" stroke-linejoin="round" stroke-width="100"/><path d="m17035 20369v-150" fill="none" stroke="#333" stroke-linejoin="round" stroke-width="100"/><path d="m17035 20369v-150" fill="none" stroke="#333" stroke-linejoin="round" stroke-width="100"/><path d="m17434 20369v-150" fill="none" stroke="#333" stroke-linejoin="round" stroke-width="100"/><path d="m17434 20369v-150" fill="none" stroke="#333" stroke-linejoin="round" stroke-width="100"/><path d="m17833 20369v-150" fill="none" stroke="#333" stroke-linejoin="round" stroke-width="100"/><path d="m17833 20369v-150" fill="none" stroke="#333" stroke-linejoin="round" stroke-width="100"/><path d="m18233 20369v-150" fill="none" stroke="#333" stroke-linejoin="round" stroke-width="100"/><path d="m18233 20369v-150" fill="none" stroke="#333" stroke-linejoin="round" stroke-width="100"/><path d="m18632 20369v-150" fill="none" stroke="#333" stroke-linejoin="round" stroke-width="100"/><path d="m18632 20369v-150" fill="none" stroke="#333" stroke-linejoin="round" stroke-width="100"/><path d="m19031 20369v-150" fill="none" stroke="#333" stroke-linejoin="round" stroke-width="100"/><path d="m19031 20369v-150" fill="none" stroke="#333" stroke-linejoin="round" stroke-width="100"/><path d="m19431 20369v-150" fill="none" stroke="#333" stroke-linejoin="round" stroke-width="100"/><path d="m19431 20369v-150" fill="none" stroke="#333" stroke-linejoin="round" stroke-width="100"/><path d="m19830 20369v-150" fill="none" stroke="#333" stroke-linejoin="round" stroke-width="100"/><path d="m19830 20369v-150" fill="none" stroke="#333" stroke-linejoin="round" stroke-width="100"/><path d="m20229 20369v-150" fill="none" stroke="#333" stroke-linejoin="round" stroke-width="100"/><path d="m20229 20369v-150" fill="none" stroke="#333" stroke-linejoin="round" stroke-width="100"/><path d="m20628 20369v-150" fill="none" stroke="#333" stroke-linejoin="round" stroke-width="100"/><path d="m20628 20369v-150" fill="none" stroke="#333" stroke-linejoin="round" stroke-width="100"/><path d="m21028 20369v-150" fill="none" stroke="#333" stroke-linejoin="round" stroke-width="100"/><path d="m21028 20369v-150" fill="none" stroke="#333" stroke-linejoin="round" stroke-width="100"/><path d="m21427 20369v-150" fill="none" stroke="#333" stroke-linejoin="round" stroke-width="100"/><path d="m21427 20369v-150" fill="none" stroke="#333" stroke-linejoin="round" stroke-width="100"/><path d="m21826 20369v-150" fill="none" stroke="#333" stroke-linejoin="round" stroke-width="100"/><path d="m21826 20369v-150" fill="none" stroke="#333" stroke-linejoin="round" stroke-width="100"/><path d="m22226 20369v-150" fill="none" stroke="#333" stroke-linejoin="round" stroke-width="100"/><path d="m22226 20369v-150" fill="none" stroke="#333" stroke-linejoin="round" stroke-width="100"/><path d="m22625 20369v-150" fill="none" stroke="#333" stroke-linejoin="round" stroke-width="100"/><path d="m22625 20369v-150" fill="none" stroke="#333" stroke-linejoin="round" stroke-width="100"/><path d="m23024 20369v-150" fill="none" stroke="#333" stroke-linejoin="round" stroke-width="100"/><path d="m23024 20369v-150" fill="none" stroke="#333" stroke-linejoin="round" stroke-width="100"/><path d="m23423 20369v-150" fill="none" stroke="#333" stroke-linejoin="round" stroke-width="100"/><path d="m23423 20369v-150" fill="none" stroke="#333" stroke-linejoin="round" stroke-width="100"/><path d="m23823 20369v-150" fill="none" stroke="#333" stroke-linejoin="round" stroke-width="100"/><path d="m23823 20369v-150" fill="none" stroke="#333" stroke-linejoin="round" stroke-width="100"/><path d="m24222 20369v-150" fill="none" stroke="#333" stroke-linejoin="round" stroke-width="100"/><path d="m24222 20369v-150" fill="none" stroke="#333" stroke-linejoin="round" stroke-width="100"/><path d="m24621 20369v-150" fill="none" stroke="#333" stroke-linejoin="round" stroke-width="100"/><path d="m24621 20369v-150" fill="none" stroke="#333" stroke-linejoin="round" stroke-width="100"/><path d="m25021 20369v-150" fill="none" stroke="#333" stroke-linejoin="round" stroke-width="100"/><path d="m25021 20369v-150" fill="none" stroke="#333" stroke-linejoin="round" stroke-width="100"/><path d="m25420 20369v-150" fill="none" stroke="#333" stroke-linejoin="round" stroke-width="100"/><path d="m25420 20369v-150" fill="none" stroke="#333" stroke-linejoin="round" stroke-width="100"/><path d="m25819 20369v-150" fill="none" stroke="#333" stroke-linejoin="round" stroke-width="100"/><path d="m25819 20369v-150" fill="none" stroke="#333" stroke-linejoin="round" stroke-width="100"/><path d="m26218 20369v-150" fill="none" stroke="#333" stroke-linejoin="round" stroke-width="100"/><path d="m26218 20369v-150" fill="none" stroke="#333" stroke-linejoin="round" stroke-width="100"/><path d="m26618 20369v-150" fill="none" stroke="#333" stroke-linejoin="round" stroke-width="100"/><path d="m26618 20369v-150" fill="none" stroke="#333" stroke-linejoin="round" stroke-width="100"/><path d="m27017 20369v-150" fill="none" stroke="#333" stroke-linejoin="round" stroke-width="100"/><path d="m27017 20369v-150" fill="none" stroke="#333" stroke-linejoin="round" stroke-width="100"/><path d="m27416 20369v-150" fill="none" stroke="#333" stroke-linejoin="round" stroke-width="100"/><path d="m27416 20369v-150" fill="none" stroke="#333" stroke-linejoin="round" stroke-width="100"/><path d="m27816 20369v-150" fill="none" stroke="#333" stroke-linejoin="round" stroke-width="100"/><path d="m27816 20369v-150" fill="none" stroke="#333" stroke-linejoin="round" stroke-width="100"/><path d="m2263 20219h25553" fill="none" stroke="#333" stroke-linecap="round" stroke-linejoin="round" stroke-width="100"/><path d="m2263 17885 19 41 40 80 20 39 40 74 20 35 20 33 20 32 20 29 20 26 20 23 20 21 20 17 20 13 20 10 20 5 20 1 20-4 20-8 20-14 20-18 20-22 20-25 20-29 20-30 20-31 19-33 20-33 40-64 20-30 20-28 20-24 20-22 20-17 20-13 20-8 20-2 20 5 20 12 20 18 20 24 20 29 20 34 20 38 20 42 20 44 20 47 20 48 20 49 20 50 40 98 20 47 19 45 20 43 20 39 20 35 20 31 20 26 20 21 20 15 20 10 20 5 20-2 20-7 20-13 20-20 20-25 20-32 20-39 20-45 20-52 20-59 20-66 20-73 20-80 20-88 20-96 20-103 20-110 20-116 19-121 20-126 20-130 20-133 20-136 20-137 40-276 20-137 20-135 20-134 20-130 20-127 20-122 20-117 20-111 20-103 20-97 20-89 20-82 20-75 20-68 20-62 20-55 20-50 20-44 20-38 20-33 19-28 20-24 20-18 20-15 20-10 20-6 20-2h20l20 4 20 7 20 10 20 12 20 13 20 15 100 85 20 16 20 15 20 13 20 12 20 9 20 7 20 4h20l20-3 19-8 20-12 20-15 20-20 20-23 20-25 20-28 20-30 20-31 20-32 40-66 40-64 20-31 20-29 20-27 20-25 20-22 20-18 20-15 20-11 20-7 20-3 20-1 20 3 20 6 19 8 20 9 20 12 20 13 20 14 20 15 20 16 20 15 20 16 40 30 20 13 20 12 20 11 20 8 20 7 20 5 20 3 20 2h20l20-1 20-3 20-4 20-5 20-6 40-16 20-9 19-11 20-10 40-24 40-26 200-140 20-13 60-36 40-20 20-9 40-16 20-6 20-5 20-4 19-2 20-3 20-1h20l20-1 40 2h20l20 2 80 4h20 20 20l60-6 40-8 40-10 40-12 60-21 19-7 20-8 40-14 20-8 20-6 20-7 60-18 20-4 20-5 20-3 20-4 60-6 20-1h20 20 20l20 1 40 4 60 9 20 5 19 4 20 5 60 18 20 7 20 6 40 14 20 6 20 7 40 12 40 10 40 8 20 3 20 2 20 1h20l20-1 20-2 20-3 40-10 40-12 19-8 40-16 100-45 20-10 40-18 60-24 20-6 20-7 20-5 20-6 20-4 20-5 20-3 20-4 40-6 60-6 19-1 20-2 220-11 40-4 60-9 20-5 20-4 60-18 40-16 40-20 20-12 19-12 20-13 40-28 20-15 80-64 20-17 20-16 20-17 60-48 40-30 20-14 20-13 40-24 40-22 60-27 20-8 20-7 19-7 20-7 60-18 20-5 20-6 40-10 20-4 160-40 40-12 20-5 20-7 20-6 60-21 40-16 19-9 20-9 60-30 60-33 20-12 20-11 20-12 20-11 20-12 60-33 40-20 20-9 60-24 40-12 60-12 20-3 19-3 20-2 20-3 40-4 60-9 40-8 20-5 40-12 20-8 20-9 20-10 20-11 20-12 40-26 20-14 40-30 20-16 20-15 40-32 20-15 19-15 20-15 40-28 40-24 20-11 20-10 20-9 60-21 60-15 40-8 20-3 20-4 20-3 20-4 20-3 60-12 20-5 20-6 19-6 40-14 100-40 20-9 40-16 20-7 20-8 20-7 40-12 20-4 20-5 20-3 20-2 20-1h20 20l20 1 80 8 19 2 60 3h20l20-1 20-2 20-4 20-5 20-6 20-8 20-9 20-12 20-13 20-15 20-17 20-18 40-38 60-63 60-66 40-42 39-39 20-18 20-17 20-16 20-14 20-13 20-12 20-10 20-9 20-8 40-14 60-15 60-12 20-3 80-16 40-10 40-12 20-7 19-7 20-7 20-8 20-7 40-16 20-9 100-40 20-7 20-8 40-14 60-18 80-20 100-20 19-4 20-3 20-4 20-3 20-4 20-3 40-8 20-3 20-4 20-5 20-4 40-10 40-12 20-7 20-8 40-18 20-10 20-11 40-26 20-15 19-16 20-17 20-18 19-20 40-44 20-24 20-25 20-26 40-54 60-87 40-60 40-62 20-29 40-62 20-30 20-31 20-29 20-30 20-28 20-29 60-81 19-25 40-48 20-23 40-42 20-19 20-18 20-17 20-15 20-14 20-12 20-11 20-10 40-14 20-6 20-5 60-12 20-3 40-8 40-10 40-14 19-9 20-11 20-12 20-14 20-16 20-19 20-20 40-46 120-150 20-23 20-21 20-20 20-18 20-16 20-12 20-10 20-6 20-2 20 2 20 6 20 10 20 14 19 17 20 19 20 21 40 46 20 25 40 48 40 44 20 19 20 17 20 14 20 10 20 7 20 2 20-3 20-9 20-13 20-18 20-22 20-26 20-30 20-32 20-35 20-38 20-39 20-40 19-42 20-42 20-43 20-42 40-82 20-39 20-37 20-35 20-33 20-30 20-27 20-25 20-23 20-20 20-18 20-16 20-15 20-12 20-10 20-8 20-7 20-5 20-3 20-2h20l20 1 20 2 19 3 20 5 40 12 20 7 100 40 20 7 20 8 40 12 20 5 20 3 20 2 20 1h20l20-3 20-5 20-6 20-9 20-10 20-11 20-13 20-14 19-14 20-15 20-16 80-60 40-26 20-11 20-10 20-8 20-6 20-4 20-2h20l20 2 40 8 20 5 20 6 20 5 20 6 40 8 20 2 20 1 20-2 19-4 20-6 20-9 20-13 20-17 20-20 20-25 20-28 20-32 20-35 20-36 20-39 40-80 20-41 20-40 20-39 20-38 20-36 20-33 20-30 20-27 20-23 20-18 20-13 20-7 20-1 20 4 19 10 20 14 20 17 20 21 20 24 20 26 20 27 40 56 20 29 20 27 20 26 20 24 20 22 20 18 20 15 20 10 20 5h20l20-5 20-9 20-13 20-16 20-20 20-21 20-23 20-24 20-25 19-24 20-24 20-23 20-21 20-19 20-17 20-13 20-9 20-4h20l20 6 20 10 20 15 20 18 20 21 20 22 20 24 20 25 20 24 20 23 20 22 20 20 20 17 20 12 20 9 20 3 20-2 20-9 19-16 20-25 20-32 20-41 20-48 20-54 20-60 20-65 20-70 20-73 20-76 20-78 20-79 60-240 20-77 20-76 20-72 20-69 20-65 20-59 20-53 20-48 20-43 20-38 20-33 20-29 19-24 20-21 20-18 20-14 20-11 20-9 20-7 20-5 20-3 20-2h20 20 20l20 1h20l20 1h20 20 20l20-1h20 20l40-2h20l40-2 19-1 20-1h20l100-5h20l40-2 60-6 40-6 40-10 20-6 20-7 20-8 20-9 20-10 20-12 20-13 20-15 20-16 20-18 39-39 60-66 40-46 40-44 20-21 20-20 20-19 20-18 20-16 20-13 20-12 20-9 20-7 20-3 20-1 20 3 20 5 20 7 20 9 20 10 40 24 20 13 19 14 40 26 20 12 20 11 20 10 20 8 20 6 20 3 20 1 20-2 20-6 20-8 20-11 20-14 20-16 20-18 20-20 20-21 60-69 60-72 40-46 20-21 19-20 20-18 20-17 20-14 20-12 20-10 20-9 20-7 20-6 20-5 20-4 40-6 100-10 20-3 40-8 20-6 20-7 20-8 20-9 20-11 20-12 20-13 19-14 20-15 20-16 40-34 40-36 20-20 20-19 100-100 20-21 40-40 60-57 20-18 20-17 20-16 40-30 20-13 20-12 20-10 19-10 20-7 20-6 20-5 20-2 20-1 20 2 20 3 20 6 20 7 20 9 20 10 40 22 100 65 40 24 20 11 40 18 20 7 20 5 20 3 19 1 20-1 20-3 20-6 20-7 20-10 20-12 20-14 20-16 20-18 20-20 20-22 20-25 20-26 20-29 20-30 20-33 20-35 20-37 20-38 20-41 20-43 40-88 20-46 60-135 19-44 20-43 20-41 20-39 20-36 20-34 20-31 20-27 20-24 20-19 20-15 20-10 20-4h20l20 4 20 8 20 12 20 14 20 15 40 36 40 38 40 36 20 15 20 13 20 11 19 7 20 3 20-1 20-6 20-12 20-16 20-21 20-25 20-28 20-31 20-34 20-36 40-76 20-39 20-40 20-39 20-38 20-36 20-35 20-33 20-30 20-26 20-23 20-19 20-14 20-11 20-8 19-4 20-2 20 1 20 3 20 6 20 7 20 8 20 9 100 55 20 10 20 9 20 8 20 7 20 6 20 4 40 6 60 3h20 20 20 20 19 20l40 2 20 2 20 3 20 4 20 5 20 6 20 7 40 18 20 10 40 24 20 13 40 28 20 15 40 32 20 17 20 16 20 18 20 17 40 36 20 17" fill="none" stroke="url(#a)" stroke-linecap="round" stroke-linejoin="round" stroke-width="200"/><text class="SVGTextShape" transform="rotate(.1)" x="-277.89032" y="-100.58841"><tspan class="TextParagraph"><tspan class="TextPosition" x="1685.1096" y="21237.412"><tspan fill="#ffffff" font-family="FreeSans, sans-serif" font-size="706px" font-weight="400" style="white-space:pre">2⁰</tspan></tspan></tspan></text><text class="SVGTextShape" transform="rotate(.1)" x="-278.13141" y="-105.69392"><tspan class="TextParagraph"><tspan class="TextPosition" x="4079.8687" y="21232.307"><tspan fill="#ffffff" font-family="FreeSans, sans-serif" font-size="706px" font-weight="400" style="white-space:pre">2⁶</tspan></tspan></tspan></text><text class="SVGTextShape" transform="rotate(.1)" x="-315.44992" y="-195.46005"><tspan class="TextParagraph"><tspan class="TextPosition" x="6262.5503" y="21318.539"><tspan fill="#ffffff" font-family="FreeSans, sans-serif" font-size="706px" font-weight="400" style="white-space:pre">2¹²</tspan></tspan></tspan></text><text class="SVGTextShape" transform="rotate(.1)" x="-314.12158" y="-201.36324"><tspan class="TextParagraph"><tspan class="TextPosition" x="8659.8779" y="21312.637"><tspan fill="#ffffff" font-family="FreeSans, sans-serif" font-size="706px" font-weight="400" style="white-space:pre">2¹⁸</tspan></tspan></tspan></text><text class="SVGTextShape" transform="rotate(.1)" x="-314.8251" y="-205.83824"><tspan class="TextParagraph"><tspan class="TextPosition" x="11054.175" y="21308.162"><tspan fill="#ffffff" font-family="FreeSans, sans-serif" font-size="706px" font-weight="400" style="white-space:pre">2²⁴</tspan></tspan></tspan></text><text class="SVGTextShape" transform="rotate(.1)" x="-313.78812" y="-208.55019"><tspan class="TextParagraph"><tspan class="TextPosition" x="13451.212" y="21305.449"><tspan fill="#ffffff" font-family="FreeSans, sans-serif" font-size="706px" font-weight="400" style="white-space:pre">2³⁰</tspan></tspan></tspan></text><text class="SVGTextShape" transform="rotate(.1)" x="-314.02921" y="-213.65569"><tspan class="TextParagraph"><tspan class="TextPosition" x="15845.971" y="21300.344"><tspan fill="#ffffff" font-family="FreeSans, sans-serif" font-size="706px" font-weight="400" style="white-space:pre">2³⁶</tspan></tspan></tspan></text><text class="SVGTextShape" transform="rotate(.1)" x="-315.46817" y="-216.36385"><tspan class="TextParagraph"><tspan class="TextPosition" x="18239.531" y="21297.637"><tspan fill="#ffffff" font-family="FreeSans, sans-serif" font-size="706px" font-weight="400" style="white-space:pre">2⁴²</tspan></tspan></tspan></text><text class="SVGTextShape" transform="rotate(.1)" x="-314.13983" y="-222.26703"><tspan class="TextParagraph"><tspan class="TextPosition" x="20636.859" y="21291.732"><tspan fill="#ffffff" font-family="FreeSans, sans-serif" font-size="706px" font-weight="400" style="white-space:pre">2⁴⁸</tspan></tspan></tspan></text><text class="SVGTextShape" transform="rotate(.1)" x="-314.84332" y="-226.74379"><tspan class="TextParagraph"><tspan class="TextPosition" x="23032.156" y="21287.256"><tspan fill="#ffffff" font-family="FreeSans, sans-serif" font-size="706px" font-weight="400" style="white-space:pre">2⁵⁴</tspan></tspan></tspan></text><text class="SVGTextShape" transform="rotate(.1)" x="-313.80637" y="-229.45398"><tspan class="TextParagraph"><tspan class="TextPosition" x="25428.193" y="21284.547"><tspan fill="#ffffff" font-family="FreeSans, sans-serif" font-size="706px" font-weight="400" style="white-space:pre">2⁶⁰</tspan></tspan></tspan></text><text class="SVGTextShape" transform="rotate(.1)" x="889.17981" y="-233.11548"><tspan class="TextParagraph"><tspan class="TextPosition" x="27829.18" y="21280.885"><tspan fill="#ffffff" font-family="FreeSans, sans-serif" font-size="706px" font-weight="400" style="white-space:pre">2⁶⁴</tspan></tspan></tspan></text><text class="SVGTextShape"><tspan class="TextParagraph"><tspan class="TextPosition" x="1704" y="20392"><tspan fill="rgb(255,255,255)" font-family="FreeSans, sans-serif" font-size="564px" font-weight="400" style="white-space:pre">0</tspan></tspan></tspan></text><text class="SVGTextShape"><tspan class="TextParagraph"><tspan class="TextPosition" x="1395" y="18058"><tspan fill="rgb(255,255,255)" font-family="FreeSans, sans-serif" font-size="564px" font-weight="400" style="white-space:pre">20</tspan></tspan></tspan></text><text class="SVGTextShape"><tspan class="TextParagraph"><tspan class="TextPosition" x="1395" y="15725"><tspan fill="rgb(255,255,255)" font-family="FreeSans, sans-serif" font-size="564px" font-weight="400" style="white-space:pre">40</tspan></tspan></tspan></text><text class="SVGTextShape"><tspan class="TextParagraph"><tspan class="TextPosition" x="1395" y="13391"><tspan fill="rgb(255,255,255)" font-family="FreeSans, sans-serif" font-size="564px" font-weight="400" style="white-space:pre">60</tspan></tspan></tspan></text><text class="SVGTextShape"><tspan class="TextParagraph"><tspan class="TextPosition" x="1395" y="11059"><tspan fill="rgb(255,255,255)" font-family="FreeSans, sans-serif" font-size="564px" font-weight="400" style="white-space:pre">80</tspan></tspan></tspan></text><text class="SVGTextShape"><tspan class="TextParagraph"><tspan class="TextPosition" x="1086" y="8725"><tspan fill="rgb(255,255,255)" font-family="FreeSans, sans-serif" font-size="564px" font-weight="400" style="white-space:pre">100</tspan></tspan></tspan></text><text class="SVGTextShape"><tspan class="TextParagraph"><tspan class="TextPosition" x="1086" y="6392"><tspan fill="rgb(255,255,255)" font-family="FreeSans, sans-serif" font-size="564px" font-weight="400" style="white-space:pre">120</tspan></tspan></tspan></text><text class="SVGTextShape"><tspan class="TextParagraph"><tspan class="TextPosition" x="1086" y="4059"><tspan fill="rgb(255,255,255)" font-family="FreeSans, sans-serif" font-size="564px" font-weight="400" style="white-space:pre">140</tspan></tspan></tspan></text><text class="SVGTextShape" x="119.11702" y="46.173019"><tspan class="TextParagraph"><tspan class="TextPosition" x="1118.1171" y="1749.173"><tspan fill="#ffffff" font-family="FreeSans, sans-serif" font-size="847px" font-weight="600" style="white-space:pre">Tonelli-Shanks algorithm</tspan></tspan></tspan></text><text class="SVGTextShape" x="-319.67526" y="-46.908245" fill="#7f7f7f"><tspan class="TextParagraph" fill="#7f7f7f"><tspan class="TextPosition" x="28152.324" y="20418.092" fill="#7f7f7f"><tspan fill="#7f7f7f" font-family="FreeSans, sans-serif" font-size="564px" font-weight="400" style="white-space:pre">Bits</tspan></tspan></tspan></text><text class="SVGTextShape" x="-18.592264" y="79.153748" fill="#808080"><tspan class="TextParagraph" fill="#808080"><tspan class="TextPosition" x="1098.4077" y="2841.1538" fill="#808080"><tspan fill="#808080" font-family="FreeSans, sans-serif" font-size="564px" font-weight="400" style="white-space:pre">Nanoseconds</tspan></tspan></tspan></text></svg>
